<?xml version="1.0" encoding="UTF-8"?>
<svg version="1.1" xmlns="http://www.w3.org/2000/svg" width="500" height="500">
<path d="M0 0 C165 0 330 0 500 0 C500 165 500 330 500 500 C335 500 170 500 0 500 C0 335 0 170 0 0 Z " fill="#010101" transform="translate(0,0)"/>
<path d="M0 0 C8.58 0 17.16 0 26 0 C28 8 28 8 28.75 12 C31.10349314 18.41167862 39.4656903 21.15668493 45 24 C45 31.59 45 39.18 45 47 C45.66 47 46.32 47 47 47 C47 43.7 47 40.4 47 37 C50.68992987 37.34593092 52.86453009 38.52595239 55.8125 40.625 C58.78126885 42.56504292 60.57584614 43.35145485 64.125 42.9375 C67.89735455 42.09075028 67.89735455 42.09075028 71.0625 40.9375 C74.82955579 39.73524815 77.0374668 39.44484306 81 40 C84.2157015 42.1977165 86.81362873 44.8814631 89.5 47.6875 C90.60988281 48.7693457 90.60988281 48.7693457 91.7421875 49.87304688 C95.74611821 53.94767897 95.74611821 53.94767897 97 56 C96.57664936 61.14541335 93.83748642 64.87844942 91.1796875 69.18359375 C89.71679604 72.67612602 89.98210626 74.38719404 91 78 C92.0881878 80.4732597 92.0881878 80.4732597 93.4375 82.8125 C95.90723132 87.51641023 97.07400147 91.78073555 98 97 C98.78375 97.0825 99.5675 97.165 100.375 97.25 C104 98 104 98 114 102 C114 110.58 114 119.16 114 128 C102 132 102 132 98 132 C97.72736328 132.8353125 97.72736328 132.8353125 97.44921875 133.6875 C92.80133556 147.79799666 92.80133556 147.79799666 90 152 C90.41979152 157.27865506 93.2678658 161.57980606 95.72265625 166.16015625 C97 169 97 169 97 173 C95.56640625 174.5703125 95.56640625 174.5703125 93.5625 176.125 C88.5001185 180.28176764 84.28875948 185.06594107 80 190 C70.57042254 187.25352113 70.57042254 187.25352113 67.1875 185.75 C63.64773447 184.53636611 61.287981 185.3858469 57.9765625 186.96484375 C56.56586506 187.68037801 55.16293459 188.41150168 53.76953125 189.16015625 C52 190 52 190 50 190 C49.6596875 191.299375 49.6596875 191.299375 49.3125 192.625 C47.26836208 197.88135465 43.81048519 202.01418161 39 205 C38.34 205 37.68 205 37 205 C37 205.66 37 206.32 37 207 C36 208 35 209 34 210 C33.443125 210.9075 32.88625 211.815 32.3125 212.75 C29.88796706 216.1574517 27.34776416 218.46156191 24.15625 221.1171875 C21.16231211 223.73145935 18.52127676 226.64585879 15.859375 229.59375 C14 231 14 231 11.921875 230.859375 C8.00102939 229.10615135 5.48648864 225.61526504 2.875 222.3125 C1.03438927 219.80846331 1.03438927 219.80846331 -2 218 C-2 217.34 -2 216.68 -2 216 C-2.57105469 215.76667969 -3.14210938 215.53335938 -3.73046875 215.29296875 C-6.54340722 213.69041688 -8.2002773 211.76237819 -10.3125 209.3125 C-13.59854608 205.55469483 -16.95502964 201.99030308 -20.58984375 198.5703125 C-22 197 -22 197 -22.796875 195.06640625 C-24.58185792 192.00064013 -27.33699969 190.57270163 -30.3125 188.8125 C-31.16618164 188.27979492 -31.16618164 188.27979492 -32.03710938 187.73632812 C-35.29953446 185.7623924 -38.15528616 184.17158227 -42 184 C-44.33742492 184.98360836 -44.33742492 184.98360836 -46.5 186.5 C-50.36546326 189.05882779 -50.36546326 189.05882779 -53.39111328 188.77832031 C-58.09665715 187.37449532 -60.98936993 183.66569784 -64.375 180.25 C-65.12394531 179.53328125 -65.87289062 178.8165625 -66.64453125 178.078125 C-67.34707031 177.376875 -68.04960937 176.675625 -68.7734375 175.953125 C-69.73902588 174.99647949 -69.73902588 174.99647949 -70.72412109 174.02050781 C-72 172 -72 172 -71.77612305 169.39111328 C-70.95044537 166.84732997 -69.86671207 164.88079341 -68.4375 162.625 C-66.07986251 158.44586416 -65.15967735 155.87387137 -66 151 C-67.15163395 148.14631881 -68.42390225 145.40259635 -69.8046875 142.65234375 C-71 140 -71 140 -71.5 136.0625 C-72.70893543 132.75110039 -72.70893543 132.75110039 -75.90234375 131.7578125 C-78.2288114 131.0534455 -80.57371583 130.40693721 -82.93359375 129.82421875 C-86 129 -86 129 -89 127 C-89.38818359 124.6015625 -89.38818359 124.6015625 -89.3984375 121.625 C-89.40230469 120.55765625 -89.40617188 119.4903125 -89.41015625 118.390625 C-89.39275391 116.71226562 -89.39275391 116.71226562 -89.375 115 C-89.38660156 113.88109375 -89.39820313 112.7621875 -89.41015625 111.609375 C-89.40628906 110.54203125 -89.40242187 109.4746875 -89.3984375 108.375 C-89.39505371 107.39273438 -89.39166992 106.41046875 -89.38818359 105.3984375 C-89.26008301 104.60695313 -89.13198242 103.81546875 -89 103 C-86 101 -86 101 -83.0390625 100.4921875 C-79.16976547 99.7927036 -76.38839494 99.02622612 -73 97 C-70.32737973 92.76876754 -69.50711261 87.74898734 -68.51074219 82.91113281 C-68 81 -68 81 -66.3203125 77.8046875 C-64.77232686 74.51636298 -64.83063799 73.38357063 -66 70 C-66.7809826 68.28764289 -67.61646452 66.59926585 -68.5 64.9375 C-71.65134638 58.99208197 -71.65134638 58.99208197 -72 56 C-69.19651881 52.68679496 -65.91427767 50.11117028 -62.5390625 47.40234375 C-60.78359029 45.8028145 -59.40259207 44.05455323 -57.9375 42.1875 C-55.32128647 39.08454907 -55.32128647 39.08454907 -52.625 38.375 C-48.9224259 39.25656526 -45.52724017 40.56519044 -42 42 C-42 42.66 -42 43.32 -42 44 C-37.37146875 44.47126864 -35.13620476 43.11108429 -31.375 40.5 C-26.30555556 37 -26.30555556 37 -23 37 C-23 37.66 -23 38.32 -23 39 C-22.34 39 -21.68 39 -21 39 C-21.26103516 37.64068359 -21.26103516 37.64068359 -21.52734375 36.25390625 C-21.99017597 32.08841631 -22.08573117 29.06718344 -21 25 C-18.31171417 22.29327599 -15.03947919 20.6819793 -11.59936523 19.10571289 C-7.85186859 17.35597757 -6.30097807 16.53572785 -4.20703125 12.80859375 C-3.80871094 11.55175781 -3.41039062 10.29492188 -3 9 C-2.01 6.03 -1.02 3.06 0 0 Z " fill="#060606" transform="translate(238,102)"/>
<path d="M0 0 C3.51307791 1.07533271 5.92144605 1.94023069 8.875 4.1875 C13.00015371 6.58008915 15.50534228 6.14853427 20 5 C21.010625 4.649375 22.02125 4.29875 23.0625 3.9375 C26.82955579 2.73524815 29.0374668 2.44484306 33 3 C36.2157015 5.1977165 38.81362873 7.8814631 41.5 10.6875 C42.23992187 11.40873047 42.97984375 12.12996094 43.7421875 12.87304688 C47.74611821 16.94767897 47.74611821 16.94767897 49 19 C48.57664936 24.14541335 45.83748642 27.87844942 43.1796875 32.18359375 C41.71679604 35.67612602 41.98210626 37.38719404 43 41 C44.0881878 43.4732597 44.0881878 43.4732597 45.4375 45.8125 C47.90723132 50.51641023 49.07400147 54.78073555 50 60 C50.78375 60.0825 51.5675 60.165 52.375 60.25 C56 61 56 61 66 65 C66 73.58 66 82.16 66 91 C54 95 54 95 50 95 C49.81824219 95.556875 49.63648438 96.11375 49.44921875 96.6875 C44.80133556 110.79799666 44.80133556 110.79799666 42 115 C42.41979152 120.27865506 45.2678658 124.57980606 47.72265625 129.16015625 C49 132 49 132 49 136 C47.56640625 137.5703125 47.56640625 137.5703125 45.5625 139.125 C40.5001185 143.28176764 36.28875948 148.06594107 32 153 C22.57042254 150.25352113 22.57042254 150.25352113 19.1875 148.75 C15.64773447 147.53636611 13.287981 148.3858469 9.9765625 149.96484375 C8.56586506 150.68037801 7.16293459 151.41150168 5.76953125 152.16015625 C4 153 4 153 2 153 C2 153.66 2 154.32 2 155 C1.11957031 155.26554688 0.23914063 155.53109375 -0.66796875 155.8046875 C-2.41013672 156.33449219 -2.41013672 156.33449219 -4.1875 156.875 C-5.91033203 157.39707031 -5.91033203 157.39707031 -7.66796875 157.9296875 C-10.93124321 158.92807113 -10.93124321 158.92807113 -13.73828125 160.1328125 C-16 161 -16 161 -19 161 C-17.59981232 155.39924929 -15.36243403 150.81042129 -11 147 C-7.94671703 145.55630898 -4.92026395 144.35914342 -1.74902344 143.21655273 C4.2446551 141.031879 9.02331477 138.00605514 14 134 C14.70640625 133.45601562 15.4128125 132.91203125 16.140625 132.3515625 C28.58898748 122.23132888 34.90498049 107.12007205 39 92 C39.1743457 91.37625488 39.34869141 90.75250977 39.52832031 90.10986328 C43.19690407 73.69997671 39.12766952 56.48230257 30.875 42.1875 C28.76821177 38.96633168 26.42705677 35.9871468 24 33 C24 32.34 24 31.68 24 31 C23.34 31 22.68 31 22 31 C20.83322708 29.86754393 19.67266214 28.72804175 18.54296875 27.55859375 C13.6714902 22.63778378 8.52808705 18.46865418 2.56640625 14.9453125 C1 14 1 14 0 13 C-0.07258946 10.81360547 -0.08373783 8.62499611 -0.0625 6.4375 C-0.05347656 5.23996094 -0.04445313 4.04242188 -0.03515625 2.80859375 C-0.02355469 1.88175781 -0.01195312 0.95492187 0 0 Z " fill="#ADADAD" transform="translate(286,139)"/>
<path d="M0 0 C0.74495098 4.2006958 1.02374677 7.83151315 0 12 C-2.73272951 14.36564644 -5.49433472 15.71487729 -8.74609375 17.28125 C-13.77451541 19.93731906 -17.19710536 23.85208468 -21 28 C-21.66 28.64582031 -22.32 29.29164063 -23 29.95703125 C-36.21238644 43.45327756 -40.3125 61.13533446 -40.3125 79.38110352 C-39.99377528 101.35681064 -30.37943844 118.98678706 -14.859375 134.08203125 C-9.13640536 138.92034337 -2.39111362 141.9973532 4.328125 145.203125 C10.12353154 148.00136646 13.74947019 150.22128034 17 156 C17 156.99 17 157.98 17 159 C6.07344781 158.10438097 -2.44351161 155.92503806 -11.4921875 149.5234375 C-14.153783 147.90658042 -15.89362948 147.16764539 -19 147 C-21.33742492 147.98360836 -21.33742492 147.98360836 -23.5 149.5 C-27.36546326 152.05882779 -27.36546326 152.05882779 -30.39111328 151.77832031 C-35.09665715 150.37449532 -37.98936993 146.66569784 -41.375 143.25 C-42.12394531 142.53328125 -42.87289062 141.8165625 -43.64453125 141.078125 C-44.34707031 140.376875 -45.04960937 139.675625 -45.7734375 138.953125 C-46.73902588 137.99647949 -46.73902588 137.99647949 -47.72412109 137.02050781 C-49 135 -49 135 -48.77612305 132.39111328 C-47.95044537 129.84732997 -46.86671207 127.88079341 -45.4375 125.625 C-43.07986251 121.44586416 -42.15967735 118.87387137 -43 114 C-44.15163395 111.14631881 -45.42390225 108.40259635 -46.8046875 105.65234375 C-48 103 -48 103 -48.5 99.0625 C-49.70893543 95.75110039 -49.70893543 95.75110039 -52.90234375 94.7578125 C-55.2288114 94.0534455 -57.57371583 93.40693721 -59.93359375 92.82421875 C-63 92 -63 92 -66 90 C-66.38818359 87.6015625 -66.38818359 87.6015625 -66.3984375 84.625 C-66.40230469 83.55765625 -66.40617188 82.4903125 -66.41015625 81.390625 C-66.39275391 79.71226562 -66.39275391 79.71226562 -66.375 78 C-66.38660156 76.88109375 -66.39820313 75.7621875 -66.41015625 74.609375 C-66.40628906 73.54203125 -66.40242187 72.4746875 -66.3984375 71.375 C-66.39505371 70.39273438 -66.39166992 69.41046875 -66.38818359 68.3984375 C-66.26008301 67.60695313 -66.13198242 66.81546875 -66 66 C-63 64 -63 64 -60.0390625 63.4921875 C-56.16976547 62.7927036 -53.38839494 62.02622612 -50 60 C-47.32737973 55.76876754 -46.50711261 50.74898734 -45.51074219 45.91113281 C-45 44 -45 44 -43.3203125 40.8046875 C-41.77232686 37.51636298 -41.83063799 36.38357063 -43 33 C-43.7809826 31.28764289 -44.61646452 29.59926585 -45.5 27.9375 C-48.65134638 21.99208197 -48.65134638 21.99208197 -49 19 C-46.19651881 15.68679496 -42.91427767 13.11117028 -39.5390625 10.40234375 C-37.78359029 8.8028145 -36.40259207 7.05455323 -34.9375 5.1875 C-32.32128647 2.08454907 -32.32128647 2.08454907 -29.625 1.375 C-25.9224259 2.25656526 -22.52724017 3.56519044 -19 5 C-19 5.66 -19 6.32 -19 7 C-14.37146875 7.47126864 -12.13620476 6.11108429 -8.375 3.5 C-3.30555556 0 -3.30555556 0 0 0 Z " fill="#B4B4B4" transform="translate(215,139)"/>
<path d="M0 0 C2.7117211 1.15051505 5.30478774 2.44205682 7.91308594 3.81274414 C9.028125 4.39604492 10.14316406 4.9793457 11.29199219 5.58032227 C12.45085937 6.19198242 13.60972656 6.80364258 14.80371094 7.43383789 C15.98970361 8.0559741 17.17589944 8.6777232 18.36230469 9.29907227 C21.26146237 10.81936227 24.15848245 12.3435822 27.05371094 13.87133789 C28.01966711 53.42105118 28.01966711 53.42105118 16.71777344 66.59399414 C11.66226865 71.86963352 7.1530693 76.26402554 -0.32128906 77.37133789 C-9.517185 76.10293845 -15.54757529 68.94942255 -20.94628906 61.87133789 C-27.69160073 51.01662519 -28.22621501 40.81802989 -28.07128906 28.37133789 C-28.06123976 26.96249008 -28.05211735 25.55363534 -28.04394531 24.14477539 C-28.02048875 20.72011739 -27.9876629 17.2958185 -27.94628906 13.87133789 C-27.3363208 13.55382568 -26.72635254 13.23631348 -26.09790039 12.90917969 C-23.31736346 11.46065864 -20.53806782 10.00977144 -17.75878906 8.55883789 C-16.79908203 8.05932617 -15.839375 7.55981445 -14.85058594 7.04516602 C-13.91923828 6.55854492 -12.98789063 6.07192383 -12.02832031 5.57055664 C-11.17471924 5.12542725 -10.32111816 4.68029785 -9.44165039 4.22167969 C-6.88445286 2.89006281 -6.88445286 2.89006281 -4.37866211 1.14013672 C-1.94628906 -0.12866211 -1.94628906 -0.12866211 0 0 Z " fill="#E3E3E3" transform="translate(250.9462890625,117.128662109375)"/>
<path d="M0 0 C0.66796875 1.8203125 0.66796875 1.8203125 1.1875 4.125 C2.90166209 9.78173491 6.17113002 12.75617894 11 16 C16.62215712 18.63897171 21.68065313 18.77311562 27.5625 16.8125 C35.34709666 12.70789449 37.6355298 9.54025992 40.3359375 1.23046875 C40.55507813 0.49441406 40.77421875 -0.24164063 41 -1 C43.81675495 -0.37353305 46.26465006 0.4932129 48.86328125 1.7421875 C49.58580078 2.08636719 50.30832031 2.43054688 51.05273438 2.78515625 C51.79845703 3.14480469 52.54417969 3.50445312 53.3125 3.875 C59.53534259 6.86129203 59.53534259 6.86129203 65.85546875 9.6328125 C69 11 69 11 72 13 C72 13.66 72 14.32 72 15 C70.1015625 16.5078125 70.1015625 16.5078125 67.625 18.125 C66.81289063 18.66382813 66.00078125 19.20265625 65.1640625 19.7578125 C63 21 63 21 61 21 C61.061875 20.113125 61.12375 19.22625 61.1875 18.3125 C60.33763229 14.84163256 60.33763229 14.84163256 57.484375 13.48828125 C54.68304467 12.2348655 51.87579376 11.07072387 49 10 C49.37454477 12.51103257 49.58363516 13.67649351 51.62890625 15.265625 C52.26699219 15.59046875 52.90507812 15.9153125 53.5625 16.25 C54.696875 16.8275 55.83125 17.405 57 18 C57.43040777 21.06665539 57.66698062 23.03272403 57 26 C55.2990577 28.01845153 53.41904157 29.48764517 51.34375 31.1171875 C34.71831249 44.47295563 26.29087345 65.94507015 21 86 C18.81124228 82.71686342 17.87823148 79.82086744 16.6875 76.0625 C11.17740524 59.13995092 2.37040143 37.84171708 -13.1796875 27.55859375 C-15 26 -15 26 -15.49609375 23.80859375 C-15.47675781 23.02613281 -15.45742187 22.24367187 -15.4375 21.4375 C-15.43621094 20.65246094 -15.43492187 19.86742187 -15.43359375 19.05859375 C-15 17 -15 17 -12 15 C-10.68 15 -9.36 15 -8 15 C-8 13.35 -8 11.7 -8 10 C-8.62648437 10.28875 -9.25296875 10.5775 -9.8984375 10.875 C-11.12433594 11.431875 -11.12433594 11.431875 -12.375 12 C-13.18710938 12.37125 -13.99921875 12.7425 -14.8359375 13.125 C-17 14 -17 14 -19 14 C-19 16.64 -19 19.28 -19 22 C-21.99254618 20.59808647 -24.5954611 18.96632511 -27.25 17 C-27.95640625 16.484375 -28.6628125 15.96875 -29.390625 15.4375 C-30.18726563 14.7259375 -30.18726563 14.7259375 -31 14 C-31 13.34 -31 12.68 -31 12 C-27.07316001 10.11771621 -23.14049786 8.24838654 -19.2019043 6.39086914 C-17.86265933 5.75703669 -16.52507553 5.11968193 -15.18920898 4.47875977 C-13.26971508 3.55857163 -11.34462097 2.6511791 -9.41796875 1.74609375 C-8.26063232 1.19622803 -7.1032959 0.6463623 -5.91088867 0.07983398 C-3 -1 -3 -1 0 0 Z " fill="#E1E1E1" transform="translate(230,195)"/>
<path d="M0 0 C0.495 0.99 0.495 0.99 1 2 C1.66 2 2.32 2 3 2 C5.67212093 7.34424185 3.55047982 13.28807044 1.94921875 18.66796875 C1 21 1 21 -0.66796875 22.98828125 C-2.23896748 24.92832824 -2.23896748 24.92832824 -1.87890625 27.37109375 C-0.48167823 31.550358 1.64621718 35.28576522 3.72265625 39.16015625 C5 42 5 42 5 46 C3.56640625 47.5703125 3.56640625 47.5703125 1.5625 49.125 C-3.4998815 53.28176764 -7.71124052 58.06594107 -12 63 C-21.42957746 60.25352113 -21.42957746 60.25352113 -24.8125 58.75 C-28.35226553 57.53636611 -30.712019 58.3858469 -34.0234375 59.96484375 C-35.43413494 60.68037801 -36.83706541 61.41150168 -38.23046875 62.16015625 C-40 63 -40 63 -42 63 C-42 63.66 -42 64.32 -42 65 C-42.88042969 65.26554687 -43.76085937 65.53109375 -44.66796875 65.8046875 C-45.82941406 66.15789062 -46.99085938 66.51109375 -48.1875 66.875 C-49.33605469 67.22304688 -50.48460937 67.57109375 -51.66796875 67.9296875 C-54.93124321 68.92807113 -54.93124321 68.92807113 -57.73828125 70.1328125 C-60 71 -60 71 -63 71 C-61.59981232 65.39924929 -59.36243403 60.81042129 -55 57 C-51.94671703 55.55630898 -48.92026395 54.35914342 -45.74902344 53.21655273 C-39.7553449 51.031879 -34.97668523 48.00605514 -30 44 C-29.29359375 43.45601563 -28.5871875 42.91203125 -27.859375 42.3515625 C-16.8377909 33.39126703 -10.67685466 20.18358214 -5.95703125 7.05859375 C-4.92294656 4.83425649 -3.90204165 3.53834376 -2 2 C-1.34 2 -0.68 2 0 2 C0 1.34 0 0.68 0 0 Z " fill="#B8B8B8" transform="translate(330,229)"/>
<path d="M0 0 C4.60408189 1.69417664 7.42822711 3.67742057 11 7 C11 7.66 11 8.32 11 9 C11.6909375 9.03609375 12.381875 9.0721875 13.09375 9.109375 C17.30807169 10.40086068 19.5251011 13.09564084 22.5 16.25 C23.05558594 16.82363281 23.61117187 17.39726562 24.18359375 17.98828125 C25.28207379 19.12294651 26.37631257 20.26173464 27.46606445 21.40478516 C28.83307054 22.82640186 30.23281204 24.21637455 31.63671875 25.6015625 C34.01227331 28.01245589 36.17952472 30.4979457 38.3125 33.125 C39.00988281 33.97320312 39.70726562 34.82140625 40.42578125 35.6953125 C42 38 42 38 42 41 C42.66 41 43.32 41 44 41 C54.27915963 54.45828117 63.33635641 72.84582319 63 90 C61 89 61 89 60.2890625 87.14453125 C60.06992188 86.37496094 59.85078125 85.60539062 59.625 84.8125 C58.32477504 80.66228701 56.53184623 77.56040876 54 74 C52.66515126 71.44153991 51.39485801 68.8684465 50.20043945 66.24145508 C47.64269901 60.8129373 44.39660774 56.26102386 40.6875 51.5625 C40.10718018 50.81822754 39.52686035 50.07395508 38.92895508 49.30712891 C37.79092486 47.84793581 36.65063756 46.39049947 35.5078125 44.93505859 C33.69598535 42.6098413 31.94631123 40.24043825 30.1875 37.875 C26.91432427 33.68048592 23.1004942 30.36368665 19 27 C17.66448105 25.85671484 16.33100926 24.71103218 15 23.5625 C14.01 22.716875 13.02 21.87125 12 21 C12.62668611 32.2803499 18.48860289 40.84476885 26 49 C27.56279954 50.39829433 29.14595196 51.7742227 30.75 53.125 C34.95930205 56.70181625 36.96784884 59.87544489 39 65 C39 65.66 39 66.32 39 67 C28.715958 64.98941201 18.990051 55.11486987 13.1875 46.875 C12.11359549 45.25751419 11.05144715 43.63217344 10 42 C9.3296875 41.08089844 8.659375 40.16179687 7.96875 39.21484375 C5.67395357 35.46758688 4.50102708 31.8874719 3.3125 27.6875 C2.29373174 22.97624457 2.29373174 22.97624457 0 19 C-0.08651611 17.58429877 -0.10704904 16.164405 -0.09765625 14.74609375 C-0.09443359 13.89208984 -0.09121094 13.03808594 -0.08789062 12.15820312 C-0.07951172 11.26037109 -0.07113281 10.36253906 -0.0625 9.4375 C-0.05798828 8.53580078 -0.05347656 7.63410156 -0.04882812 6.70507812 C-0.03700225 4.46998686 -0.0205222 2.23502563 0 0 Z " fill="#4A4A4A" transform="translate(181,209)"/>
<path d="M0 0 C0.99 0 1.98 0 3 0 C4.4697243 19.73240952 -1.49169487 36.26055455 -14.375 51.25 C-20.77033966 58.09051611 -27.48309327 63.12867876 -36 67 C-34.04400803 59.88730192 -30.82213001 54.3174036 -25.125 49.625 C-16.63581302 42.5586711 -10.56089321 32.08405379 -8.1875 21.3125 C-8.0946875 20.1678125 -8.0946875 20.1678125 -8 19 C-11.00882845 20.91470901 -13.72240423 22.72240423 -16.25 25.25 C-16.8275 25.8275 -17.405 26.405 -18 27 C-18.66 27 -19.32 27 -20 27 C-20.33451172 27.81791016 -20.33451172 27.81791016 -20.67578125 28.65234375 C-22.4073729 31.72221568 -24.75420223 34.05043228 -27.1875 36.5625 C-31.60564922 41.24117713 -35.1987956 46.01749884 -38.51953125 51.5546875 C-39.77442903 53.62742103 -41.09223833 55.51734753 -42.5625 57.4375 C-45.40660294 61.32007474 -47.39536719 65.61029397 -49.47265625 69.9375 C-50.56231837 72.12239796 -51.74578449 74.2615333 -52.98828125 76.36328125 C-55.17883966 80.14720951 -56.66579416 84.07624545 -58.125 88.1875 C-61.15323529 96.59667647 -61.15323529 96.59667647 -63 100 C-63.98771067 96.91119076 -63.98987772 95.03382425 -63.06640625 91.9375 C-62.8338916 91.15068848 -62.60137695 90.36387695 -62.36181641 89.55322266 C-62.09804199 88.71065918 -61.83426758 87.8680957 -61.5625 87 C-61.29099121 86.12005371 -61.01948242 85.24010742 -60.73974609 84.33349609 C-52.06911656 56.90818279 -38.95005952 32.13258919 -17 13 C-16.34 13 -15.68 13 -15 13 C-15 12.34 -15 11.68 -15 11 C-12.9055032 9.36570249 -10.82217909 7.85832766 -8.625 6.375 C-8.02171875 5.95476562 -7.4184375 5.53453125 -6.796875 5.1015625 C-2.26537135 2 -2.26537135 2 0 2 C0 1.34 0 0.68 0 0 Z " fill="#494949" transform="translate(317,210)"/>
<path d="M0 0 C1.918125 0.4640625 1.918125 0.4640625 3.875 0.9375 C6.50658511 1.57072517 8.72679515 2.01138354 11.4375 1.8984375 C14.98033752 1.77352977 17.65232343 1.86518537 20.46533203 4.23388672 C24.73795838 8.6089343 28.6541876 13.44120864 31.50390625 18.859375 C32.85610507 21.18096382 32.85610507 21.18096382 35.40625 22.09375 C38.15211305 22.25425133 38.15211305 22.25425133 40.28125 20.15625 C41.0134375 19.2796875 41.745625 18.403125 42.5 17.5 C43.28117187 16.58347656 44.06234375 15.66695313 44.8671875 14.72265625 C46.59986138 12.51079967 48.12982933 10.30897931 49.625 7.9375 C52 5 52 5 55.25 4.25 C56.4875 4.1675 57.725 4.085 59 4 C60.55426702 3.54066336 62.09630122 3.03834575 63.625 2.5 C66.73516605 1.41011275 69.7356719 0.52650453 73 0 C71.08196157 5.59427877 68.03189025 9.81313617 63 13 C62.34 13 61.68 13 61 13 C61 13.66 61 14.32 61 15 C60 16 59 17 58 18 C57.443125 18.9075 56.88625 19.815 56.3125 20.75 C53.88796706 24.1574517 51.34776416 26.46156191 48.15625 29.1171875 C45.16231211 31.73145935 42.52127676 34.64585879 39.859375 37.59375 C38 39 38 39 35.921875 38.859375 C32.00102939 37.10615135 29.48648864 33.61526504 26.875 30.3125 C25.03438927 27.80846331 25.03438927 27.80846331 22 26 C22 25.34 22 24.68 22 24 C21.42894531 23.76667969 20.85789063 23.53335937 20.26953125 23.29296875 C17.45659278 21.69041688 15.7997227 19.76237819 13.6875 17.3125 C10.91329671 14.1354421 8.12039299 11.09185861 5.0625 8.1875 C2.48793922 5.67253554 0.96742107 3.54721061 0 0 Z " fill="#4B4B4B" transform="translate(214,294)"/>
<path d="M0 0 C8.58 0 17.16 0 26 0 C28 8 28 8 28.75 12 C31.10349314 18.41167862 39.4656903 21.15668493 45 24 C45 31.59 45 39.18 45 47 C44.34 47 43.68 47 43 47 C43 40.4 43 33.8 43 27 C40.525 26.01 40.525 26.01 38 25 C36.19547384 24.09428384 34.40300351 23.16428255 32.62109375 22.21484375 C31.61755859 21.68439453 30.61402344 21.15394531 29.58007812 20.60742188 C27.48036078 19.49166157 25.38140485 18.37446723 23.28320312 17.25585938 C22.28095703 16.72669922 21.27871094 16.19753906 20.24609375 15.65234375 C18.87988892 14.92519165 18.87988892 14.92519165 17.48608398 14.18334961 C14.36155722 12.62147553 14.36155722 12.62147553 11 12 C7.96901483 13.25531548 7.96901483 13.25531548 4.7734375 15.18359375 C4.18454742 15.51794937 3.59565735 15.85230499 2.98892212 16.1967926 C1.1107791 17.26557055 -0.75730914 18.35057697 -2.625 19.4375 C-4.5012921 20.51800035 -6.37948457 21.59496824 -8.26034546 22.66749573 C-9.96352202 23.640441 -11.66086336 24.6235797 -13.35791016 25.60717773 C-16 27 -16 27 -18 27 C-18 33.93 -18 40.86 -18 48 C-18.99 48 -19.98 48 -21 48 C-23.40184169 28.13738511 -23.40184169 28.13738511 -19.57617188 23.14013672 C-16.48415934 20.70605242 -13.20695845 19.28764907 -9.57421875 17.84375 C-6.38495166 16.47680611 -6.05164709 16.09091688 -4.20703125 12.84375 C-3.80871094 11.5753125 -3.41039062 10.306875 -3 9 C-2.01 6.03 -1.02 3.06 0 0 Z " fill="#A9A9A9" transform="translate(238,102)"/>
<path d="M0 0 C2.58293466 0.95162301 4.94874314 2.12533275 7.38647461 3.40576172 C8.3887207 3.93041016 9.3909668 4.45505859 10.42358398 4.99560547 C11.46450195 5.54603516 12.50541992 6.09646484 13.57788086 6.66357422 C14.61493164 7.20626953 15.65198242 7.74896484 16.72045898 8.30810547 C19.53569299 9.78714299 22.34840909 11.2660596 25.14038086 12.78857422 C26.06625 13.24675537 26.99211914 13.70493652 27.94604492 14.17700195 C30.14038086 15.78857422 30.14038086 15.78857422 30.70800781 17.96508789 C30.68182373 18.78726807 30.65563965 19.60944824 30.62866211 20.45654297 C30.61254883 21.34921875 30.59643555 22.24189453 30.57983398 23.16162109 C30.53793945 24.09039062 30.49604492 25.01916016 30.45288086 25.97607422 C30.43032227 26.91644531 30.40776367 27.85681641 30.38452148 28.82568359 C30.32557313 31.14824895 30.24335871 33.46761197 30.14038086 35.78857422 C31.46038086 35.78857422 32.78038086 35.78857422 34.14038086 35.78857422 C34.14038086 32.48857422 34.14038086 29.18857422 34.14038086 25.78857422 C34.47038086 25.78857422 34.80038086 25.78857422 35.14038086 25.78857422 C35.16732937 27.74683295 35.18675304 29.70519648 35.20288086 31.66357422 C35.21448242 32.75412109 35.22608398 33.84466797 35.23803711 34.96826172 C35.14038086 37.78857422 35.14038086 37.78857422 34.14038086 39.78857422 C34.03730092 41.32904658 33.9572371 42.87110516 33.89038086 44.41357422 C33.41766545 49.57592668 31.95252824 54.11000613 28.14038086 57.78857422 C26.82038086 57.78857422 25.50038086 57.78857422 24.14038086 57.78857422 C24.2731543 56.91201172 24.40592773 56.03544922 24.54272461 55.13232422 C26.27150728 42.71537422 26.75453718 30.31124074 27.14038086 17.78857422 C26.35791992 17.57587891 25.57545898 17.36318359 24.76928711 17.14404297 C18.94753297 14.96950187 13.73345855 11.67353209 8.39624023 8.51318359 C7.1075 7.77745117 7.1075 7.77745117 5.79272461 7.02685547 C5.01920654 6.5735083 4.24568848 6.12016113 3.44873047 5.65307617 C0.50963762 4.55235404 -0.88729986 4.83919461 -3.85961914 5.78857422 C-5.63472054 6.63262501 -7.37773921 7.54620782 -9.09008789 8.51123047 C-10.0575293 9.04941406 -11.0249707 9.58759766 -12.02172852 10.14208984 C-13.02010742 10.70605469 -14.01848633 11.27001953 -15.04711914 11.85107422 C-17.03852072 12.97068162 -19.03191254 14.08675885 -21.02758789 15.19873047 C-21.90697021 15.6951001 -22.78635254 16.19146973 -23.69238281 16.70288086 C-25.85961914 17.78857422 -25.85961914 17.78857422 -27.85961914 17.78857422 C-27.74054988 21.93302682 -27.61625523 26.07728137 -27.48730469 30.22143555 C-27.44423256 31.62861979 -27.4025405 33.03584703 -27.36230469 34.44311523 C-27.30392344 36.4763683 -27.24043229 38.50941038 -27.17602539 40.54248047 C-27.13936768 41.76265869 -27.10270996 42.98283691 -27.06494141 44.23999023 C-26.91347308 47.83707556 -26.91347308 47.83707556 -26.27734375 51.55395508 C-25.85961914 54.78857422 -25.85961914 54.78857422 -26.85961914 57.78857422 C-29.79751912 56.77550526 -30.81462372 55.85690059 -32.54711914 53.22607422 C-34.09763498 49.16519939 -35.04325111 45.16076396 -34.85961914 40.78857422 C-34.19961914 40.12857422 -33.53961914 39.46857422 -32.85961914 38.78857422 C-31.86961914 38.78857422 -30.87961914 38.78857422 -29.85961914 38.78857422 C-30.35461914 37.30357422 -30.35461914 37.30357422 -30.85961914 35.78857422 C-30.940686 34.23435693 -30.96718812 32.67690395 -30.95727539 31.12060547 C-30.95405273 30.22792969 -30.95083008 29.33525391 -30.94750977 28.41552734 C-30.93913086 27.48675781 -30.93075195 26.55798828 -30.92211914 25.60107422 C-30.91760742 24.66070312 -30.9130957 23.72033203 -30.90844727 22.75146484 C-30.8966654 20.43043709 -30.88021472 18.10953777 -30.85961914 15.78857422 C-30.0877124 15.37494629 -29.31580566 14.96131836 -28.52050781 14.53515625 C-25.65169517 12.99697334 -22.78361265 11.45744 -19.91601562 9.91699219 C-18.67574608 9.25108653 -17.43518861 8.58571685 -16.19433594 7.92089844 C-14.40882258 6.96414358 -12.62436018 6.00545366 -10.84008789 5.04638672 C-9.22976685 4.18231201 -9.22976685 4.18231201 -7.58691406 3.30078125 C-1.3558722 -0.15415325 -1.3558722 -0.15415325 0 0 Z " fill="#171717" transform="translate(250.859619140625,113.21142578125)"/>
<path d="M0 0 C3.34125 -0.0825 6.6825 -0.165 10.125 -0.25 C11.16672363 -0.28641602 12.20844727 -0.32283203 13.28173828 -0.36035156 C19.15601894 -0.43040453 22.60658858 -0.04165135 27 4 C28.125 7.4375 28.125 7.4375 28 11 C26.25 13.9375 26.25 13.9375 24 16 C23.01 16 22.02 16 21 16 C21.5053125 16.85464844 22.010625 17.70929688 22.53125 18.58984375 C23.1809375 19.69457031 23.830625 20.79929687 24.5 21.9375 C25.47453125 23.59072266 25.47453125 23.59072266 26.46875 25.27734375 C28 28 28 28 28 29 C25.69 29 23.38 29 21 29 C20.896875 28.278125 20.79375 27.55625 20.6875 26.8125 C19.93970722 23.75334771 18.65222195 21.65792227 17 19 C17 18.34 17 17.68 17 17 C13.04 17 9.08 17 5 17 C5.33 20.96 5.66 24.92 6 29 C4.02 29 2.04 29 0 29 C0 19.43 0 9.86 0 0 Z " fill="#E4E4E4" transform="translate(364,331)"/>
<path d="M0 0 C0.20710863 5.64214115 -0.31198658 10.41308531 -2.0625 15.8125 C-2.28583008 16.50682129 -2.50916016 17.20114258 -2.73925781 17.91650391 C-7.97538616 33.31499563 -20.02828974 47.09362968 -34.5625 54.4375 C-36.2640625 55.2109375 -36.2640625 55.2109375 -38 56 C-36.04400803 48.88730192 -32.82213001 43.3174036 -27.125 38.625 C-17.62224208 30.69412685 -12.21837677 19.04661817 -8.5 7.4375 C-7.01725537 4.03954355 -4.33809205 0 0 0 Z " fill="#C1C1C1" transform="translate(319,221)"/>
<path d="M0 0 C3.98169084 1.32723028 6.28850468 2.79256518 9 6 C10.16796875 8.99609375 10.16796875 8.99609375 11.1875 12.4375 C15.23355796 24.28052072 22.16923936 32.60897231 31.6015625 40.70703125 C34.9158665 43.87559224 36.39941513 46.73177369 38 51 C38 51.66 38 52.32 38 53 C27.715958 50.98941201 17.990051 41.11486987 12.1875 32.875 C11.11359549 31.25751419 10.05144715 29.63217344 9 28 C8.33097656 27.07445312 7.66195312 26.14890625 6.97265625 25.1953125 C4.72051711 21.54729307 3.47005117 18.08218378 2.25 14 C2.02957031 13.31421875 1.80914062 12.6284375 1.58203125 11.921875 C0.32691865 7.83691225 -0.24000346 4.26672823 0 0 Z " fill="#DCDCDC" transform="translate(182,223)"/>
<path d="M0 0 C2.64 0 5.28 0 8 0 C8.10183594 0.69867188 8.20367187 1.39734375 8.30859375 2.1171875 C9.10970943 5.45743253 10.45525189 8.09288655 12.0625 11.125 C15 16.66823529 15 16.66823529 15 20 C15.66 20 16.32 20 17 20 C17.10183594 19.30132812 17.20367187 18.60265625 17.30859375 17.8828125 C18.10970943 14.54256747 19.45525189 11.90711345 21.0625 8.875 C23.40122735 4.6601338 23.40122735 4.6601338 24 0 C26.64 0 29.28 0 32 0 C32 9.57 32 19.14 32 29 C30.02 29 28.04 29 26 29 C26 22.4 26 15.8 26 9 C22.7 15.27 19.4 21.54 16 28 C13.92961117 25.23948155 12.5462683 23.32768156 11.17578125 20.328125 C10.89903564 19.7290332 10.62229004 19.12994141 10.3371582 18.51269531 C9.999021 17.76600586 9.66088379 17.01931641 9.3125 16.25 C8.219375 13.8575 7.12625 11.465 6 9 C5.67 15.6 5.34 22.2 5 29 C3.35 29 1.7 29 0 29 C0 19.43 0 9.86 0 0 Z " fill="#E5E5E5" transform="translate(399,331)"/>
<path d="M0 0 C0.77923828 0.61488281 0.77923828 0.61488281 1.57421875 1.2421875 C7.36471525 5.71617555 12.00571354 8.67725331 19.51171875 8.6015625 C23.84401947 7.5541931 26.75988304 4.65788174 30.03125 1.75 C32 0 32 0 33 0 C33 3.63 33 7.26 33 11 C32.34 11 31.68 11 31 11 C30.814375 11.721875 30.62875 12.44375 30.4375 13.1875 C28.41648176 17.14166613 26.07950106 19.22882872 22 21 C16.58795994 21.90985021 12.39803986 21.72398493 7.5 19.1875 C6.675 18.465625 5.85 17.74375 5 17 C4.4225 16.525625 3.845 16.05125 3.25 15.5625 C-0.55852087 10.80184892 -0.22736529 5.79781491 0 0 Z " fill="#AFAFAF" transform="translate(234,188)"/>
<path d="M0 0 C8.64640323 1.55440957 16.48921742 10.61909386 22 17 C24.22091497 20.22697046 26.17502189 23.53553337 28 27 C28.36609375 27.66257813 28.7321875 28.32515625 29.109375 29.0078125 C30.10127673 31.22654006 30.5068804 33.15421755 30.8125 35.5625 C30.97685547 36.70912109 30.97685547 36.70912109 31.14453125 37.87890625 C31 40 31 40 29.69921875 41.77734375 C28 43 28 43 25 43 C24.81566406 42.35675781 24.63132812 41.71351563 24.44140625 41.05078125 C20.03637889 27.32667378 12.2991522 18.44056327 1 10 C0.34 9.34 -0.32 8.68 -1 8 C-0.96712417 5.27130593 -0.43602229 2.7033382 0 0 Z " fill="#BFBFBF" transform="translate(286,161)"/>
<path d="M0 0 C0.99 0.33 1.98 0.66 3 1 C4.56731165 5.17949774 4.56731165 5.17949774 4 8 C1.75038257 10.30930115 -0.70678936 12.08927993 -3.3046875 13.99609375 C-12.55490052 20.87342604 -19.46702837 32.76090486 -22 44 C-26.75 42.125 -26.75 42.125 -29 41 C-27.18411074 25.14777752 -15.7982473 12.43304411 -4 2.6875 C-1.875 1.01171875 -1.875 1.01171875 0 0 Z " fill="#BBBBBB" transform="translate(212,160)"/>
<path d="M0 0 C3.0525 -0.061875 6.105 -0.12375 9.25 -0.1875 C10.68327637 -0.22846802 10.68327637 -0.22846802 12.14550781 -0.27026367 C15.73109655 -0.30554295 18.32266968 -0.32995517 21.58203125 1.2578125 C23.28926113 3.35540073 23.51270211 4.38029154 23.4375 7.0625 C23.293125 8.361875 23.14875 9.66125 23 11 C20 13 20 13 17 13 C19.31 16.63 21.62 20.26 24 24 C22.35 24 20.7 24 19 24 C17.41796875 22.3203125 17.41796875 22.3203125 16.1875 20.125 C15.76855469 19.40570313 15.34960938 18.68640625 14.91796875 17.9453125 C14 16 14 16 14 14 C11.03 14 8.06 14 5 14 C5 17.3 5 20.6 5 24 C3.35 24 1.7 24 0 24 C0 16.08 0 8.16 0 0 Z " fill="#E5E5E5" transform="translate(130,336)"/>
<path d="M0 0 C2.31 0 4.62 0 7 0 C7.27972656 0.76441406 7.55945313 1.52882813 7.84765625 2.31640625 C10.52031408 9.45781673 13.47152087 16.36199714 16.76391602 23.23657227 C19 27.91269688 19 27.91269688 19 29 C17.35 29 15.7 29 14 29 C12.515 25.535 12.515 25.535 11 22 C6.05 22 1.1 22 -4 22 C-4.99 24.31 -5.98 26.62 -7 29 C-8.65 29 -10.3 29 -12 29 C-11.74307373 28.44127197 -11.48614746 27.88254395 -11.22143555 27.30688477 C-10.03867005 24.72758814 -8.86306049 22.14508793 -7.6875 19.5625 C-7.28337891 18.68400391 -6.87925781 17.80550781 -6.46289062 16.90039062 C-3.94778889 11.35898762 -1.78969601 5.81717885 0 0 Z " fill="#E8E8E8" transform="translate(196,331)"/>
<path d="M0 0 C3.0525 -0.0825 6.105 -0.165 9.25 -0.25 C10.20551758 -0.28641602 11.16103516 -0.32283203 12.14550781 -0.36035156 C18.37745902 -0.44210801 18.37745902 -0.44210801 21.57421875 1.828125 C23.53996142 4.82251658 23.65800546 6.49063753 23 10 C20.15520727 12.97312925 18.57838726 13.93637104 14.44921875 14.390625 C13.20785156 14.34421875 11.96648437 14.2978125 10.6875 14.25 C9.43324219 14.21390625 8.17898438 14.1778125 6.88671875 14.140625 C5.45779297 14.07101562 5.45779297 14.07101562 4 14 C4.33 17.3 4.66 20.6 5 24 C3.35 24 1.7 24 0 24 C0 16.08 0 8.16 0 0 Z " fill="#ECECEC" transform="translate(255,336)"/>
<path d="M0 0 C1.98 0 3.96 0 6 0 C5.67 3.96 5.34 7.92 5 12 C11.6 12 18.2 12 25 12 C24.67 8.04 24.34 4.08 24 0 C25.98 0 27.96 0 30 0 C29.67 9.57 29.34 19.14 29 29 C27.35 29 25.7 29 24 29 C24.33 24.71 24.66 20.42 25 16 C18.4 16 11.8 16 5 16 C5.33 20.29 5.66 24.58 6 29 C4.02 29 2.04 29 0 29 C0 19.43 0 9.86 0 0 Z " fill="#E4E4E4" transform="translate(327,331)"/>
<path d="M0 0 C0.9075 0.495 1.815 0.99 2.75 1.5 C2.09 2.82 1.43 4.14 0.75 5.5 C0.06550781 5.17257812 -0.61898438 4.84515625 -1.32421875 4.5078125 C-4.73912059 3.33151788 -7.46031284 3.30222854 -11.0625 3.375 C-12.80466797 3.40207031 -12.80466797 3.40207031 -14.58203125 3.4296875 C-15.46246094 3.45289063 -16.34289062 3.47609375 -17.25 3.5 C-17.91 5.48 -18.57 7.46 -19.25 9.5 C-18.16460937 9.60957031 -17.07921875 9.71914063 -15.9609375 9.83203125 C-14.51555848 9.99158608 -13.07024949 10.15177611 -11.625 10.3125 C-10.91214844 10.38275391 -10.19929688 10.45300781 -9.46484375 10.52539062 C-4.86517441 11.05287564 -1.22564952 11.94900896 2.75 14.5 C3.9375 17.875 3.9375 17.875 3.75 21.5 C1.24500274 24.70082983 -0.3882074 26.2127358 -4.25 27.5 C-11.55754575 28.01350321 -17.77117729 28.11608709 -24.25 24.5 C-23.59 22.85 -22.93 21.2 -22.25 19.5 C-21.651875 19.974375 -21.05375 20.44875 -20.4375 20.9375 C-16.90008443 23.46422541 -13.98366131 23.65904798 -9.75 23.6875 C-8.7909375 23.70167969 -7.831875 23.71585937 -6.84375 23.73046875 C-4.01253861 23.68755111 -4.01253861 23.68755111 -1.25 21.5 C-1.745 19.025 -1.745 19.025 -2.25 16.5 C-3.34699219 16.41363281 -4.44398438 16.32726562 -5.57421875 16.23828125 C-7.02875906 16.09751928 -8.48318067 15.95552705 -9.9375 15.8125 C-10.65873047 15.75900391 -11.37996094 15.70550781 -12.12304688 15.65039062 C-16.165252 15.2258668 -17.95973085 14.72769164 -21.2578125 12.140625 C-23.25 9.5 -23.25 9.5 -23.4375 5.9375 C-22.28162555 2.59154763 -21.44309096 0.90621281 -18.3203125 -0.84375 C-12.44198173 -2.70706994 -5.6633527 -2.41067355 0 0 Z " fill="#E6E6E6" transform="translate(461.25,332.5)"/>
<path d="M0 0 C0.928125 0.495 1.85625 0.99 2.8125 1.5 C2.4825 2.82 2.1525 4.14 1.8125 5.5 C0.96429688 5.17257812 0.11609375 4.84515625 -0.7578125 4.5078125 C-4.38940011 3.44067172 -7.29086301 3.29802782 -11.0625 3.375 C-12.21492188 3.39304687 -13.36734375 3.41109375 -14.5546875 3.4296875 C-15.42351563 3.45289063 -16.29234375 3.47609375 -17.1875 3.5 C-17.5175 5.15 -17.8475 6.8 -18.1875 8.5 C-14.99075344 10.36852088 -12.48924758 10.76756629 -8.8125 10.9375 C-4.05886916 11.28703168 0.28084884 11.96834884 3.8125 15.5 C4.1875 18.25 4.1875 18.25 3.8125 21.5 C1.639865 24.07285724 -0.16743838 25.98996919 -3.1875 27.5 C-10.74138175 28.00947062 -17.5018213 28.32038783 -24.1875 24.5 C-23.5275 22.85 -22.8675 21.2 -22.1875 19.5 C-21.8575 20.16 -21.5275 20.82 -21.1875 21.5 C-15.60849188 24.07492682 -8.84423111 24.64671011 -2.9453125 22.796875 C-0.9213765 21.57993402 -0.9213765 21.57993402 -0.4375 18.875 C-0.355 18.09125 -0.2725 17.3075 -0.1875 16.5 C-1.35667969 16.39042969 -2.52585937 16.28085937 -3.73046875 16.16796875 C-5.27871194 16.00845279 -6.82688558 15.84826086 -8.375 15.6875 C-9.14392578 15.61724609 -9.91285156 15.54699219 -10.70507812 15.47460938 C-15.17803431 14.99467845 -18.58160322 14.42238056 -22.1875 11.5 C-23.3125 8.125 -23.3125 8.125 -23.1875 4.5 C-17.57484606 -2.67172448 -8.20994282 -3.55932081 0 0 Z " fill="#E3E3E3" transform="translate(59.1875,332.5)"/>
<path d="M0 0 C1.98 0 3.96 0 6 0 C8.64 5.28 11.28 10.56 14 16 C14.969375 13.916875 15.93875 11.83375 16.9375 9.6875 C17.48277344 8.51574219 18.02804688 7.34398437 18.58984375 6.13671875 C20.03484939 3.06306938 20.03484939 3.06306938 21 0 C22.98 0 24.96 0 27 0 C27 7.92 27 15.84 27 24 C25.68 23.67 24.36 23.34 23 23 C23 17.06 23 11.12 23 5 C20.03 11.27 17.06 17.54 14 24 C10.00748553 18.67664738 7.73143336 13.06985191 5 7 C4.67 12.61 4.34 18.22 4 24 C2.68 23.67 1.36 23.34 0 23 C0 15.41 0 7.82 0 0 Z " fill="#E0E0E0" transform="translate(220,336)"/>
<path d="M0 0 C1.98 0 3.96 0 6 0 C7.17133058 2.45620851 8.33721722 4.91474917 9.5 7.375 C9.83386719 8.07367188 10.16773437 8.77234375 10.51171875 9.4921875 C13 14.7734375 13 14.7734375 13 17 C13.66 17 14.32 17 15 17 C15.11214844 16.29359375 15.22429687 15.5871875 15.33984375 14.859375 C16.06057926 11.73760938 17.19078326 9.14193843 18.5625 6.25 C20.22250457 3.25488122 20.22250457 3.25488122 21 0 C23.31 0 25.62 0 28 0 C28 7.92 28 15.84 28 24 C26.35 24 24.7 24 23 24 C23 18.06 23 12.12 23 6 C22.44570312 7.21558594 21.89140625 8.43117188 21.3203125 9.68359375 C20.58887194 11.26838164 19.85708306 12.85300881 19.125 14.4375 C18.76019531 15.23994141 18.39539063 16.04238281 18.01953125 16.86914062 C17.66503906 17.63291016 17.31054688 18.39667969 16.9453125 19.18359375 C16.62062988 19.89056396 16.29594727 20.59753418 15.96142578 21.32592773 C15 23 15 23 13 24 C9.04 15.585 9.04 15.585 5 7 C5 12.61 5 18.22 5 24 C3.35 24 1.7 24 0 24 C0 16.08 0 8.16 0 0 Z " fill="#EBEBEB" transform="translate(69,336)"/>
<path d="M0 0 C4.15061376 3.7542878 6.58815817 7.4126776 9 12.4375 C9.3410376 13.13399658 9.6820752 13.83049316 10.03344727 14.5480957 C15.01520301 24.9413734 19.22865202 35.33874674 19 47 C17 46 17 46 16.2890625 44.14453125 C16.06992188 43.37496094 15.85078125 42.60539062 15.625 41.8125 C14.32477504 37.66228701 12.53184623 34.56040876 10 31 C8.65165574 28.41567351 7.3683242 25.81830517 6.171875 23.16015625 C3.84156549 18.17368887 0.90297477 14.11829311 -2.609375 9.8828125 C-4 8 -4 8 -4 6 C-3.34 5.67 -2.68 5.34 -2 5 C-1.27840576 3.35636866 -0.60648579 1.68949614 0 0 Z " fill="#474747" transform="translate(225,252)"/>
<path d="M0 0 C1.98 0 3.96 0 6 0 C6.30292969 0.81082031 6.60585937 1.62164062 6.91796875 2.45703125 C9.68559965 9.7720926 12.6677849 16.92436028 16 24 C14.35 24 12.7 24 11 24 C10.34 22.35 9.68 20.7 9 19 C5.04 19 1.08 19 -3 19 C-3.99 21.475 -3.99 21.475 -5 24 C-6.32 23.67 -7.64 23.34 -9 23 C-8.72736328 22.37432129 -8.45472656 21.74864258 -8.17382812 21.10400391 C-6.94546157 18.27928577 -5.72266758 15.45218929 -4.5 12.625 C-4.07074219 11.64015625 -3.64148438 10.6553125 -3.19921875 9.640625 C-2.79316406 8.69960938 -2.38710937 7.75859375 -1.96875 6.7890625 C-1.40317383 5.48509521 -1.40317383 5.48509521 -0.82617188 4.15478516 C0.11933353 2.0733827 0.11933353 2.0733827 0 0 Z " fill="#E1E1E1" transform="translate(110,336)"/>
<path d="M0 0 C1.12664062 0.02449219 2.25328125 0.04898437 3.4140625 0.07421875 C6.375 0.3125 6.375 0.3125 9.375 1.3125 C8.715 2.6325 8.055 3.9525 7.375 5.3125 C6.385 4.9825 5.395 4.6525 4.375 4.3125 C2.68954276 4.21962229 1.000507 4.18252796 -0.6875 4.1875 C-1.56535156 4.18492187 -2.44320313 4.18234375 -3.34765625 4.1796875 C-5.65698266 4.16416576 -5.65698266 4.16416576 -7.625 5.3125 C-7.295 6.6325 -6.965 7.9525 -6.625 9.3125 C-5.88894531 9.36148437 -5.15289062 9.41046875 -4.39453125 9.4609375 C-2.93080078 9.57308594 -2.93080078 9.57308594 -1.4375 9.6875 C0.00689453 9.79191406 0.00689453 9.79191406 1.48046875 9.8984375 C4.42127812 10.31912008 6.71514569 10.99910835 9.375 12.3125 C10.81235246 15.18720493 10.75672649 17.13144588 10.375 20.3125 C8.625 22.6875 8.625 22.6875 5.375 24.3125 C-0.84663124 25.00862657 -6.83014848 24.88798956 -12.625 22.3125 C-11.965 20.9925 -11.305 19.6725 -10.625 18.3125 C-10.09390625 18.63992188 -9.5628125 18.96734375 -9.015625 19.3046875 C-5.99805843 20.5767989 -3.63806977 20.5084363 -0.375 20.4375 C1.24148438 20.41042969 1.24148438 20.41042969 2.890625 20.3828125 C3.71046875 20.35960937 4.5303125 20.33640625 5.375 20.3125 C5.705 18.6625 6.035 17.0125 6.375 15.3125 C2.96894526 13.60947263 -0.91724106 13.96470496 -4.6796875 13.7890625 C-7.89219268 13.26926723 -9.33368619 12.59298018 -11.625 10.3125 C-12.1875 7.375 -12.1875 7.375 -11.625 4.3125 C-7.86567562 0.46317338 -5.30357699 -0.1767859 0 0 Z " fill="#E4E4E4" transform="translate(294.625,335.6875)"/>
<path d="M0 0 C2.60444348 -0.05394705 5.20776998 -0.09364469 7.8125 -0.125 C8.55048828 -0.14175781 9.28847656 -0.15851563 10.04882812 -0.17578125 C13.91246426 -0.21074628 15.70903668 -0.19397555 19 2 C19.3125 4.5 19.3125 4.5 19 7 C17 9 17 9 13.0859375 9.1953125 C11.51550649 9.18200376 9.94513779 9.15813602 8.375 9.125 C7.57320313 9.11597656 6.77140625 9.10695313 5.9453125 9.09765625 C3.96341477 9.07406223 1.98167019 9.03819065 0 9 C0 6.03 0 3.06 0 0 Z " fill="#060606" transform="translate(369,335)"/>
<path d="M0 0 C7.92 0.33 15.84 0.66 24 1 C24 1.99 24 2.98 24 4 C20.7 4 17.4 4 14 4 C14.33 10.93 14.66 17.86 15 25 C13.35 25 11.7 25 10 25 C10.33 18.07 10.66 11.14 11 4 C7.37 4.33 3.74 4.66 0 5 C0 3.35 0 1.7 0 0 Z " fill="#F0F0F0" transform="translate(158,335)"/>
<path d="M0 0 C2.10388569 -0.05402274 4.20816714 -0.09280256 6.3125 -0.125 C8.07013672 -0.15980469 8.07013672 -0.15980469 9.86328125 -0.1953125 C13 0 13 0 16 2 C15.125 6.875 15.125 6.875 14 8 C11.64686445 8.07271741 9.29166332 8.08370868 6.9375 8.0625 C5.64714844 8.05347656 4.35679687 8.04445313 3.02734375 8.03515625 C2.02832031 8.02355469 1.02929688 8.01195312 0 8 C0 5.36 0 2.72 0 0 Z " fill="#0F0F0F" transform="translate(134,339)"/>
<path d="M0 0 C2.10388569 -0.05402274 4.20816714 -0.09280256 6.3125 -0.125 C8.07013672 -0.15980469 8.07013672 -0.15980469 9.86328125 -0.1953125 C13 0 13 0 16 2 C15.625 4.4375 15.625 4.4375 15 7 C12.11584117 8.44207941 9.58278472 8.09394887 6.375 8.0625 C5.18648438 8.05347656 3.99796875 8.04445313 2.7734375 8.03515625 C1.85820312 8.02355469 0.94296875 8.01195312 0 8 C0 5.36 0 2.72 0 0 Z " fill="#090909" transform="translate(259,339)"/>
<path d="M0 0 C1.9375 1.1875 1.9375 1.1875 3 3 C3.42317323 5.82115488 3.38718434 7.33950907 1.9375 9.8125 C-1.09375543 11.67036623 -3.53422859 11.37133265 -7 11 C-8.9375 9.8125 -8.9375 9.8125 -10 8 C-10.42317323 5.17884512 -10.38718434 3.66049093 -8.9375 1.1875 C-5.90624457 -0.67036623 -3.46577141 -0.37133265 0 0 Z " fill="#606060" transform="translate(167,368)"/>
<path d="M0 0 C3.5625 0.25 3.5625 0.25 6.5625 2.25 C6.95820119 5.3496593 7.06004211 7.37198451 5.5 10.125 C2.52414925 11.85291334 -0.07344369 11.49465864 -3.4375 11.25 C-4.0975 10.92 -4.7575 10.59 -5.4375 10.25 C-5.6328125 4.1953125 -5.6328125 4.1953125 -5.4375 2.25 C-3.4375 0.25 -3.4375 0.25 0 0 Z " fill="#101010" transform="translate(261.4375,145.75)"/>
<path d="M0 0 C3.5625 0.25 3.5625 0.25 6.5625 2.25 C6.95820119 5.3496593 7.06004211 7.37198451 5.5 10.125 C2.46435629 11.88763183 -0.01548172 11.62331109 -3.4375 11.25 C-5.73913882 7.79754176 -5.78240322 6.30261287 -5.4375 2.25 C-3.4375 0.25 -3.4375 0.25 0 0 Z " fill="#0B0B0B" transform="translate(239.4375,145.75)"/>
<path d="M0 0 C2.13586678 3.20380017 2.23132175 4.01939967 2.125 7.6875 C2.10695313 8.49574219 2.08890625 9.30398437 2.0703125 10.13671875 C2.04710937 10.75160156 2.02390625 11.36648437 2 12 C1.67 12 1.34 12 1 12 C0.67 9.69 0.34 7.38 0 5 C-0.61746094 5.5775 -1.23492187 6.155 -1.87109375 6.75 C-9.65770902 13.57662161 -9.65770902 13.57662161 -14.625 13.75 C-20.70972829 13.13614246 -25.41188607 10.74692532 -29.5 6.25 C-29.995 5.5075 -30.49 4.765 -31 4 C-27.55178934 4.41796493 -25.6448206 5.21705408 -22.625 7.0625 C-18.91329004 9.24302939 -16.34697536 9.68636453 -12 9 C-7.34329508 6.7854392 -3.43139856 3.86032338 0 0 Z " fill="#1A1A1A" transform="translate(266,184)"/>
<path d="M0 0 C8.3984375 -0.1953125 8.3984375 -0.1953125 11 0 C11.66 0.66 12.32 1.32 13 2 C12.60467975 4.45098556 11.78698574 6.63904279 11 9 C11.87483915 11.16715557 11.87483915 11.16715557 13 13 C12.01 13 11.02 13 10 13 C9.34 11.02 8.68 9.04 8 7 C6.02 7 4.04 7 2 7 C2 8.98 2 10.96 2 13 C1.34 13 0.68 13 0 13 C0 8.71 0 4.42 0 0 Z " fill="#D5D5D5" transform="translate(226,366)"/>
<path d="M0 0 C0.33 1.32 0.66 2.64 1 4 C1.99 4 2.98 4 4 4 C3.01407978 7.36856076 1.90217907 10.16641735 0.1171875 13.203125 C-2.11866034 17.04522626 -3.64147678 21.00773221 -5.125 25.1875 C-8.15323529 33.59667647 -8.15323529 33.59667647 -10 37 C-11.04332142 33.80375731 -10.94012675 31.88974015 -9.9609375 28.69140625 C-9.71230957 27.86737305 -9.46368164 27.04333984 -9.20751953 26.19433594 C-8.79542236 24.89157715 -8.79542236 24.89157715 -8.375 23.5625 C-8.10155762 22.6746582 -7.82811523 21.78681641 -7.54638672 20.87207031 C-5.3314244 13.7898341 -2.82986546 6.86179767 0 0 Z " fill="#424242" transform="translate(264,273)"/>
<path d="M0 0 C0 0.99 0 1.98 0 3 C-5.75 6 -5.75 6 -8 6 C-8 12.93 -8 19.86 -8 27 C-8.99 27 -9.98 27 -11 27 C-11.23292281 23.27189132 -11.37459124 19.54565008 -11.5 15.8125 C-11.56703125 14.75740234 -11.6340625 13.70230469 -11.703125 12.61523438 C-11.89558824 4.98887868 -11.89558824 4.98887868 -9.2890625 2.11083984 C-4.05671296 -1.35223765 -4.05671296 -1.35223765 0 0 Z " fill="#949494" transform="translate(228,123)"/>
<path d="M0 0 C3.40198926 4.04998722 6 8.63626649 6 14 C2.37 14 -1.26 14 -5 14 C-4.46515599 8.65155992 -2.53309233 4.64203897 0 0 Z " fill="#161616" transform="translate(199,335)"/>
<path d="M0 0 C1.98 0 3.96 0 6 0 C6 7.92 6 15.84 6 24 C4.68 23.67 3.36 23.34 2 23 C2 17.06 2 11.12 2 5 C1.01 5.33 0.02 5.66 -1 6 C-0.67 4.02 -0.34 2.04 0 0 Z " fill="#DBDBDB" transform="translate(241,336)"/>
<path d="M0 0 C3.96 1.98 7.92 3.96 12 6 C12 13.59 12 21.18 12 29 C11.34 29 10.68 29 10 29 C10 22.4 10 15.8 10 9 C7.525 8.01 7.525 8.01 5 7 C3.5542489 6.30866352 2.11598253 5.60134705 0.6875 4.875 C-0.00988281 4.52179688 -0.70726562 4.16859375 -1.42578125 3.8046875 C-1.94527344 3.53914063 -2.46476562 3.27359375 -3 3 C-2.01 2.01 -1.02 1.02 0 0 Z " fill="#A4A4A4" transform="translate(271,120)"/>
<path d="M0 0 C2 1.1875 2 1.1875 4 3 C4.125 5.5625 4.125 5.5625 4 8 C4.66 8.66 5.32 9.32 6 10 C-0.93 13.465 -0.93 13.465 -8 17 C-8.33 15.68 -8.66 14.36 -9 13 C-8.236875 12.649375 -7.47375 12.29875 -6.6875 11.9375 C-2.49157277 8.91252921 -1.5867314 4.7601942 0 0 Z " fill="#A5A5A5" transform="translate(236,108)"/>
<path d="M0 0 C1.65 0.33 3.3 0.66 5 1 C4.72740991 7.77386385 3.80946641 12.34724339 0 18 C-0.99 17.67 -1.98 17.34 -3 17 C-2.01 11.39 -1.02 5.78 0 0 Z " fill="#D5D5D5" transform="translate(280,152)"/>
<path d="M0 0 C3 1 3 1 4.38671875 3.50390625 C4.81597656 4.51324219 5.24523438 5.52257812 5.6875 6.5625 C6.34298828 8.08037109 6.34298828 8.08037109 7.01171875 9.62890625 C7.33785156 10.41136719 7.66398437 11.19382812 8 12 C7.01 12.33 6.02 12.66 5 13 C5 11.68 5 10.36 5 9 C2.36 9 -0.28 9 -3 9 C-3.33 10.32 -3.66 11.64 -4 13 C-4.66 12.67 -5.32 12.34 -6 12 C-4.02 8.04 -2.04 4.08 0 0 Z " fill="#D8D8D8" transform="translate(55,366)"/>
<path d="M0 0 C0.99 0 1.98 0 3 0 C3.33808686 2.06172613 3.67027361 4.1244203 4 6.1875 C4.185625 7.33605469 4.37125 8.48460937 4.5625 9.66796875 C4.93489477 12.50415393 5.08596021 15.14719564 5 18 C2.29027105 16.99577333 1.21299626 16.43445086 -0.08203125 13.79296875 C-0.32308594 12.93316406 -0.56414062 12.07335937 -0.8125 11.1875 C-1.19341797 9.90939453 -1.19341797 9.90939453 -1.58203125 8.60546875 C-2.04053986 5.74728889 -1.78822811 3.77088776 -1 1 C-0.67 0.67 -0.34 0.34 0 0 Z " fill="#C3C3C3" transform="translate(218,152)"/>
<path d="M0 0 C2.97 0 5.94 0 9 0 C9.625 2.375 9.625 2.375 10 5 C9.34 5.66 8.68 6.32 8 7 C8.66 8.32 9.32 9.64 10 11 C9.34 11 8.68 11 8 11 C7.34 9.35 6.68 7.7 6 6 C4.35 6 2.7 6 1 6 C1 7.65 1 9.3 1 11 C0.67 11 0.34 11 0 11 C0 7.37 0 3.74 0 0 Z " fill="#ECECEC" transform="translate(188,368)"/>
<path d="M0 0 C7.09629025 -0.31461385 12.68284595 -0.44572039 19 3 C18.34 4.32 17.68 5.64 17 7 C15.95779297 6.52433594 15.95779297 6.52433594 14.89453125 6.0390625 C11.73811356 4.90598948 9.02719833 4.59519989 5.6875 4.375 C4.61886719 4.30023438 3.55023438 4.22546875 2.44921875 4.1484375 C1.64097656 4.09945313 0.83273437 4.05046875 0 4 C0 2.68 0 1.36 0 0 Z " fill="#D6D6D6" transform="translate(445,331)"/>
<path d="M0 0 C0.66 0 1.32 0 2 0 C2 1.65 2 3.3 2 5 C4.97 5 7.94 5 11 5 C11 3.35 11 1.7 11 0 C11.66 0 12.32 0 13 0 C13 4.29 13 8.58 13 13 C12.34 13 11.68 13 11 13 C11 11.02 11 9.04 11 7 C8.03 7 5.06 7 2 7 C2 8.98 2 10.96 2 13 C1.34 13 0.68 13 0 13 C0 8.71 0 4.42 0 0 Z " fill="#DFDFDF" transform="translate(209,366)"/>
<path d="M0 0 C0.66 0 1.32 0 2 0 C2.99 2.31 3.98 4.62 5 7 C5.66 4.69 6.32 2.38 7 0 C7.99 0 8.98 0 10 0 C10.66 1.98 11.32 3.96 12 6 C14.10232344 3.1315587 14.10232344 3.1315587 15 0 C15.66 0.33 16.32 0.66 17 1 C16.01 4.3 15.02 7.6 14 11 C13.01 11 12.02 11 11 11 C10.34 9.02 9.68 7.04 9 5 C8.01 6.98 7.02 8.96 6 11 C5.34 11 4.68 11 4 11 C2.68 7.37 1.36 3.74 0 0 Z " fill="#C4C4C4" transform="translate(248,368)"/>
<path d="M0 0 C4.62 0 9.24 0 14 0 C14 1.98 14 3.96 14 6 C13.34 6 12.68 6 12 6 C11.67 5.01 11.34 4.02 11 3 C11.33 2.67 11.66 2.34 12 2 C11.01 1.67 10.02 1.34 9 1 C9 2.65 9 4.3 9 6 C6.03 6 3.06 6 0 6 C0 4.02 0 2.04 0 0 Z " fill="#6B6B6B" transform="translate(353,395)"/>
<path d="M0 0 C0.33 0 0.66 0 1 0 C1 3.96 1 7.92 1 12 C-0.98 12.33 -2.96 12.66 -5 13 C-5.36156104 15.79089265 -5.71454833 18.58240722 -6.0625 21.375 C-6.16626953 22.1690625 -6.27003906 22.963125 -6.37695312 23.78125 C-7.07961894 28.00169742 -7.07961894 28.00169742 -6 32 C-7.32 32 -8.64 32 -10 32 C-9.01 25.07 -8.02 18.14 -7 11 C-3.535 10.505 -3.535 10.505 0 10 C0 6.7 0 3.4 0 0 Z " fill="#3A3A3A" transform="translate(285,139)"/>
<path d="M0 0 C0.99 0 1.98 0 3 0 C3.33 7.26 3.66 14.52 4 22 C2.68 21.67 1.36 21.34 0 21 C0 14.07 0 7.14 0 0 Z " fill="#141414" transform="translate(278,129)"/>
<path d="M0 0 C2.97 0 5.94 0 9 0 C9.38218767 1.65614657 9.71395102 3.32457024 10 5 C9 6 9 6 7.15234375 6.09765625 C5.1015625 6.06510417 3.05078125 6.03255208 1 6 C1 7.65 1 9.3 1 11 C0.67 11 0.34 11 0 11 C0 7.37 0 3.74 0 0 Z " fill="#E9E9E9" transform="translate(82,368)"/>
<path d="M0 0 C3 0 3 0 4.38671875 1.3125 C5.59114583 2.875 6.79557292 4.4375 8 6 C8.33 4.02 8.66 2.04 9 0 C9.66 0 10.32 0 11 0 C11 3.63 11 7.26 11 11 C6.9915966 8.9957983 5.58590343 7.50944037 3 4 C2.67 6.31 2.34 8.62 2 11 C1.34 11 0.68 11 0 11 C0 7.37 0 3.74 0 0 Z " fill="#BCBCBC" transform="translate(412,368)"/>
<path d="M0 0 C3 0 3 0 4.38671875 1.3125 C5.59114583 2.875 6.79557292 4.4375 8 6 C8.33 4.02 8.66 2.04 9 0 C9.66 0 10.32 0 11 0 C11 3.63 11 7.26 11 11 C6.9915966 8.9957983 5.58590343 7.50944037 3 4 C2.67 6.31 2.34 8.62 2 11 C1.34 11 0.68 11 0 11 C0 7.37 0 3.74 0 0 Z " fill="#BCBCBC" transform="translate(314,368)"/>
<path d="M0 0 C2.875 -0.125 2.875 -0.125 6 0 C8 2 8 2 8.1875 4.5625 C8 7 8 7 7 8 C4.66702567 8.04092937 2.33294775 8.04241723 0 8 C0 5.36 0 2.72 0 0 Z " fill="#B7B7B7" transform="translate(407,393)"/>
<path d="M0 0 C2.875 0.6875 2.875 0.6875 6 2 C7.375 4.625 7.375 4.625 8 7 C7.360625 7.103125 6.72125 7.20625 6.0625 7.3125 C5.381875 7.539375 4.70125 7.76625 4 8 C3.67 8.99 3.34 9.98 3 11 C2.01 11.33 1.02 11.66 0 12 C0 8.04 0 4.08 0 0 Z " fill="#BDBDBD" transform="translate(286,139)"/>
<path d="M0 0 C0.66 0 1.32 0 2 0 C2.67154933 1.28913487 3.33708859 2.58140204 4 3.875 C4.37125 4.59429687 4.7425 5.31359375 5.125 6.0546875 C6 8 6 8 6 10 C3.03 10 0.06 10 -3 10 C-2.49287967 6.28111761 -1.88391785 3.26545761 0 0 Z " fill="#1C1C1C" transform="translate(112,341)"/>
<path d="M0 0 C3.5 0.1875 3.5 0.1875 5.5 1.1875 C5.17 1.8475 4.84 2.5075 4.5 3.1875 C3.55125 3.0225 2.6025 2.8575 1.625 2.6875 C-1.30168901 2.1348365 -1.30168901 2.1348365 -3.5 2.1875 C-3.5 4.1675 -3.5 6.1475 -3.5 8.1875 C0.47754128 8.92084429 0.47754128 8.92084429 4.5 9.1875 C4.5 8.5275 4.5 7.8675 4.5 7.1875 C3.18 7.1875 1.86 7.1875 0.5 7.1875 C0.5 6.5275 0.5 5.8675 0.5 5.1875 C2.48 5.1875 4.46 5.1875 6.5 5.1875 C5.625 10.0625 5.625 10.0625 4.5 11.1875 C-1.96153846 11.54647436 -1.96153846 11.54647436 -5.5 9.1875 C-5.8125 5.6875 -5.8125 5.6875 -5.5 2.1875 C-3.5 0.1875 -3.5 0.1875 0 0 Z " fill="#D4D4D4" transform="translate(389.5,367.8125)"/>
<path d="M0 0 C0.33 0 0.66 0 1 0 C1.02505615 0.84183838 1.0501123 1.68367676 1.07592773 2.55102539 C1.17160279 5.70266144 1.27080076 8.85416226 1.37231445 12.00561523 C1.41537294 13.3642958 1.45706565 14.72302041 1.49731445 16.08178711 C1.55572893 18.04552303 1.61961803 20.00909364 1.68359375 21.97265625 C1.72025146 23.15093994 1.75690918 24.32922363 1.79467773 25.54321289 C1.94900349 29.06133908 1.94900349 29.06133908 2.58227539 32.75170898 C3 36 3 36 2 39 C1.34 38.67 0.68 38.34 0 38 C-2.6419163 25.8701582 -0.63247315 12.26940551 0 0 Z " fill="#343434" transform="translate(222,132)"/>
<path d="M0 0 C3.96 0 7.92 0 12 0 C12 0.66 12 1.32 12 2 C10.35 2 8.7 2 7 2 C7 5.3 7 8.6 7 12 C6.34 12 5.68 12 5 12 C5 9.03 5 6.06 5 3 C3.35 3 1.7 3 0 3 C0 2.01 0 1.02 0 0 Z " fill="#909090" transform="translate(327,367)"/>
<path d="M0 0 C2.13586678 3.20380017 2.23132175 4.01939967 2.125 7.6875 C2.10695313 8.49574219 2.08890625 9.30398437 2.0703125 10.13671875 C2.03550781 11.05904297 2.03550781 11.05904297 2 12 C1.67 12 1.34 12 1 12 C0.67 9.69 0.34 7.38 0 5 C-0.44730469 5.44472656 -0.89460938 5.88945312 -1.35546875 6.34765625 C-3.17670143 8.05239217 -4.92770506 9.60847964 -7 11 C-9.9375 10.875 -9.9375 10.875 -12 10 C-11 8 -11 8 -8.25 6.6875 C-4.79238977 4.89220238 -2.62083128 2.8520811 0 0 Z " fill="#212121" transform="translate(266,184)"/>
<path d="M0 0 C1.56640625 1.73828125 1.56640625 1.73828125 3 4 C2.77734375 6.04296875 2.77734375 6.04296875 1.9375 8.1875 C1.64101563 8.96351563 1.34453125 9.73953125 1.0390625 10.5390625 C-0.58529663 14.38622887 -2.23684252 18.21413394 -4 22 C-5.0354051 18.8151065 -4.94040666 16.86968126 -4.00390625 13.671875 C-3.66069336 12.47304688 -3.66069336 12.47304688 -3.31054688 11.25 C-3.06369141 10.425 -2.81683594 9.6 -2.5625 8.75 C-2.31951172 7.90953125 -2.07652344 7.0690625 -1.82617188 6.203125 C-1.22626051 4.13284266 -0.61429181 2.06606103 0 0 Z " fill="#333333" transform="translate(258,288)"/>
<path d="M0 0 C0.33 0 0.66 0 1 0 C1 1.65 1 3.3 1 5 C3.64 5 6.28 5 9 5 C9 3.35 9 1.7 9 0 C9.66 0 10.32 0 11 0 C11 3.63 11 7.26 11 11 C10.34 11 9.68 11 9 11 C9 9.35 9 7.7 9 6 C6.69 6 4.38 6 2 6 C2 7.65 2 9.3 2 11 C1.34 11 0.68 11 0 11 C0 7.37 0 3.74 0 0 Z " fill="#D3D3D3" transform="translate(286,368)"/>
<path d="M0 0 C3.3 0 6.6 0 10 0 C10 0.33 10 0.66 10 1 C7.36 1 4.72 1 2 1 C2 2.32 2 3.64 2 5 C3.65 5 5.3 5 7 5 C7 5.33 7 5.66 7 6 C5.35 6 3.7 6 2 6 C2 7.32 2 8.64 2 10 C4.64 10 7.28 10 10 10 C10 10.33 10 10.66 10 11 C6.7 11 3.4 11 0 11 C0 7.37 0 3.74 0 0 Z " fill="#E1E1E1" transform="translate(399,368)"/>
<path d="M0 0 C2.64 0 5.28 0 8 0 C8.5625 1.9375 8.5625 1.9375 9 4 C8 5 8 5 6.15234375 5.09765625 C4.1015625 5.06510417 2.05078125 5.03255208 0 5 C0 3.35 0 1.7 0 0 Z " fill="#2D2D2D" transform="translate(228,367)"/>
<path d="M0 0 C1.60407328 -0.02708567 3.2082785 -0.04643483 4.8125 -0.0625 C5.70582031 -0.07410156 6.59914063 -0.08570313 7.51953125 -0.09765625 C10 0 10 0 13 1 C12.34 2.32 11.68 3.64 11 5 C5.06 4.01 5.06 4.01 -1 3 C-0.67 2.01 -0.34 1.02 0 0 Z " fill="#DDDDDD" transform="translate(291,336)"/>
<path d="M0 0 C-1.375 2 -1.375 2 -3 4 C-3.66 4 -4.32 4 -5 4 C-5 4.66 -5 5.32 -5 6 C-6.8125 7.6875 -6.8125 7.6875 -9 9 C-9.99 8.67 -10.98 8.34 -12 8 C-12 7.34 -12 6.68 -12 6 C-11.34 6 -10.68 6 -10 6 C-9.67 5.01 -9.34 4.02 -9 3 C-6.03848967 0.1442579 -4.06571818 -0.33880985 0 0 Z " fill="#BDBDBD" transform="translate(251,103)"/>
<path d="M0 0 C1.2065625 0.0309375 1.2065625 0.0309375 2.4375 0.0625 C3.0975 1.3825 3.7575 2.7025 4.4375 4.0625 C2.4375 6.0625 2.4375 6.0625 -0.1875 6.1875 C-0.97125 6.14625 -1.755 6.105 -2.5625 6.0625 C-2.94468767 4.40635343 -3.27645102 2.73792976 -3.5625 1.0625 C-2.5625 0.0625 -2.5625 0.0625 0 0 Z " fill="#BEBEBE" transform="translate(337.5625,394.9375)"/>
<path d="M0 0 C0.66 0 1.32 0 2 0 C1.40114059 3.3010299 0.30314403 5.21425023 -1.875 7.75 C-2.38804687 8.36359375 -2.90109375 8.9771875 -3.4296875 9.609375 C-5 11 -5 11 -8 11 C-7.73911731 7.47808373 -6.75685408 6.78724732 -4 4.375 C-3.01 3.59125 -2.02 2.8075 -1 2 C-0.67 1.34 -0.34 0.68 0 0 Z " fill="#BBBBBB" transform="translate(316,159)"/>
<path d="M0 0 C1.98 0 3.96 0 6 0 C7.125 3.75 7.125 3.75 6 6 C4.02 6 2.04 6 0 6 C0 4.02 0 2.04 0 0 Z " fill="#7D7D7D" transform="translate(376,395)"/>
<path d="M0 0 C1.98 0 3.96 0 6 0 C6.33 1.32 6.66 2.64 7 4 C5.35 4.33 3.7 4.66 2 5 C2 5.99 2 6.98 2 8 C1.34 8 0.68 8 0 8 C0 5.36 0 2.72 0 0 Z " fill="#A0A0A0" transform="translate(326,393)"/>
<path d="M0 0 C2.88437779 1.29299694 4.87219421 2.65941363 7 5 C7.433125 4.0409375 7.433125 4.0409375 7.875 3.0625 C9 1 9 1 11 0 C9.125 4.875 9.125 4.875 8 6 C7.63239269 8.32817964 7.29758419 10.6618385 7 13 C6.34 13 5.68 13 5 13 C4.731875 11.783125 4.46375 10.56625 4.1875 9.3125 C3.31505639 5.77878956 2.07843061 3.0231718 0 0 Z " fill="#D9D9D9" transform="translate(144,366)"/>
<path d="M0 0 C2.05078125 0.03255208 4.1015625 0.06510417 6.15234375 0.09765625 C1.00948661 6.66908482 1.00948661 6.66908482 -2.84765625 8.09765625 C-2.89007348 5.7647085 -2.88858562 3.43063058 -2.84765625 1.09765625 C-1.84765625 0.09765625 -1.84765625 0.09765625 0 0 Z " fill="#B0B0B0" transform="translate(239.84765625,102.90234375)"/>
<path d="M0 0 C0.721875 0.103125 1.44375 0.20625 2.1875 0.3125 C1.1975 1.0859375 1.1975 1.0859375 0.1875 1.875 C-2.23805908 3.84576675 -4.63052712 5.83785756 -7 7.875 C-7.67417969 8.45378906 -8.34835938 9.03257812 -9.04296875 9.62890625 C-11.02205064 11.38800354 -11.02205064 11.38800354 -12.8125 14.3125 C-13.4725 14.3125 -14.1325 14.3125 -14.8125 14.3125 C-13.24637807 10.46838253 -10.79155879 8.15299791 -7.8125 5.3125 C-6.575 3.9203125 -6.575 3.9203125 -5.3125 2.5 C-2.8125 0.3125 -2.8125 0.3125 0 0 Z " fill="#8C8C8C" transform="translate(185.8125,140.6875)"/>
<path d="M0 0 C0.66 0.66 1.32 1.32 2 2 C0.02 5.63 -1.96 9.26 -4 13 C-4.99 13 -5.98 13 -7 13 C-5.69045524 8.76916309 -4.16145284 4.872603 -2 1 C-1.34 0.67 -0.68 0.34 0 0 Z " fill="#DFDFDF" transform="translate(91,339)"/>
<path d="M0 0 C1.98 0 3.96 0 6 0 C6 1.98 6 3.96 6 6 C4.02 6 2.04 6 0 6 C0 4.02 0 2.04 0 0 Z " fill="#A1A1A1" transform="translate(388,395)"/>
<path d="M0 0 C0.66 1.32 1.32 2.64 2 4 C1.360625 4.268125 0.72125 4.53625 0.0625 4.8125 C-2.33131686 5.88667752 -2.33131686 5.88667752 -3 9 C-4.98 9.33 -6.96 9.66 -9 10 C-9 9.34 -9 8.68 -9 8 C-7.28515625 6.30859375 -7.28515625 6.30859375 -5.0625 4.4375 C-3.96615234 3.50744141 -3.96615234 3.50744141 -2.84765625 2.55859375 C-2.23792969 2.04425781 -1.62820312 1.52992188 -1 1 C-0.67 0.67 -0.34 0.34 0 0 Z " fill="#C1C1C1" transform="translate(196,279)"/>
<path d="M0 0 C4.875 4.625 4.875 4.625 6 8 C5.236875 8.12375 4.47375 8.2475 3.6875 8.375 C0.79732864 8.88102792 0.79732864 8.88102792 -2 11 C-1.34 7.37 -0.68 3.74 0 0 Z " fill="#A5A5A5" transform="translate(327,223)"/>
<path d="M0 0 C3.3 0 6.6 0 10 0 C10 0.33 10 0.66 10 1 C7.36 1 4.72 1 2 1 C2 2.32 2 3.64 2 5 C3.65 5 5.3 5 7 5 C7 5.33 7 5.66 7 6 C5.35 6 3.7 6 2 6 C2 7.65 2 9.3 2 11 C1.34 11 0.68 11 0 11 C0 7.37 0 3.74 0 0 Z " fill="#DADADA" transform="translate(113,368)"/>
<path d="M0 0 C0.99 0.33 1.98 0.66 3 1 C4.1875 4.0625 4.1875 4.0625 5 7 C5.66 7 6.32 7 7 7 C7.33 6.34 7.66 5.68 8 5 C7.67 6.32 7.34 7.64 7 9 C6.01 9 5.02 9 4 9 C3.34 7.35 2.68 5.7 2 4 C1.67 6.31 1.34 8.62 1 11 C0.67 11 0.34 11 0 11 C0 7.37 0 3.74 0 0 Z " fill="#D5D5D5" transform="translate(66,368)"/>
<path d="M0 0 C0.66 0.33 1.32 0.66 2 1 C2 1.99 2 2.98 2 4 C1.34 4 0.68 4 0 4 C-0.33 4.99 -0.66 5.98 -1 7 C-3.5625 8.1875 -3.5625 8.1875 -6 9 C-5.52797514 4.75177626 -3.03344482 2.80010291 0 0 Z " fill="#BDBDBD" transform="translate(330,187)"/>
<path d="M0 0 C0.33 0.66 0.66 1.32 1 2 C1.66 2 2.32 2 3 2 C3 1.34 3 0.68 3 0 C5 0 7 0 9 0 C8.34 1.98 7.68 3.96 7 6 C6.34 6 5.68 6 5 6 C5 5.01 5 4.02 5 3 C4.34 3 3.68 3 3 3 C3 3.99 3 4.98 3 6 C2.34 6 1.68 6 1 6 C0.67 4.02 0.34 2.04 0 0 Z " fill="#B4B4B4" transform="translate(343,395)"/>
<path d="M0 0 C0.33 0.66 0.66 1.32 1 2 C-3.03523352 6.81123996 -7.04467233 11.13242719 -12 15 C-12.66 14.67 -13.32 14.34 -14 14 C-13.32453125 13.40832031 -12.6490625 12.81664062 -11.953125 12.20703125 C-11.06109375 11.41683594 -10.1690625 10.62664062 -9.25 9.8125 C-8.36828125 9.03519531 -7.4865625 8.25789063 -6.578125 7.45703125 C-4.12113732 5.11544754 -2.05137234 2.69841735 0 0 Z " fill="#9B9B9B" transform="translate(312,261)"/>
<path d="M0 0 C0.33 0.99 0.66 1.98 1 3 C-2.80411834 6.91939465 -6.81576108 10.49102731 -11 14 C-9.61085525 9.70281047 -7.61968015 7.29312243 -4.375 4.1875 C-3.55773437 3.39730469 -2.74046875 2.60710937 -1.8984375 1.79296875 C-0.95871094 0.90544922 -0.95871094 0.90544922 0 0 Z " fill="#3C3C3C" transform="translate(294,229)"/>
<path d="M0 0 C2.31 0 4.62 0 7 0 C7 1.32 7 2.64 7 4 C4.69 4 2.38 4 0 4 C0 2.68 0 1.36 0 0 Z " fill="#2C2C2C" transform="translate(189,369)"/>
<path d="M0 0 C0.99 0 1.98 0 3 0 C3 3.63 3 7.26 3 11 C2.34 11 1.68 11 1 11 C0.7834375 9.6078125 0.7834375 9.6078125 0.5625 8.1875 C0.07899889 4.99274889 0.07899889 4.99274889 -1 2 C-0.67 1.34 -0.34 0.68 0 0 Z " fill="#BABABA" transform="translate(75,368)"/>
<path d="M0 0 C3.34019306 0.59646305 5.50470633 1.68294159 8 4 C8 4.99 8 5.98 8 7 C7.236875 6.690625 6.47375 6.38125 5.6875 6.0625 C3.81210323 5.32106407 1.91315348 4.63771783 0 4 C0 2.68 0 1.36 0 0 Z " fill="#1F1F1F" transform="translate(249,113)"/>
<path d="M0 0 C1.98 0 3.96 0 6 0 C6 3 6 3 5 6 C3.35 6 1.7 6 0 6 C0 4.02 0 2.04 0 0 Z " fill="#A4A4A4" transform="translate(462,395)"/>
<path d="M0 0 C2.31 0 4.62 0 7 0 C7 1.32 7 2.64 7 4 C4.69 4 2.38 4 0 4 C0 2.68 0 1.36 0 0 Z " fill="#262626" transform="translate(83,369)"/>
<path d="M0 0 C0.66 0.33 1.32 0.66 2 1 C0.04761147 3.00612399 -1.91137822 5.00492433 -3.875 7 C-4.43058594 7.57234375 -4.98617187 8.1446875 -5.55859375 8.734375 C-7.00134404 10.19450782 -8.4974374 11.60149298 -10 13 C-10.66 13 -11.32 13 -12 13 C-10.86528532 9.59585597 -9.82774013 8.75723352 -7.125 6.5 C-4.64584653 4.41421775 -2.2560424 2.32698713 0 0 Z " fill="#252525" transform="translate(203,157)"/>
<path d="M0 0 C0.33 0 0.66 0 1 0 C1 5.94 1 11.88 1 18 C0.67 18 0.34 18 0 18 C-0.33 14.04 -0.66 10.08 -1 6 C-1.99 6.495 -1.99 6.495 -3 7 C-1.125 1.125 -1.125 1.125 0 0 Z " fill="#252525" transform="translate(92,341)"/>
<path d="M0 0 C0.66 0.33 1.32 0.66 2 1 C2 1.99 2 2.98 2 4 C-1.465 5.485 -1.465 5.485 -5 7 C-5.66 6.01 -6.32 5.02 -7 4 C-1.7265625 0.77734375 -1.7265625 0.77734375 0 0 Z " fill="#1E1E1E" transform="translate(231,123)"/>
<path d="M0 0 C0.66 0.66 1.32 1.32 2 2 C0.12050295 5.57104439 -1.17053157 7.54744301 -5 9 C-3.90931332 5.22454612 -3.0916909 2.52956528 0 0 Z " fill="#E1E1E1" transform="translate(196,337)"/>
<path d="M0 0 C1 3 1 3 -0.4375 6.1875 C-1.2109375 7.5796875 -1.2109375 7.5796875 -2 9 C-2.99 9 -3.98 9 -5 9 C-3.90931332 5.22454612 -3.0916909 2.52956528 0 0 Z " fill="#E5E5E5" transform="translate(241,341)"/>
<path d="M0 0 C0.33 0 0.66 0 1 0 C2.33583899 4.84241633 3.25328119 8.93437617 3 14 C1 13 1 13 -0.1875 9.8125 C-0.99163947 6.03923017 -0.90372567 3.70527523 0 0 Z " fill="#272727" transform="translate(244,293)"/>
<path d="M0 0 C0 2.31 0 4.62 0 7 C-1.65 7.33 -3.3 7.66 -5 8 C-5 4 -5 4 -3.0625 1.75 C-1 0 -1 0 0 0 Z " fill="#BDBDBD" transform="translate(351,209)"/>
<path d="M0 0 C2.83022097 3.99560608 1.76210446 7.42737323 1 12 C-0.32 11.34 -1.64 10.68 -3 10 C-2.690625 9.46375 -2.38125 8.9275 -2.0625 8.375 C-0.82172561 5.6015043 -0.4090325 2.99957163 0 0 Z " fill="#363636" transform="translate(284,157)"/>
<path d="M0 0 C0.99 0.33 1.98 0.66 3 1 C4.1875 3.5625 4.1875 3.5625 5 6 C2.69 6 0.38 6 -2 6 C-1.34 4.02 -0.68 2.04 0 0 Z " fill="#A9A9A9" transform="translate(432,395)"/>
<path d="M0 0 C0.99 0.33 1.98 0.66 3 1 C4.1875 3.5625 4.1875 3.5625 5 6 C2.69 6 0.38 6 -2 6 C-1.34 4.02 -0.68 2.04 0 0 Z " fill="#ADADAD" transform="translate(418,395)"/>
<path d="M0 0 C0.33 0 0.66 0 1 0 C1.45572917 1.98567708 1.91145833 3.97135417 2.3671875 5.95703125 C2.98007723 8.27742974 2.98007723 8.27742974 5 11 C3.68 10.67 2.36 10.34 1 10 C1 11.65 1 13.3 1 15 C0.67 15 0.34 15 0 15 C0 10.05 0 5.1 0 0 Z " fill="#3D3D3D" transform="translate(181,213)"/>
<path d="M0 0 C2.13586678 3.20380017 2.23132175 4.01939967 2.125 7.6875 C2.10695313 8.49574219 2.08890625 9.30398437 2.0703125 10.13671875 C2.03550781 11.05904297 2.03550781 11.05904297 2 12 C1.67 12 1.34 12 1 12 C0.67 9.69 0.34 7.38 0 5 C-0.99 5.495 -0.99 5.495 -2 6 C-2.66 5.34 -3.32 4.68 -4 4 C-2.68 2.68 -1.36 1.36 0 0 Z " fill="#393939" transform="translate(266,184)"/>
<path d="M0 0 C1.98 0 3.96 0 6 0 C5.01 1.485 5.01 1.485 4 3 C3.34 3 2.68 3 2 3 C2 3.66 2 4.32 2 5 C3.32 5.33 4.64 5.66 6 6 C4.02 6 2.04 6 0 6 C0 4.02 0 2.04 0 0 Z " fill="#C3C3C3" transform="translate(353,395)"/>
<path d="M0 0 C1.65 0 3.3 0 5 0 C4.01 0.495 4.01 0.495 3 1 C2.26924352 3.3140622 1.59861742 5.64828869 1 8 C0.01 7.67 -0.98 7.34 -2 7 C-1.34 4.69 -0.68 2.38 0 0 Z " fill="#D2D2D2" transform="translate(109,340)"/>
<path d="M0 0 C0 3 0 3 -1.75 5.04296875 C-2.4925 5.75066406 -3.235 6.45835937 -4 7.1875 C-4.7425 7.90292969 -5.485 8.61835938 -6.25 9.35546875 C-6.8275 9.89816406 -7.405 10.44085938 -8 11 C-8 8 -8 8 -5.6875 5.5 C-4.800625 4.675 -3.91375 3.85 -3 3 C-2.401875 2.401875 -1.80375 1.80375 -1.1875 1.1875 C-0.795625 0.795625 -0.40375 0.40375 0 0 Z " fill="#A9A9A9" transform="translate(294,258)"/>
<path d="M0 0 C0.99 0 1.98 0 3 0 C2.875 1.875 2.875 1.875 2 4 C-1.0625 5.25 -1.0625 5.25 -4 6 C-2.84826645 3.53199953 -1.95216435 1.95216435 0 0 Z " fill="#686868" transform="translate(204,229)"/>
<path d="M0 0 C0.66 0 1.32 0 2 0 C2.66 1.98 3.32 3.96 4 6 C2.02 6 0.04 6 -2 6 C-1.34 4.02 -0.68 2.04 0 0 Z " fill="#B3B3B3" transform="translate(440,395)"/>
<path d="M0 0 C1.98 0 3.96 0 6 0 C5.67 1.65 5.34 3.3 5 5 C4.01 5.33 3.02 5.66 2 6 C2 5.34 2 4.68 2 4 C2.66 4 3.32 4 4 4 C4 3.34 4 2.68 4 2 C2.68 2 1.36 2 0 2 C0 1.34 0 0.68 0 0 Z " fill="#A1A1A1" transform="translate(390,373)"/>
<path d="M0 0 C0.33 0 0.66 0 1 0 C1.98248524 4.0527516 2.08159574 7.83861737 2 12 C1.34 11.67 0.68 11.34 0 11 C-0.99716532 7.01133873 -1.0502717 3.9676931 0 0 Z " fill="#3A3A3A" transform="translate(242,287)"/>
<path d="M0 0 C0.33 1.32 0.66 2.64 1 4 C1.99 4 2.98 4 4 4 C3.34 5.98 2.68 7.96 2 10 C1.67 9.01 1.34 8.02 1 7 C0.01 7.33 -0.98 7.66 -2 8 C-1.34 5.36 -0.68 2.72 0 0 Z " fill="#3C3C3C" transform="translate(264,273)"/>
<path d="M0 0 C-0.66 1.98 -1.32 3.96 -2 6 C-2.99 6 -3.98 6 -5 6 C-4.625 3.5625 -4.625 3.5625 -4 1 C-2 0 -2 0 0 0 Z " fill="#666666" transform="translate(225,252)"/>
<path d="M0 0 C1.32 0 2.64 0 4 0 C4 1.65 4 3.3 4 5 C2.68 5 1.36 5 0 5 C0 3.35 0 1.7 0 0 Z " fill="#0E0E0E" transform="translate(409,395)"/>
<path d="M0 0 C1.5 1.3125 1.5 1.3125 3 3 C3 3.99 3 4.98 3 6 C1.35 6 -0.3 6 -2 6 C-1.34 4.02 -0.68 2.04 0 0 Z " fill="#282828" transform="translate(55,368)"/>
<path d="M0 0 C0.66 0 1.32 0 2 0 C2.33 1.98 2.66 3.96 3 6 C2.01 6.495 2.01 6.495 1 7 C1 6.34 1 5.68 1 5 C0.34 5 -0.32 5 -1 5 C-0.67 3.35 -0.34 1.7 0 0 Z " fill="#595959" transform="translate(238,279)"/>
<path d="M0 0 C0.75 1.625 0.75 1.625 1 4 C-0.8125 7.25 -0.8125 7.25 -3 10 C-3.66 10 -4.32 10 -5 10 C-3.84414715 6.08788267 -2.64465038 3.1254959 0 0 Z " fill="#3E3E3E" transform="translate(276,251)"/>
<path d="M0 0 C1.98 0.99 3.96 1.98 6 3 C6 6 6 6 4 9 C3.566875 7.88625 3.566875 7.88625 3.125 6.75 C2.17697356 4.43260203 1.15154089 2.22082885 0 0 Z " fill="#333333" transform="translate(187,224)"/>
<path d="M0 0 C0.33 0 0.66 0 1 0 C1.66 2.97 2.32 5.94 3 9 C2.01 9.33 1.02 9.66 0 10 C-1.125 3.375 -1.125 3.375 0 0 Z " fill="#232323" transform="translate(216,158)"/>
<path d="M0 0 C1.98 0.66 3.96 1.32 6 2 C5.01 2.99 4.02 3.98 3 5 C2.01 4.67 1.02 4.34 0 4 C0 2.68 0 1.36 0 0 Z " fill="#9F9F9F" transform="translate(286,139)"/>
<path d="M0 0 C1.32 0 2.64 0 4 0 C3.67 1.32 3.34 2.64 3 4 C1.68 3.67 0.36 3.34 -1 3 C-0.67 2.01 -0.34 1.02 0 0 Z " fill="#0C0C0C" transform="translate(336,396)"/>
<path d="M0 0 C-0.33 1.65 -0.66 3.3 -1 5 C-1.99 5 -2.98 5 -4 5 C-4 3.68 -4 2.36 -4 1 C-2 0 -2 0 0 0 Z " fill="#494949" transform="translate(265,280)"/>
</svg>
