<?xml version="1.0" encoding="UTF-8"?>
<svg version="1.1" xmlns="http://www.w3.org/2000/svg" width="500" height="500">
<path d="M0 0 C165 0 330 0 500 0 C500 165 500 330 500 500 C335 500 170 500 0 500 C0 335 0 170 0 0 Z " fill="#010101" transform="translate(0,0)"/>
<path d="M0 0 C0 3.96 0 7.92 0 12 C-1.340625 12.70125 -2.68125 13.4025 -4.0625 14.125 C-8.03162955 16.30989939 -11.29302084 18.76909993 -14.58984375 21.86328125 C-16 23 -16 23 -18 23 C-18.226875 23.556875 -18.45375 24.11375 -18.6875 24.6875 C-20.01980278 27.03489062 -21.58740401 28.54265833 -23.5078125 30.40625 C-29.07912182 36.35675839 -32.68751756 42.83093687 -35.17578125 50.5546875 C-36 53 -36 53 -37.03515625 54.96875 C-42.91543991 67.34829455 -41.45652927 87.4039984 -37 100 C-32.2792572 113.01513203 -25.0668622 124.40188305 -15 134 C-14.01 134.33 -13.02 134.66 -12 135 C-10.948125 136.11375 -10.948125 136.11375 -9.875 137.25 C-4.93888726 141.97149914 0.6033831 144.56801969 7.0625 146.625 C13.57831846 149.11634235 16.33303924 154.353801 20 160 C24.38120307 165.91746908 29.08677829 171.51929371 34 177 C37.29299391 176.75263896 38.21473589 175.78202037 40.5859375 173.375 C41.52662823 172.25918424 42.45582058 171.1336018 43.375 170 C43.86033203 169.41275146 44.34566406 168.82550293 44.84570312 168.22045898 C49.24831286 162.82844081 53.60808314 157.3755048 56.27734375 150.90234375 C58.46154588 147.22238415 60.03420453 146.7675447 64.0625 145.5 C82.16904284 139.17676165 95.19206483 126.94758858 103.875 109.9375 C106.67850673 104.07150208 108.55262631 98.31951891 110 92 C110.38629946 90.60149814 110.78082752 89.20521397 111.1875 87.8125 C111.5896875 86.4203125 111.5896875 86.4203125 112 85 C115.81311305 86.4980087 117.72483551 88.62648024 120 92 C121.55475003 96.59174879 120.40738525 99.60946779 118.75 104.0625 C118.31171875 105.27035156 117.8734375 106.47820312 117.421875 107.72265625 C116 111 116 111 114.265625 113.12109375 C112.75731698 114.95589153 112.75731698 114.95589153 113.1171875 117.40625 C114.46504471 121.36632604 116.65135286 124.72295677 118.8203125 128.28125 C120 131 120 131 120.0078125 133.50390625 C118.63965722 136.8924769 116.38035677 139.00537054 113.75 141.4375 C109.90686705 145.12187193 106.2868478 148.80643557 103 153 C93.5025974 150.23376623 93.5025974 150.23376623 90.3125 148.75 C87.02154475 147.68266316 84.34352391 148.34440708 81 149 C81 149.66 81 150.32 81 151 C80.14728516 151.38478516 80.14728516 151.38478516 79.27734375 151.77734375 C78.50519531 152.16019531 77.73304688 152.54304687 76.9375 152.9375 C76.18339844 153.29714844 75.42929687 153.65679687 74.65234375 154.02734375 C72.15321893 155.88604483 70.8816707 157.35156246 69.05859375 159.8203125 C63.79455871 166.85161529 57.37632914 172.79821064 51.125 178.9375 C49.25445355 180.78038276 47.38543354 182.62475355 45.51925659 184.47206116 C44.3657025 185.613394 43.20948527 186.75204293 42.05032349 187.88768005 C39.16336833 190.66714377 39.16336833 190.66714377 37 194 C30.54950939 193.28327882 26.56684533 186.40601835 22.6484375 181.76953125 C20.92576263 179.78388311 20.92576263 179.78388311 18 178 C18 177.01 18 176.02 18 175 C17.44957031 174.77570313 16.89914063 174.55140625 16.33203125 174.3203125 C13.27416852 172.58906024 11.15178174 170.37762275 8.6875 167.875 C8.2025708 167.38580078 7.7176416 166.89660156 7.21801758 166.39257812 C4.40592181 163.53044174 1.75407711 160.58218412 -0.8125 157.5 C-3.54752834 154.29499066 -6.06087029 152.62703183 -10 151 C-12.875 149.4375 -12.875 149.4375 -15 148 C-15 147.34 -15 146.68 -15 146 C-18.49363303 147.46732587 -21.81540768 148.8966283 -25.125 150.75 C-28.5638961 152.24517222 -29.49641685 152.22701465 -33 151 C-35.16886849 149.09048372 -37.10480589 147.2279821 -39.0625 145.125 C-43.71067101 140.20605998 -43.71067101 140.20605998 -49 136 C-48.40895235 131.15340923 -47.02055843 127.39251833 -45 123 C-44.34 123 -43.68 123 -43 123 C-42.63369366 117.10792354 -43.84775058 112.73021245 -45.9375 107.25 C-46.21529297 106.49589844 -46.49308594 105.74179688 -46.77929688 104.96484375 C-47.2928975 103.5713153 -47.81113334 102.17947921 -48.33569336 100.79003906 C-48.92379764 99.20533471 -49.46547642 97.60357073 -50 96 C-52.70123724 94.95880649 -55.28814435 94.09671155 -58.0625 93.3125 C-58.82111328 93.08755859 -59.57972656 92.86261719 -60.36132812 92.63085938 C-62.23766304 92.0762195 -64.11844855 91.53667702 -66 91 C-66.08676908 86.87513162 -66.14031295 82.75049616 -66.1875 78.625 C-66.21263672 77.449375 -66.23777344 76.27375 -66.26367188 75.0625 C-66.27333984 73.94101563 -66.28300781 72.81953125 -66.29296875 71.6640625 C-66.3086792 70.62717285 -66.32438965 69.5902832 -66.34057617 68.52197266 C-66.22818604 67.68972168 -66.1157959 66.8574707 -66 66 C-63 64 -63 64 -60.00390625 63.421875 C-56.24401079 62.68782049 -53.34388143 61.89114117 -50 60 C-48.19006408 56.50373355 -47.45606597 53.3451012 -46.703125 49.48828125 C-46.06527177 46.32382053 -45.27462778 44.20439277 -43.6875 41.4375 C-41.79195924 38.24520636 -41.79195924 38.24520636 -42.0625 35.375 C-43.60879098 31.45772952 -45.4124944 27.8812584 -47.75 24.375 C-49 22 -49 22 -48.81665039 20.10839844 C-47.75981104 17.37988883 -46.27346044 15.9340502 -44.18359375 13.890625 C-43.41982422 13.13652344 -42.65605469 12.38242188 -41.86914062 11.60546875 C-41.06669922 10.82816406 -40.26425781 10.05085937 -39.4375 9.25 C-38.22803711 8.06083984 -38.22803711 8.06083984 -36.99414062 6.84765625 C-35.00266222 4.89152954 -33.00452279 2.94274281 -31 1 C-26.14538588 2.28831738 -22.18120811 3.84131819 -17.89453125 6.390625 C-15.98024155 7.22199274 -15.98024155 7.22199274 -14.046875 6.2734375 C-13.37140625 5.85320312 -12.6959375 5.43296875 -12 5 C-11.25621094 4.57460937 -10.51242188 4.14921875 -9.74609375 3.7109375 C-8.20282002 2.81787554 -6.66115717 1.92202425 -5.12109375 1.0234375 C-3 0 -3 0 0 0 Z " fill="#055F99" transform="translate(215,139)"/>
<path d="M0 0 C2.01453138 0.91972592 3.99886239 1.90709142 5.95703125 2.94140625 C7.06884766 3.52470703 8.18066406 4.10800781 9.32617188 4.70898438 C11.0519043 5.62647461 11.0519043 5.62647461 12.8125 6.5625 C13.99383458 7.18482609 15.17547237 7.80657697 16.35742188 8.42773438 C19.24131386 9.94619179 22.1219814 11.47044807 25 13 C25.97284603 52.83180893 25.97284603 52.83180893 16.8125 63.5625 C15.884375 64.366875 14.95625 65.17125 14 66 C13.36449219 66.57878906 12.72898437 67.15757812 12.07421875 67.75390625 C2.58474682 76.31408903 2.58474682 76.31408903 -3.3125 76.0625 C-11.12689308 74.8443359 -16.50116836 69.05468367 -21.3984375 63.20703125 C-27.22666333 55.17545175 -30.2777693 46.47120025 -30.1953125 36.53515625 C-30.1924826 35.85698349 -30.18965271 35.17881073 -30.18673706 34.48008728 C-30.17565416 32.34070234 -30.1505736 30.2017557 -30.125 28.0625 C-30.11495476 26.60091756 -30.10583163 25.13932847 -30.09765625 23.67773438 C-30.07575425 20.11835021 -30.04130866 16.55921797 -30 13 C-28.865625 12.40832031 -27.73125 11.81664062 -26.5625 11.20703125 C-25.04158068 10.40901803 -23.5207522 9.61083165 -22 8.8125 C-21.25621094 8.42513672 -20.51242188 8.03777344 -19.74609375 7.63867188 C-15.26108832 5.27916902 -11.04479789 2.78089486 -6.921875 -0.1730957 C-4.20945995 -1.34013709 -2.80169911 -0.86812482 0 0 Z " fill="#04B5F1" transform="translate(253,118)"/>
<path d="M0 0 C0.921875 2.07421875 0.921875 2.07421875 1.75 4.6875 C3.93827096 10.60770593 7.36637447 14.18318724 13 17 C20.927087 17.6271755 27.62890701 18.1245748 34 13 C37.84845054 9.15154946 39.28364438 5.06324908 41 0 C47.16544511 0.2802475 51.63816141 2.66921418 57.05859375 5.51171875 C59.52316555 6.75873317 61.8988905 7.77832715 64.5 8.6875 C67.54553192 9.82957447 69.6652368 10.7625186 72 13 C72 13.66 72 14.32 72 15 C70.5390625 16.2890625 70.5390625 16.2890625 68.625 17.625 C67.99851562 18.07101563 67.37203125 18.51703125 66.7265625 18.9765625 C65 20 65 20 63 20 C63 20.66 63 21.32 63 22 C62.34 22 61.68 22 61 22 C61.061875 20.948125 61.12375 19.89625 61.1875 18.8125 C60.41658648 14.8811218 60.41658648 14.8811218 57.484375 13.421875 C54.68523628 12.1730285 51.88580078 11.03166189 49 10 C49.37454477 12.51103257 49.58363516 13.67649351 51.62890625 15.265625 C52.26699219 15.59046875 52.90507812 15.9153125 53.5625 16.25 C54.696875 16.8275 55.83125 17.405 57 18 C57.49430135 21.13057524 57.76240822 22.98795062 57 26 C55.3828125 27.59765625 55.3828125 27.59765625 53.1875 29.125 C34.73173109 41.98898964 26.88611494 65.39140899 21 86 C19.0590877 83.08863156 18.47758867 81.3348528 17.6875 78 C16.35008439 72.86758272 14.46121439 68.26343133 12.1796875 63.484375 C11.24933525 61.52509014 10.41808242 59.51875525 9.625 57.5 C4.34308245 46.12356219 -3.58699631 36.85030281 -12.8046875 28.44140625 C-15.20463798 25.77242218 -15.64303365 24.82278407 -15.5 21.3125 C-15.4896875 20.54550781 -15.479375 19.77851563 -15.46875 18.98828125 C-15 17 -15 17 -12 15 C-10.68 15 -9.36 15 -8 15 C-8 13.35 -8 11.7 -8 10 C-8.62648437 10.28875 -9.25296875 10.5775 -9.8984375 10.875 C-11.12433594 11.431875 -11.12433594 11.431875 -12.375 12 C-13.18710938 12.37125 -13.99921875 12.7425 -14.8359375 13.125 C-17 14 -17 14 -19 14 C-19 16.64 -19 19.28 -19 22 C-21.99254618 20.59808647 -24.5954611 18.96632511 -27.25 17 C-27.95640625 16.484375 -28.6628125 15.96875 -29.390625 15.4375 C-30.18726563 14.7259375 -30.18726563 14.7259375 -31 14 C-31 13.34 -31 12.68 -31 12 C-27.07316001 10.11771621 -23.14049786 8.24838654 -19.2019043 6.39086914 C-17.86265933 5.75703669 -16.52507553 5.11968193 -15.18920898 4.47875977 C-13.26971508 3.55857163 -11.34462097 2.6511791 -9.41796875 1.74609375 C-8.26063232 1.19622803 -7.1032959 0.6463623 -5.91088867 0.07983398 C-3 -1 -3 -1 0 0 Z " fill="#03B6F3" transform="translate(230,195)"/>
<path d="M0 0 C3.81311305 1.4980087 5.72483551 3.62648024 8 7 C9.55475003 11.59174879 8.40738525 14.60946779 6.75 19.0625 C6.09257812 20.87427734 6.09257812 20.87427734 5.421875 22.72265625 C4 26 4 26 2.265625 28.12109375 C0.75731698 29.95589153 0.75731698 29.95589153 1.1171875 32.40625 C2.46504471 36.36632604 4.65135286 39.72295677 6.8203125 43.28125 C8 46 8 46 8.0078125 48.50390625 C6.63965722 51.8924769 4.38035677 54.00537054 1.75 56.4375 C-2.09313295 60.12187193 -5.7131522 63.80643557 -9 68 C-18.4974026 65.23376623 -18.4974026 65.23376623 -21.6875 63.75 C-24.97845525 62.68266316 -27.65647609 63.34440708 -31 64 C-31 64.66 -31 65.32 -31 66 C-31.56847656 66.25652344 -32.13695312 66.51304687 -32.72265625 66.77734375 C-33.49480469 67.16019531 -34.26695312 67.54304688 -35.0625 67.9375 C-35.81660156 68.29714844 -36.57070313 68.65679687 -37.34765625 69.02734375 C-39.84678107 70.88604483 -41.1183293 72.35156246 -42.94140625 74.8203125 C-48.20544129 81.85161529 -54.62367086 87.79821064 -60.875 93.9375 C-62.74554645 95.78038276 -64.61456646 97.62475355 -66.48074341 99.47206116 C-67.6342975 100.613394 -68.79051473 101.75204293 -69.94967651 102.88768005 C-72.83663167 105.66714377 -72.83663167 105.66714377 -75 109 C-81.45049061 108.28327882 -85.43315467 101.40601835 -89.3515625 96.76953125 C-91.07423737 94.78388311 -91.07423737 94.78388311 -94 93 C-94 92.01 -94 91.02 -94 90 C-94.82177734 89.66935547 -94.82177734 89.66935547 -95.66015625 89.33203125 C-98.73548994 87.58129871 -101.00158721 85.21052934 -103.4375 82.6875 C-103.90220703 82.21376953 -104.36691406 81.74003906 -104.84570312 81.25195312 C-106.23322758 79.83733614 -107.61663507 78.41868488 -109 77 C-109.93972656 76.09894531 -110.87945312 75.19789063 -111.84765625 74.26953125 C-114 72 -114 72 -114 70 C-113.39414063 70.13277344 -112.78828125 70.26554687 -112.1640625 70.40234375 C-111.32617188 70.57894531 -110.48828125 70.75554687 -109.625 70.9375 C-108.71105469 71.1334375 -107.79710937 71.329375 -106.85546875 71.53125 C-104.1297592 71.9786989 -101.689385 71.97206057 -98.9375 71.9375 C-95.4286155 72.23449022 -94.23044638 72.78466485 -91.6171875 75.2265625 C-89.29792414 78.08043572 -87.14610644 81.0144571 -85 84 C-83.66618388 85.57990765 -82.31425738 87.14486824 -80.9375 88.6875 C-80.36902344 89.33074219 -79.80054688 89.97398437 -79.21484375 90.63671875 C-78.81394531 91.08660156 -78.41304687 91.53648437 -78 92 C-74.70700609 91.75263896 -73.78526411 90.78202037 -71.4140625 88.375 C-70.47337177 87.25918424 -69.54417942 86.1336018 -68.625 85 C-68.13966797 84.41275146 -67.65433594 83.82550293 -67.15429688 83.22045898 C-62.75168714 77.82844081 -58.39191686 72.3755048 -55.72265625 65.90234375 C-53.53845412 62.22238415 -51.96579547 61.7675447 -47.9375 60.5 C-29.83095716 54.17676165 -16.80793517 41.94758858 -8.125 24.9375 C-5.32149327 19.07150208 -3.44737369 13.31951891 -2 7 C-1.61370054 5.60149814 -1.21917248 4.20521397 -0.8125 2.8125 C-0.544375 1.884375 -0.27625 0.95625 0 0 Z " fill="#07639A" transform="translate(327,224)"/>
<path d="M0 0 C3.25376149 0.63023308 5.47729529 1.83969733 8.25 3.625 C12.01748628 5.75498407 14.55251326 6.4992873 18.953125 5.6015625 C21.99335834 4.70805881 24.97184153 3.6801053 27.921875 2.5234375 C30.44394063 1.88818037 31.55465218 2.13700247 34 3 C37.00471842 5.32930948 39.62275964 8.06734412 42.3125 10.75 C43.06595703 11.46671875 43.81941406 12.1834375 44.59570312 12.921875 C45.30275391 13.623125 46.00980469 14.324375 46.73828125 15.046875 C47.38837158 15.68463867 48.03846191 16.32240234 48.70825195 16.97949219 C50 19 50 19 49.79418945 21.59521484 C48.87046781 24.39222011 47.54075846 26.44996559 45.875 28.875 C43.87886512 32.1361553 43.02015819 33.62371378 42.8125 37.5 C44.12727997 41.37514097 45.87418502 44.81349316 47.7890625 48.421875 C49.56767209 52.20859219 50.27108244 55.89155555 51 60 C51.65226562 60.10957031 52.30453125 60.21914062 52.9765625 60.33203125 C54.28753906 60.56986328 54.28753906 60.56986328 55.625 60.8125 C56.48351562 60.96332031 57.34203125 61.11414063 58.2265625 61.26953125 C61 62 61 62 67 65 C67 73.58 67 82.16 67 91 C54.5 95 54.5 95 50 95 C48.6328125 92.41210938 48.6328125 92.41210938 47.265625 89.82421875 C46.0937901 87.84947239 46.0937901 87.84947239 43.890625 86.82421875 C41.63747047 84.65020394 41.69492156 84.03742711 41.53125 81.0078125 C41.50791649 79.38034226 41.49826259 77.75263657 41.5 76.125 C41.06313328 59.87509075 35.33452395 45.57998334 25 33 C24.37738281 32.18273437 23.75476563 31.36546875 23.11328125 30.5234375 C17.84743735 24.23557215 10.67887359 19.61613705 3.8125 15.2265625 C2 14 2 14 0 12 C-0.1953125 9.1796875 -0.1953125 9.1796875 -0.125 5.875 C-0.10695313 4.77929688 -0.08890625 3.68359375 -0.0703125 2.5546875 C-0.04710937 1.71164063 -0.02390625 0.86859375 0 0 Z " fill="#EF8116" transform="translate(285,139)"/>
<path d="M0 0 C0.66 0.268125 1.32 0.53625 2 0.8125 C1.01 1.1425 0.02 1.4725 -1 1.8125 C-1 26.2325 -1 50.6525 -1 75.8125 C0.32 76.1425 1.64 76.4725 3 76.8125 C-5.51122664 76.77309617 -9.9098688 73.78358372 -15.87890625 67.98828125 C-23.9040541 59.44314542 -28.29288842 49.10555491 -28.1953125 37.34765625 C-28.1924826 36.66948349 -28.18965271 35.99131073 -28.18673706 35.29258728 C-28.17565416 33.15320234 -28.1505736 31.0142557 -28.125 28.875 C-28.11495476 27.41341756 -28.10583163 25.95182847 -28.09765625 24.49023438 C-28.07575425 20.93085021 -28.04130866 17.37171797 -28 13.8125 C-26.865625 13.22082031 -25.73125 12.62914062 -24.5625 12.01953125 C-23.04158068 11.22151803 -21.5207522 10.42333165 -20 9.625 C-19.25621094 9.23763672 -18.51242188 8.85027344 -17.74609375 8.45117188 C-13.24403071 6.08269523 -8.94473246 3.56558075 -4.7265625 0.71875 C-3 -0.1875 -3 -0.1875 0 0 Z " fill="#028CCD" transform="translate(251,117.1875)"/>
<path d="M0 0 C0.921875 2.07421875 0.921875 2.07421875 1.75 4.6875 C3.93827096 10.60770593 7.36637447 14.18318724 13 17 C15.24745534 17.12389818 17.49916342 17.1756285 19.75 17.1875 C20.96171875 17.20167969 22.1734375 17.21585938 23.421875 17.23046875 C26.96245618 17.00241822 29.70689355 16.27784652 33 15 C32.01 16.32 31.02 17.64 30 19 C26.7 19 23.4 19 20 19 C20 39.46 20 59.92 20 81 C20.66 81 21.32 81 22 81 C21.67 82.65 21.34 84.3 21 86 C19.0590877 83.08863156 18.47758867 81.3348528 17.6875 78 C16.35008439 72.86758272 14.46121439 68.26343133 12.1796875 63.484375 C11.24933525 61.52509014 10.41808242 59.51875525 9.625 57.5 C4.34308245 46.12356219 -3.58699631 36.85030281 -12.8046875 28.44140625 C-15.20463798 25.77242218 -15.64303365 24.82278407 -15.5 21.3125 C-15.4896875 20.54550781 -15.479375 19.77851563 -15.46875 18.98828125 C-15 17 -15 17 -12 15 C-10.68 15 -9.36 15 -8 15 C-8 13.35 -8 11.7 -8 10 C-8.62648437 10.28875 -9.25296875 10.5775 -9.8984375 10.875 C-11.12433594 11.431875 -11.12433594 11.431875 -12.375 12 C-13.18710938 12.37125 -13.99921875 12.7425 -14.8359375 13.125 C-17 14 -17 14 -19 14 C-19 16.64 -19 19.28 -19 22 C-21.99254618 20.59808647 -24.5954611 18.96632511 -27.25 17 C-27.95640625 16.484375 -28.6628125 15.96875 -29.390625 15.4375 C-30.18726563 14.7259375 -30.18726563 14.7259375 -31 14 C-31 13.34 -31 12.68 -31 12 C-27.07316001 10.11771621 -23.14049786 8.24838654 -19.2019043 6.39086914 C-17.86265933 5.75703669 -16.52507553 5.11968193 -15.18920898 4.47875977 C-13.26971508 3.55857163 -11.34462097 2.6511791 -9.41796875 1.74609375 C-8.26063232 1.19622803 -7.1032959 0.6463623 -5.91088867 0.07983398 C-3 -1 -3 -1 0 0 Z " fill="#038BCB" transform="translate(230,195)"/>
<path d="M0 0 C4.62653621 1.53346586 8.02074101 4.04099075 11.8125 7 C12.7087207 7.67675781 12.7087207 7.67675781 13.62304688 8.3671875 C15.12347581 9.52637603 16.56724504 10.75813919 18 12 C18 12.66 18 13.32 18 14 C18.53496094 14.21269531 19.06992188 14.42539063 19.62109375 14.64453125 C22.90192823 16.51390656 25.41625215 19.03340561 28.0625 21.6875 C28.91533569 22.54275269 28.91533569 22.54275269 29.78540039 23.4152832 C38.577841 32.45743255 45.95477079 42.94211179 52 54 C52.41507813 54.74894531 52.83015625 55.49789062 53.2578125 56.26953125 C59.7665441 68.61156005 66.37192583 83.9081436 66 98 C63.04476326 96.52238163 62.88887257 94.19116457 61.88671875 91.2109375 C61.38656523 89.67713338 60.88656045 88.14328076 60.38671875 86.609375 C58.72196087 81.65822981 56.70691237 77.47003537 54 73 C53.38640625 71.89140625 52.7728125 70.7828125 52.140625 69.640625 C47.89276903 62.02256926 43.3268566 54.9281161 38 48 C37.36707031 47.17371094 36.73414063 46.34742188 36.08203125 45.49609375 C34.8994335 43.96552481 33.70980608 42.44034972 32.51171875 40.921875 C31.33558702 39.42663776 30.19222814 37.90559942 29.0625 36.375 C26.58490909 33.52201652 23.83455055 31.1572475 20.9609375 28.7109375 C19.27899966 27.24342999 17.72643496 25.73854998 16.1875 24.125 C14.10416336 21.79349596 14.10416336 21.79349596 11 21 C14.74561369 36.14673606 22.75646055 45.98085489 33.7265625 56.65234375 C36.54344564 59.56118699 39 62.81132205 39 67 C32.94891233 66.17340659 29.56795511 62.80662926 25 59 C24.33742187 58.49597656 23.67484375 57.99195313 22.9921875 57.47265625 C11.49205853 48.32376822 2.48693535 33.45017016 0 19 C-0.21687622 15.65997144 -0.19179935 12.34510587 -0.125 9 C-0.11597656 8.12988281 -0.10695312 7.25976562 -0.09765625 6.36328125 C-0.07434619 4.2420658 -0.03848579 2.12099438 0 0 Z " fill="#0A2369" transform="translate(181,209)"/>
<path d="M0 0 C0.90878906 0.19916016 0.90878906 0.19916016 1.8359375 0.40234375 C2.67382812 0.57894531 3.51171875 0.75554687 4.375 0.9375 C5.28894531 1.1334375 6.20289063 1.329375 7.14453125 1.53125 C9.8702408 1.9786989 12.310615 1.97206057 15.0625 1.9375 C18.5713845 2.23449022 19.76955362 2.78466485 22.3828125 5.2265625 C24.70207586 8.08043572 26.85389356 11.0144571 29 14 C30.33381612 15.57990765 31.68574262 17.14486824 33.0625 18.6875 C33.63097656 19.33074219 34.19945312 19.97398437 34.78515625 20.63671875 C35.18605469 21.08660156 35.58695313 21.53648437 36 22 C40.71788767 21.16872618 42.69846271 18.21181053 45.5625 14.625 C46.52102771 13.44961663 47.48063087 12.27510931 48.44140625 11.1015625 C48.86107666 10.57900879 49.28074707 10.05645508 49.71313477 9.51806641 C53.37979693 5.19264327 55.25061903 4.75401718 61 4 C63.07879272 3.30575423 65.0974643 2.51098214 67.1328125 1.69921875 C69.38534213 0.85569824 71.6264036 0.37087444 74 0 C71.08247361 5.67920298 67.64651767 9.74568873 63.08203125 14.17578125 C62.09525642 15.1526313 62.09525642 15.1526313 61.08854675 16.1492157 C59.00357631 18.21093707 56.90864621 20.26214748 54.8125 22.3125 C52.70746674 24.38246138 50.604608 26.45456849 48.50431824 28.52934265 C47.20092509 29.81576138 45.8944651 31.09908164 44.58467102 32.37898254 C43.70321663 33.24579903 43.70321663 33.24579903 42.80395508 34.13012695 C42.02596306 34.89121513 42.02596306 34.89121513 41.23225403 35.66767883 C39.88221966 37.00306168 39.88221966 37.00306168 39 39 C32.54950939 38.28327882 28.56684533 31.40601835 24.6484375 26.76953125 C22.92576263 24.78388311 22.92576263 24.78388311 20 23 C20 22.01 20 21.02 20 20 C19.45214844 19.77957031 18.90429688 19.55914062 18.33984375 19.33203125 C15.26451006 17.58129871 12.99841279 15.21052934 10.5625 12.6875 C10.09779297 12.21376953 9.63308594 11.74003906 9.15429688 11.25195312 C7.76677242 9.83733614 6.38336493 8.41868488 5 7 C4.06027344 6.09894531 3.12054688 5.19789063 2.15234375 4.26953125 C0 2 0 2 0 0 Z " fill="#09236C" transform="translate(213,294)"/>
<path d="M0 0 C0 5.28 0 10.56 0 16 C-0.33 16 -0.66 16 -1 16 C-1 14.35 -1 12.7 -1 11 C-14.61370183 19.90850535 -25.92444591 30.27747831 -36 43 C-36.73992187 43.88816406 -37.47984375 44.77632812 -38.2421875 45.69140625 C-40.16635473 47.96053759 -40.16635473 47.96053759 -41 51 C-41.66 51 -42.32 51 -43 51 C-43.09023438 51.52851563 -43.18046875 52.05703125 -43.2734375 52.6015625 C-44.25595041 55.84491155 -45.89757511 58.46038735 -47.625 61.375 C-53.73659449 71.88782387 -59.06689999 82.43799951 -63.04736328 93.93505859 C-64.79759823 98.89879911 -64.79759823 98.89879911 -67 100 C-64.85358223 82.53493754 -58.0958215 62.87805799 -48.421875 48.16796875 C-47.240439 46.36660342 -46.15902498 44.50011672 -45.10546875 42.62109375 C-40.03059386 33.67981793 -33.21677234 25.94747451 -26 18.6875 C-25.43611572 18.11821777 -24.87223145 17.54893555 -24.29125977 16.96240234 C-20.25825372 13 -20.25825372 13 -18 13 C-18 12.34 -18 11.68 -18 11 C-15.92513234 9.41351061 -13.85806633 7.94396868 -11.6875 6.5 C-11.09259766 6.09652344 -10.49769531 5.69304687 -9.88476562 5.27734375 C-2.09066883 0 -2.09066883 0 0 0 Z " fill="#0B2366" transform="translate(320,210)"/>
<path d="M0 0 C8.58 0 17.16 0 26 0 C28 8 28 8 28.75 12 C31.10349314 18.41167862 39.4656903 21.15668493 45 24 C45 31.92 45 39.84 45 48 C44.34 48 43.68 48 43 48 C43 41.07 43 34.14 43 27 C40.525 26.01 40.525 26.01 38 25 C36.19547384 24.09428384 34.40300351 23.16428255 32.62109375 22.21484375 C31.61755859 21.68439453 30.61402344 21.15394531 29.58007812 20.60742188 C27.48036078 19.49166157 25.38140485 18.37446723 23.28320312 17.25585938 C22.28095703 16.72669922 21.27871094 16.19753906 20.24609375 15.65234375 C18.87988892 14.92519165 18.87988892 14.92519165 17.48608398 14.18334961 C15.27507098 13.13093087 13.41391009 12.37049503 11 12 C8.66071588 12.87663229 8.66071588 12.87663229 6.25 14.375 C5.29738281 14.9215625 4.34476563 15.468125 3.36328125 16.03125 C2.25339844 16.6809375 1.14351562 17.330625 0 18 C-2.1263953 19.22060481 -4.25650833 20.43428701 -6.38964844 21.64306641 C-7.82682797 22.45789876 -9.26113854 23.27781429 -10.69238281 24.10302734 C-15.7760545 27 -15.7760545 27 -18 27 C-18 33.93 -18 40.86 -18 48 C-18.99 48 -19.98 48 -21 48 C-23.4067143 28.09708985 -23.4067143 28.09708985 -19.59228516 23.18847656 C-16.51270458 20.83661372 -13.12210885 19.39731874 -9.59765625 17.8359375 C-6.80562559 16.57836707 -6.04978218 16.06915976 -4.18359375 13.4765625 C-3.2510761 10.98253491 -2.57393644 8.5971656 -2 6 C-1.34 4.02 -0.68 2.04 0 0 Z " fill="#E67E18" transform="translate(238,102)"/>
<path d="M0 0 C1.76889346 0.83068335 3.51600282 1.70844978 5.24609375 2.6171875 C6.24833984 3.14183594 7.25058594 3.66648437 8.28320312 4.20703125 C9.32412109 4.75746094 10.36503906 5.30789062 11.4375 5.875 C12.47455078 6.41769531 13.51160156 6.96039063 14.58007812 7.51953125 C17.39531213 8.99856877 20.20802823 10.47748538 23 12 C23.92586914 12.45366943 24.85173828 12.90733887 25.80566406 13.37475586 C28 15 28 15 28.56762695 17.26831055 C28.54144287 18.13238525 28.51525879 18.99645996 28.48828125 19.88671875 C28.47216797 20.82451172 28.45605469 21.76230469 28.43945312 22.72851562 C28.39755859 23.70498047 28.35566406 24.68144531 28.3125 25.6875 C28.28994141 26.67556641 28.26738281 27.66363281 28.24414062 28.68164062 C28.18517988 31.12261559 28.10295048 33.56054868 28 36 C28.66 36 29.32 36 30 36 C30 28.41 30 20.82 30 13 C30.33 13 30.66 13 31 13 C31 16.63 31 20.26 31 24 C32.485 24.495 32.485 24.495 34 25 C33.34 25 32.68 25 32 25 C32.14076315 26.9587043 32.2877676 28.91696093 32.4375 30.875 C32.51871094 31.96554688 32.59992188 33.05609375 32.68359375 34.1796875 C32.83001703 36.94728971 32.83001703 36.94728971 34 39 C33.72057545 40.67654729 33.39171753 42.34608154 33 44 C32.34 44 31.68 44 31 44 C30.9175 45.03125 30.835 46.0625 30.75 47.125 C29.9279118 51.3724557 28.79892036 53.72126472 26 57 C24.68 57 23.36 57 22 57 C22.13277344 56.1234375 22.26554687 55.246875 22.40234375 54.34375 C24.13112642 41.92680001 24.61415632 29.52266652 25 17 C24.20722656 16.77441406 23.41445313 16.54882812 22.59765625 16.31640625 C17.06970654 14.29369284 12.05192061 11.37251301 6.90039062 8.54492188 C6.08634766 8.10599609 5.27230469 7.66707031 4.43359375 7.21484375 C3.70197021 6.81386475 2.97034668 6.41288574 2.21655273 5.99975586 C-0.20909049 4.90569164 -2.36229052 4.33622411 -5 4 C-7.3033842 4.9271012 -7.3033842 4.9271012 -9.5 6.5 C-13.58696998 9.12206206 -17.72710397 11.5698225 -22 13.875 C-23.093125 14.47054687 -24.18625 15.06609375 -25.3125 15.6796875 C-28 17 -28 17 -30 17 C-29.88115471 21.30518014 -29.75687035 25.61015967 -29.62768555 29.91503906 C-29.58454663 31.37756148 -29.54285805 32.84012747 -29.50268555 34.30273438 C-29.4444693 36.4128936 -29.38092712 38.52283775 -29.31640625 40.6328125 C-29.27974854 41.90012207 -29.24309082 43.16743164 -29.20532227 44.47314453 C-29.07093124 47.97341818 -29.07093124 47.97341818 -28.41772461 51.27294922 C-28 54 -28 54 -29 57 C-31.93789998 55.98693104 -32.95500458 55.06832637 -34.6875 52.4375 C-36.23801584 48.37662518 -37.18363197 44.37218974 -37 40 C-36.34 39.34 -35.68 38.68 -35 38 C-34.01 38 -33.02 38 -32 38 C-32.09595459 36.98800537 -32.09595459 36.98800537 -32.19384766 35.95556641 C-33.63930581 17.22230051 -33.63930581 17.22230051 -29.33105469 11.96240234 C-25.11283984 8.71739414 -20.37237829 6.77237719 -15.3984375 4.96728516 C-12.05481307 3.61880796 -9.07376591 1.77497891 -6.02539062 -0.13793945 C-3.46288794 -1.22860929 -2.57450108 -0.99715949 0 0 Z " fill="#111B1E" transform="translate(253,114)"/>
<path d="M0 0 C3.34125 -0.0825 6.6825 -0.165 10.125 -0.25 C11.16672363 -0.28641602 12.20844727 -0.32283203 13.28173828 -0.36035156 C19.15601894 -0.43040453 22.60658858 -0.04165135 27 4 C28.125 7.4375 28.125 7.4375 28 11 C26.25 13.9375 26.25 13.9375 24 16 C23.01 16 22.02 16 21 16 C21.5053125 16.85464844 22.010625 17.70929688 22.53125 18.58984375 C23.1809375 19.69457031 23.830625 20.79929687 24.5 21.9375 C25.47453125 23.59072266 25.47453125 23.59072266 26.46875 25.27734375 C28 28 28 28 28 29 C25.69 29 23.38 29 21 29 C20.896875 28.278125 20.79375 27.55625 20.6875 26.8125 C19.93970722 23.75334771 18.65222195 21.65792227 17 19 C17 18.34 17 17.68 17 17 C13.04 17 9.08 17 5 17 C5.33 20.96 5.66 24.92 6 29 C4.02 29 2.04 29 0 29 C0 19.43 0 9.86 0 0 Z " fill="#E4E4E4" transform="translate(364,331)"/>
<path d="M0 0 C0.20710863 5.64214115 -0.31198658 10.41308531 -2.0625 15.8125 C-2.28583008 16.50682129 -2.50916016 17.20114258 -2.73925781 17.91650391 C-7.97538616 33.31499563 -20.02828974 47.09362968 -34.5625 54.4375 C-36.2640625 55.2109375 -36.2640625 55.2109375 -38 56 C-36.04400803 48.88730192 -32.82213001 43.3174036 -27.125 38.625 C-18.41457722 31.37451626 -11.89417542 20.35460818 -10.125 9.125 C-9.46821844 5.53845755 -8.44291567 4.09927139 -5.5 1.9375 C-2.42087542 0 -2.42087542 0 0 0 Z " fill="#E99C1C" transform="translate(319,221)"/>
<path d="M0 0 C3.94888525 1.31629508 6.36293518 2.75697135 9 6 C10.2734375 8.8828125 10.2734375 8.8828125 11.375 12.125 C15.97685094 24.58197414 23.2250982 33.40183477 32.6953125 42.625 C35.52576579 45.54180611 38 48.79307539 38 53 C31.94891233 52.17340659 28.56795511 48.80662926 24 45 C23.33742187 44.49597656 22.67484375 43.99195313 21.9921875 43.47265625 C12.08071988 35.58762229 2.31034495 22.07314612 0.484375 9.4296875 C0.22588171 6.28015079 0.05524489 3.15900337 0 0 Z " fill="#09AAE0" transform="translate(182,223)"/>
<path d="M0 0 C2.64 0 5.28 0 8 0 C8.10183594 0.69867188 8.20367187 1.39734375 8.30859375 2.1171875 C9.10970943 5.45743253 10.45525189 8.09288655 12.0625 11.125 C15 16.66823529 15 16.66823529 15 20 C15.66 20 16.32 20 17 20 C17.10183594 19.30132812 17.20367187 18.60265625 17.30859375 17.8828125 C18.10970943 14.54256747 19.45525189 11.90711345 21.0625 8.875 C23.40122735 4.6601338 23.40122735 4.6601338 24 0 C26.64 0 29.28 0 32 0 C32 9.57 32 19.14 32 29 C30.02 29 28.04 29 26 29 C26 22.4 26 15.8 26 9 C22.7 15.27 19.4 21.54 16 28 C13.92961117 25.23948155 12.5462683 23.32768156 11.17578125 20.328125 C10.89903564 19.7290332 10.62229004 19.12994141 10.3371582 18.51269531 C9.999021 17.76600586 9.66088379 17.01931641 9.3125 16.25 C8.219375 13.8575 7.12625 11.465 6 9 C5.67 15.6 5.34 22.2 5 29 C3.35 29 1.7 29 0 29 C0 19.43 0 9.86 0 0 Z " fill="#E5E5E5" transform="translate(399,331)"/>
<path d="M0 0 C9.26269399 1.66520341 18.5434105 12.12236815 23.7578125 19.48046875 C32.87104505 34.24940089 32.87104505 34.24940089 32 41 C29.35261084 42.4606285 28.10551666 43 25 43 C24.649375 41.741875 24.29875 40.48375 23.9375 39.1875 C20.54362541 28.95739229 13.67651185 19.90547538 5.3125 13.25 C0 9 0 9 -1 8 C-0.82364548 5.30917128 -0.38164079 2.67148554 0 0 Z " fill="#E59B1E" transform="translate(286,161)"/>
<path d="M0 0 C3 1 3 1 5.375 3.4375 C8.92984183 6.90770274 11.37977998 7.78189346 16.25 8.4375 C21.31911125 7.84610369 24.70933748 5.61722483 29 3 C30.32641402 2.31967061 31.65770055 1.64842456 33 1 C32.34933161 12.55497321 32.34933161 12.55497321 27.6328125 17.40625 C23.25057954 21.18042193 19.27732722 21.70254627 13.5859375 21.421875 C8.6047965 20.60924173 5.96709187 18.07164234 2.6875 14.4375 C0.29170179 10.97690259 -0.12197814 8.41649175 -0.0625 4.3125 C-0.05347656 3.50425781 -0.04445312 2.69601563 -0.03515625 1.86328125 C-0.02355469 1.24839844 -0.01195312 0.63351563 0 0 Z " fill="#065D95" transform="translate(234,188)"/>
<path d="M0 0 C0.99 0.33 1.98 0.66 3 1 C4.56451613 5.17204301 4.56451613 5.17204301 4 8 C1.77457706 10.28556951 -0.66446065 12.04173366 -3.234375 13.9296875 C-13.4815372 21.60058576 -18.04766659 32.14299977 -22 44 C-26.75 42.125 -26.75 42.125 -29 41 C-27.18411074 25.14777752 -15.7982473 12.43304411 -4 2.6875 C-1.875 1.01171875 -1.875 1.01171875 0 0 Z " fill="#E1981E" transform="translate(212,160)"/>
<path d="M0 0 C3.0525 -0.061875 6.105 -0.12375 9.25 -0.1875 C10.68327637 -0.22846802 10.68327637 -0.22846802 12.14550781 -0.27026367 C15.73109655 -0.30554295 18.32266968 -0.32995517 21.58203125 1.2578125 C23.28926113 3.35540073 23.51270211 4.38029154 23.4375 7.0625 C23.293125 8.361875 23.14875 9.66125 23 11 C20 13 20 13 17 13 C19.31 16.63 21.62 20.26 24 24 C22.35 24 20.7 24 19 24 C17.41796875 22.3203125 17.41796875 22.3203125 16.1875 20.125 C15.76855469 19.40570313 15.34960938 18.68640625 14.91796875 17.9453125 C14 16 14 16 14 14 C11.03 14 8.06 14 5 14 C5 17.3 5 20.6 5 24 C3.35 24 1.7 24 0 24 C0 16.08 0 8.16 0 0 Z " fill="#E5E5E5" transform="translate(130,336)"/>
<path d="M0 0 C2.31 0 4.62 0 7 0 C7.27972656 0.76441406 7.55945313 1.52882813 7.84765625 2.31640625 C10.52031408 9.45781673 13.47152087 16.36199714 16.76391602 23.23657227 C19 27.91269688 19 27.91269688 19 29 C17.35 29 15.7 29 14 29 C12.515 25.535 12.515 25.535 11 22 C6.05 22 1.1 22 -4 22 C-4.99 24.31 -5.98 26.62 -7 29 C-8.65 29 -10.3 29 -12 29 C-11.74307373 28.44127197 -11.48614746 27.88254395 -11.22143555 27.30688477 C-10.03867005 24.72758814 -8.86306049 22.14508793 -7.6875 19.5625 C-7.28337891 18.68400391 -6.87925781 17.80550781 -6.46289062 16.90039062 C-3.94778889 11.35898762 -1.78969601 5.81717885 0 0 Z " fill="#E8E8E8" transform="translate(196,331)"/>
<path d="M0 0 C3.0525 -0.0825 6.105 -0.165 9.25 -0.25 C10.20551758 -0.28641602 11.16103516 -0.32283203 12.14550781 -0.36035156 C18.37745902 -0.44210801 18.37745902 -0.44210801 21.57421875 1.828125 C23.53996142 4.82251658 23.65800546 6.49063753 23 10 C20.15520727 12.97312925 18.57838726 13.93637104 14.44921875 14.390625 C13.20785156 14.34421875 11.96648437 14.2978125 10.6875 14.25 C9.43324219 14.21390625 8.17898438 14.1778125 6.88671875 14.140625 C5.45779297 14.07101562 5.45779297 14.07101562 4 14 C4.33 17.3 4.66 20.6 5 24 C3.35 24 1.7 24 0 24 C0 16.08 0 8.16 0 0 Z " fill="#ECECEC" transform="translate(255,336)"/>
<path d="M0 0 C1.98 0 3.96 0 6 0 C5.67 3.96 5.34 7.92 5 12 C11.6 12 18.2 12 25 12 C24.67 8.04 24.34 4.08 24 0 C25.98 0 27.96 0 30 0 C29.67 9.57 29.34 19.14 29 29 C27.35 29 25.7 29 24 29 C24.33 24.71 24.66 20.42 25 16 C18.4 16 11.8 16 5 16 C5.33 20.29 5.66 24.58 6 29 C4.02 29 2.04 29 0 29 C0 19.43 0 9.86 0 0 Z " fill="#E4E4E4" transform="translate(327,331)"/>
<path d="M0 0 C0.9075 0.495 1.815 0.99 2.75 1.5 C2.09 2.82 1.43 4.14 0.75 5.5 C0.06550781 5.17257812 -0.61898438 4.84515625 -1.32421875 4.5078125 C-4.73912059 3.33151788 -7.46031284 3.30222854 -11.0625 3.375 C-12.80466797 3.40207031 -12.80466797 3.40207031 -14.58203125 3.4296875 C-15.46246094 3.45289063 -16.34289062 3.47609375 -17.25 3.5 C-17.91 5.48 -18.57 7.46 -19.25 9.5 C-18.16460937 9.60957031 -17.07921875 9.71914063 -15.9609375 9.83203125 C-14.51555848 9.99158608 -13.07024949 10.15177611 -11.625 10.3125 C-10.91214844 10.38275391 -10.19929688 10.45300781 -9.46484375 10.52539062 C-4.86517441 11.05287564 -1.22564952 11.94900896 2.75 14.5 C3.9375 17.875 3.9375 17.875 3.75 21.5 C1.24500274 24.70082983 -0.3882074 26.2127358 -4.25 27.5 C-11.55754575 28.01350321 -17.77117729 28.11608709 -24.25 24.5 C-23.59 22.85 -22.93 21.2 -22.25 19.5 C-21.651875 19.974375 -21.05375 20.44875 -20.4375 20.9375 C-16.90008443 23.46422541 -13.98366131 23.65904798 -9.75 23.6875 C-8.7909375 23.70167969 -7.831875 23.71585937 -6.84375 23.73046875 C-4.01253861 23.68755111 -4.01253861 23.68755111 -1.25 21.5 C-1.745 19.025 -1.745 19.025 -2.25 16.5 C-3.34699219 16.41363281 -4.44398438 16.32726562 -5.57421875 16.23828125 C-7.02875906 16.09751928 -8.48318067 15.95552705 -9.9375 15.8125 C-10.65873047 15.75900391 -11.37996094 15.70550781 -12.12304688 15.65039062 C-16.165252 15.2258668 -17.95973085 14.72769164 -21.2578125 12.140625 C-23.25 9.5 -23.25 9.5 -23.4375 5.9375 C-22.28162555 2.59154763 -21.44309096 0.90621281 -18.3203125 -0.84375 C-12.44198173 -2.70706994 -5.6633527 -2.41067355 0 0 Z " fill="#E6E6E6" transform="translate(461.25,332.5)"/>
<path d="M0 0 C0.928125 0.495 1.85625 0.99 2.8125 1.5 C2.4825 2.82 2.1525 4.14 1.8125 5.5 C0.96429688 5.17257812 0.11609375 4.84515625 -0.7578125 4.5078125 C-4.38940011 3.44067172 -7.29086301 3.29802782 -11.0625 3.375 C-12.21492188 3.39304687 -13.36734375 3.41109375 -14.5546875 3.4296875 C-15.42351563 3.45289063 -16.29234375 3.47609375 -17.1875 3.5 C-17.5175 5.15 -17.8475 6.8 -18.1875 8.5 C-14.99075344 10.36852088 -12.48924758 10.76756629 -8.8125 10.9375 C-4.05886916 11.28703168 0.28084884 11.96834884 3.8125 15.5 C4.1875 18.25 4.1875 18.25 3.8125 21.5 C1.639865 24.07285724 -0.16743838 25.98996919 -3.1875 27.5 C-10.74138175 28.00947062 -17.5018213 28.32038783 -24.1875 24.5 C-23.5275 22.85 -22.8675 21.2 -22.1875 19.5 C-21.8575 20.16 -21.5275 20.82 -21.1875 21.5 C-15.60849188 24.07492682 -8.84423111 24.64671011 -2.9453125 22.796875 C-0.9213765 21.57993402 -0.9213765 21.57993402 -0.4375 18.875 C-0.355 18.09125 -0.2725 17.3075 -0.1875 16.5 C-1.35667969 16.39042969 -2.52585937 16.28085937 -3.73046875 16.16796875 C-5.27871194 16.00845279 -6.82688558 15.84826086 -8.375 15.6875 C-9.14392578 15.61724609 -9.91285156 15.54699219 -10.70507812 15.47460938 C-15.17803431 14.99467845 -18.58160322 14.42238056 -22.1875 11.5 C-23.3125 8.125 -23.3125 8.125 -23.1875 4.5 C-17.57484606 -2.67172448 -8.20994282 -3.55932081 0 0 Z " fill="#E3E3E3" transform="translate(59.1875,332.5)"/>
<path d="M0 0 C0.73046875 1.84765625 0.73046875 1.84765625 1.1875 4.0625 C1.34605469 4.79597656 1.50460938 5.52945313 1.66796875 6.28515625 C1.77753906 6.85105469 1.88710937 7.41695312 2 8 C1.01 8 0.02 8 -1 8 C-1.33 8.99 -1.66 9.98 -2 11 C-2.66 11 -3.32 11 -4 11 C-4.2475 11.61875 -4.495 12.2375 -4.75 12.875 C-6.24391702 15.41465893 -7.21539622 16.09909878 -10 17 C-12.25 16.625 -12.25 16.625 -14 16 C-12.02 15.67 -10.04 15.34 -8 15 C-8 13.35 -8 11.7 -8 10 C-8.62648437 10.28875 -9.25296875 10.5775 -9.8984375 10.875 C-11.12433594 11.431875 -11.12433594 11.431875 -12.375 12 C-13.18710938 12.37125 -13.99921875 12.7425 -14.8359375 13.125 C-17 14 -17 14 -19 14 C-19 16.64 -19 19.28 -19 22 C-21.99254618 20.59808647 -24.5954611 18.96632511 -27.25 17 C-27.95640625 16.484375 -28.6628125 15.96875 -29.390625 15.4375 C-30.18726563 14.7259375 -30.18726563 14.7259375 -31 14 C-31 13.34 -31 12.68 -31 12 C-27.07316001 10.11771621 -23.14049786 8.24838654 -19.2019043 6.39086914 C-17.86265933 5.75703669 -16.52507553 5.11968193 -15.18920898 4.47875977 C-13.26971508 3.55857163 -11.34462097 2.6511791 -9.41796875 1.74609375 C-8.26063232 1.19622803 -7.1032959 0.6463623 -5.91088867 0.07983398 C-3 -1 -3 -1 0 0 Z " fill="#0782BD" transform="translate(230,195)"/>
<path d="M0 0 C1.98 0 3.96 0 6 0 C8.64 5.28 11.28 10.56 14 16 C14.969375 13.916875 15.93875 11.83375 16.9375 9.6875 C17.48277344 8.51574219 18.02804688 7.34398437 18.58984375 6.13671875 C20.03484939 3.06306938 20.03484939 3.06306938 21 0 C22.98 0 24.96 0 27 0 C27 7.92 27 15.84 27 24 C25.68 23.67 24.36 23.34 23 23 C23 17.06 23 11.12 23 5 C20.03 11.27 17.06 17.54 14 24 C10.00748553 18.67664738 7.73143336 13.06985191 5 7 C4.67 12.61 4.34 18.22 4 24 C2.68 23.67 1.36 23.34 0 23 C0 15.41 0 7.82 0 0 Z " fill="#E0E0E0" transform="translate(220,336)"/>
<path d="M0 0 C1.98 0 3.96 0 6 0 C7.17133058 2.45620851 8.33721722 4.91474917 9.5 7.375 C9.83386719 8.07367188 10.16773437 8.77234375 10.51171875 9.4921875 C13 14.7734375 13 14.7734375 13 17 C13.66 17 14.32 17 15 17 C15.11214844 16.29359375 15.22429687 15.5871875 15.33984375 14.859375 C16.06057926 11.73760938 17.19078326 9.14193843 18.5625 6.25 C20.22250457 3.25488122 20.22250457 3.25488122 21 0 C23.31 0 25.62 0 28 0 C28 7.92 28 15.84 28 24 C26.35 24 24.7 24 23 24 C23 18.06 23 12.12 23 6 C22.44570312 7.21558594 21.89140625 8.43117188 21.3203125 9.68359375 C20.58887194 11.26838164 19.85708306 12.85300881 19.125 14.4375 C18.76019531 15.23994141 18.39539063 16.04238281 18.01953125 16.86914062 C17.66503906 17.63291016 17.31054688 18.39667969 16.9453125 19.18359375 C16.62062988 19.89056396 16.29594727 20.59753418 15.96142578 21.32592773 C15 23 15 23 13 24 C9.04 15.585 9.04 15.585 5 7 C5 12.61 5 18.22 5 24 C3.35 24 1.7 24 0 24 C0 16.08 0 8.16 0 0 Z " fill="#EBEBEB" transform="translate(69,336)"/>
<path d="M0 0 C0.33 0 0.66 0 1 0 C1 3.63 1 7.26 1 11 C1.99 11.33 2.98 11.66 4 12 C3.34 12 2.68 12 2 12 C2.14076315 13.9587043 2.2877676 15.91696093 2.4375 17.875 C2.55931641 19.51082031 2.55931641 19.51082031 2.68359375 21.1796875 C2.83001703 23.94728971 2.83001703 23.94728971 4 26 C3.72057545 27.67654729 3.39171753 29.34608154 3 31 C2.34 31 1.68 31 1 31 C0.9175 32.03125 0.835 33.0625 0.75 34.125 C-0.0720882 38.3724557 -1.20107964 40.72126472 -4 44 C-5.32 44 -6.64 44 -8 44 C-7.86722656 43.14664063 -7.73445313 42.29328125 -7.59765625 41.4140625 C-5.74824806 28.31971251 -5.37192494 15.20787087 -5 2 C-4.01 2 -3.02 2 -2 2 C-2 8.93 -2 15.86 -2 23 C-1.34 23 -0.68 23 0 23 C0 15.41 0 7.82 0 0 Z " fill="#130F09" transform="translate(283,127)"/>
<path d="M0 0 C1.98 0 3.96 0 6 0 C6.30292969 0.81082031 6.60585937 1.62164062 6.91796875 2.45703125 C9.68559965 9.7720926 12.6677849 16.92436028 16 24 C14.35 24 12.7 24 11 24 C10.34 22.35 9.68 20.7 9 19 C5.04 19 1.08 19 -3 19 C-3.99 21.475 -3.99 21.475 -5 24 C-6.32 23.67 -7.64 23.34 -9 23 C-8.72736328 22.37432129 -8.45472656 21.74864258 -8.17382812 21.10400391 C-6.94546157 18.27928577 -5.72266758 15.45218929 -4.5 12.625 C-4.07074219 11.64015625 -3.64148438 10.6553125 -3.19921875 9.640625 C-2.79316406 8.69960938 -2.38710937 7.75859375 -1.96875 6.7890625 C-1.40317383 5.48509521 -1.40317383 5.48509521 -0.82617188 4.15478516 C0.11933353 2.0733827 0.11933353 2.0733827 0 0 Z " fill="#E1E1E1" transform="translate(110,336)"/>
<path d="M0 0 C1.12664062 0.02449219 2.25328125 0.04898437 3.4140625 0.07421875 C6.375 0.3125 6.375 0.3125 9.375 1.3125 C8.715 2.6325 8.055 3.9525 7.375 5.3125 C6.385 4.9825 5.395 4.6525 4.375 4.3125 C2.68954276 4.21962229 1.000507 4.18252796 -0.6875 4.1875 C-1.56535156 4.18492187 -2.44320313 4.18234375 -3.34765625 4.1796875 C-5.65698266 4.16416576 -5.65698266 4.16416576 -7.625 5.3125 C-7.295 6.6325 -6.965 7.9525 -6.625 9.3125 C-5.88894531 9.36148437 -5.15289062 9.41046875 -4.39453125 9.4609375 C-2.93080078 9.57308594 -2.93080078 9.57308594 -1.4375 9.6875 C0.00689453 9.79191406 0.00689453 9.79191406 1.48046875 9.8984375 C4.42127812 10.31912008 6.71514569 10.99910835 9.375 12.3125 C10.81235246 15.18720493 10.75672649 17.13144588 10.375 20.3125 C8.625 22.6875 8.625 22.6875 5.375 24.3125 C-0.84663124 25.00862657 -6.83014848 24.88798956 -12.625 22.3125 C-11.965 20.9925 -11.305 19.6725 -10.625 18.3125 C-10.09390625 18.63992188 -9.5628125 18.96734375 -9.015625 19.3046875 C-5.99805843 20.5767989 -3.63806977 20.5084363 -0.375 20.4375 C1.24148438 20.41042969 1.24148438 20.41042969 2.890625 20.3828125 C3.71046875 20.35960937 4.5303125 20.33640625 5.375 20.3125 C5.705 18.6625 6.035 17.0125 6.375 15.3125 C2.96894526 13.60947263 -0.91724106 13.96470496 -4.6796875 13.7890625 C-7.89219268 13.26926723 -9.33368619 12.59298018 -11.625 10.3125 C-12.1875 7.375 -12.1875 7.375 -11.625 4.3125 C-7.86567562 0.46317338 -5.30357699 -0.1767859 0 0 Z " fill="#E4E4E4" transform="translate(294.625,335.6875)"/>
<path d="M0 0 C2.60444348 -0.05394705 5.20776998 -0.09364469 7.8125 -0.125 C8.55048828 -0.14175781 9.28847656 -0.15851563 10.04882812 -0.17578125 C13.91246426 -0.21074628 15.70903668 -0.19397555 19 2 C19.3125 4.5 19.3125 4.5 19 7 C17 9 17 9 13.0859375 9.1953125 C11.51550649 9.18200376 9.94513779 9.15813602 8.375 9.125 C7.57320313 9.11597656 6.77140625 9.10695313 5.9453125 9.09765625 C3.96341477 9.07406223 1.98167019 9.03819065 0 9 C0 6.03 0 3.06 0 0 Z " fill="#060606" transform="translate(369,335)"/>
<path d="M0 0 C0.33 0 0.66 0 1 0 C1 1.98 1 3.96 1 6 C1.99 6.33 2.98 6.66 4 7 C1.37785672 8.50519387 -1.24744208 10.00431319 -3.875 11.5 C-4.62136719 11.92925781 -5.36773437 12.35851562 -6.13671875 12.80078125 C-6.85214844 13.20683594 -7.56757813 13.61289063 -8.3046875 14.03125 C-8.96452637 14.40830078 -9.62436523 14.78535156 -10.30419922 15.17382812 C-12 16 -12 16 -14 16 C-14 22.93 -14 29.86 -14 37 C-14.99 37 -15.98 37 -17 37 C-19.39989607 17.15347483 -19.39989607 17.15347483 -15.56005859 12.10791016 C-12.45516607 9.62449332 -9.14002381 8.1327217 -5.4765625 6.6484375 C-1.8418444 5.34271916 -1.8418444 5.34271916 -0.5234375 2.2890625 C-0.35070312 1.53367187 -0.17796875 0.77828125 0 0 Z " fill="#B66E25" transform="translate(234,113)"/>
<path d="M0 0 C7.92 0.33 15.84 0.66 24 1 C24 1.99 24 2.98 24 4 C20.7 4 17.4 4 14 4 C14.33 10.93 14.66 17.86 15 25 C13.35 25 11.7 25 10 25 C10.33 18.07 10.66 11.14 11 4 C7.37 4.33 3.74 4.66 0 5 C0 3.35 0 1.7 0 0 Z " fill="#F0F0F0" transform="translate(158,335)"/>
<path d="M0 0 C2.31282587 3.46923881 2.42478586 4.92205575 2 9 C0.9375 10.875 0.9375 10.875 -1 12 C-5.36706908 12.38991688 -7.30513897 12.46324069 -11 10 C-11.54337501 6.42924991 -11.43720456 4.66455094 -9.4375 1.625 C-6.11372447 -0.59085036 -3.91105046 -0.50698802 0 0 Z " fill="#041116" transform="translate(244,145)"/>
<path d="M0 0 C5.59352956 1.15728198 9.51866817 2.41493454 14 6 C14 6.66 14 7.32 14 8 C12.5390625 9.2890625 12.5390625 9.2890625 10.625 10.625 C9.99851562 11.07101563 9.37203125 11.51703125 8.7265625 11.9765625 C7 13 7 13 5 13 C5 13.66 5 14.32 5 15 C4.34 15 3.68 15 3 15 C3.020625 13.9275 3.04125 12.855 3.0625 11.75 C2.43105178 7.95901798 2.43105178 7.95901798 -0.0703125 6.64453125 C-2.35617182 5.65208136 -4.63070647 4.7706187 -7 4 C-3.98968256 3.06576355 -3.13349732 2.95550089 0 4 C0 2.68 0 1.36 0 0 Z " fill="#0DA1D1" transform="translate(288,202)"/>
<path d="M0 0 C2.10388569 -0.05402274 4.20816714 -0.09280256 6.3125 -0.125 C8.07013672 -0.15980469 8.07013672 -0.15980469 9.86328125 -0.1953125 C13 0 13 0 16 2 C15.125 6.875 15.125 6.875 14 8 C11.64686445 8.07271741 9.29166332 8.08370868 6.9375 8.0625 C5.64714844 8.05347656 4.35679687 8.04445313 3.02734375 8.03515625 C2.02832031 8.02355469 1.02929688 8.01195312 0 8 C0 5.36 0 2.72 0 0 Z " fill="#0F0F0F" transform="translate(134,339)"/>
<path d="M0 0 C2.10388569 -0.05402274 4.20816714 -0.09280256 6.3125 -0.125 C8.07013672 -0.15980469 8.07013672 -0.15980469 9.86328125 -0.1953125 C13 0 13 0 16 2 C15.625 4.4375 15.625 4.4375 15 7 C12.11584117 8.44207941 9.58278472 8.09394887 6.375 8.0625 C5.18648438 8.05347656 3.99796875 8.04445313 2.7734375 8.03515625 C1.85820312 8.02355469 0.94296875 8.01195312 0 8 C0 5.36 0 2.72 0 0 Z " fill="#090909" transform="translate(259,339)"/>
<path d="M0 0 C0.82791734 2.9076457 1.16193659 5.54090519 1.1875 8.5625 C1.20167969 9.32691406 1.21585937 10.09132812 1.23046875 10.87890625 C1 13 1 13 -1 16 C-0.67 12.7 -0.34 9.4 0 6 C-0.68707031 6.49371094 -1.37414062 6.98742187 -2.08203125 7.49609375 C-2.98308594 8.13675781 -3.88414062 8.77742187 -4.8125 9.4375 C-5.70582031 10.07558594 -6.59914063 10.71367187 -7.51953125 11.37109375 C-11.72728872 14.13429826 -15.03877033 14.40665817 -20 14 C-23.82037071 12.66907663 -27.1607148 11.46008981 -29.23046875 7.859375 C-29.48441406 7.24578125 -29.73835937 6.6321875 -30 6 C-26.94940789 6.44861649 -24.80979847 7.10117103 -22.0625 8.5625 C-18.48546538 10.24151625 -16.89908325 10.68807351 -13 10 C-8.12002342 7.36838959 -3.68560077 4.16633131 0 0 Z " fill="#07141B" transform="translate(267,183)"/>
<path d="M0 0 C1.9375 1.1875 1.9375 1.1875 3 3 C3.42317323 5.82115488 3.38718434 7.33950907 1.9375 9.8125 C-1.09375543 11.67036623 -3.53422859 11.37133265 -7 11 C-8.9375 9.8125 -8.9375 9.8125 -10 8 C-10.42317323 5.17884512 -10.38718434 3.66049093 -8.9375 1.1875 C-5.90624457 -0.67036623 -3.46577141 -0.37133265 0 0 Z " fill="#606060" transform="translate(167,368)"/>
<path d="M0 0 C0.12375 0.639375 0.2475 1.27875 0.375 1.9375 C0.58125 2.618125 0.7875 3.29875 1 4 C1.66 4.33 2.32 4.66 3 5 C3 4.01 3 3.02 3 2 C3.66 2 4.32 2 5 2 C4.07155455 6.05139833 3.04457908 9.13065216 0.6875 12.5625 C-2.41825732 17.2440398 -4.02864133 22.32791917 -5.7890625 27.6328125 C-6.96793853 30.91084842 -8.38021242 33.91959471 -10 37 C-11.04332142 33.80375731 -10.94012675 31.88974015 -9.9609375 28.69140625 C-9.71230957 27.86737305 -9.46368164 27.04333984 -9.20751953 26.19433594 C-8.79542236 24.89157715 -8.79542236 24.89157715 -8.375 23.5625 C-8.10155762 22.6746582 -7.82811523 21.78681641 -7.54638672 20.87207031 C-5.3314244 13.7898341 -2.82986546 6.86179767 0 0 Z " fill="#0B205D" transform="translate(264,273)"/>
<path d="M0 0 C0.98742187 0.56589844 1.97484375 1.13179688 2.9921875 1.71484375 C4.28644206 2.45575759 5.58071379 3.19664145 6.875 3.9375 C7.52597656 4.31068359 8.17695313 4.68386719 8.84765625 5.06835938 C12.38746834 7.10133078 12.38746834 7.10133078 16 9 C16 16.92 16 24.84 16 33 C15.34 33 14.68 33 14 33 C14 26.07 14 19.14 14 12 C12.35 11.34 10.7 10.68 9 10 C6.71610039 8.81654909 4.44571525 7.60675377 2.1875 6.375 C1.59001953 6.05015625 0.99253906 5.7253125 0.37695312 5.390625 C-1.08337135 4.59620849 -2.54187491 3.79844624 -4 3 C-2.68 2.67 -1.36 2.34 0 2 C0 1.34 0 0.68 0 0 Z " fill="#BD7225" transform="translate(267,117)"/>
<path d="M0 0 C1 1 1 1 1.25 3.875 C1 7 1 7 -0.0625 8.875 C-3.09814371 10.63763183 -5.57798172 10.37331109 -9 10 C-11.29013653 6.5647952 -11.17842973 5.014669 -11 1 C-7.23171528 -1.56243361 -4.32066847 -0.89674251 0 0 Z " fill="#03090B" transform="translate(267,147)"/>
<path d="M0 0 C8.3984375 -0.1953125 8.3984375 -0.1953125 11 0 C11.66 0.66 12.32 1.32 13 2 C12.60467975 4.45098556 11.78698574 6.63904279 11 9 C11.87483915 11.16715557 11.87483915 11.16715557 13 13 C12.01 13 11.02 13 10 13 C9.34 11.02 8.68 9.04 8 7 C6.02 7 4.04 7 2 7 C2 8.98 2 10.96 2 13 C1.34 13 0.68 13 0 13 C0 8.71 0 4.42 0 0 Z " fill="#D5D5D5" transform="translate(226,366)"/>
<path d="M0 0 C3.29680965 0.65784963 5.84117922 1.89420573 8.75 3.5625 C9.94882812 4.24505859 9.94882812 4.24505859 11.171875 4.94140625 C11.77515625 5.29074219 12.3784375 5.64007813 13 6 C12.34 6.66 11.68 7.32 11 8 C11 7.34 11 6.68 11 6 C9.02 6.66 7.04 7.32 5 8 C5 9.98 5 11.96 5 14 C5.99 14.33 6.98 14.66 8 15 C8 15.66 8 16.32 8 17 C4.63577646 15.81797551 2.14953734 14.89937594 0 12 C-0.29296875 9.08203125 -0.29296875 9.08203125 -0.1875 5.8125 C-0.16042969 4.72582031 -0.13335937 3.63914063 -0.10546875 2.51953125 C-0.07066406 1.68808594 -0.03585937 0.85664063 0 0 Z " fill="#EB841F" transform="translate(285,139)"/>
<path d="M0 0 C3.40198926 4.04998722 6 8.63626649 6 14 C2.37 14 -1.26 14 -5 14 C-4.46515599 8.65155992 -2.53309233 4.64203897 0 0 Z " fill="#161616" transform="translate(199,335)"/>
<path d="M0 0 C1.98 0 3.96 0 6 0 C6 7.92 6 15.84 6 24 C4.68 23.67 3.36 23.34 2 23 C2 17.06 2 11.12 2 5 C1.01 5.33 0.02 5.66 -1 6 C-0.67 4.02 -0.34 2.04 0 0 Z " fill="#DBDBDB" transform="translate(241,336)"/>
<path d="M0 0 C7.92 3.96 7.92 3.96 16 8 C16.02712298 11.83338149 16.04689883 15.66656847 16.0625 19.5 C16.07087891 20.57765625 16.07925781 21.6553125 16.08789062 22.765625 C16.10571885 28.61328382 15.89105963 34.21863671 15 40 C14.67 40 14.34 40 14 40 C14 29.77 14 19.54 14 9 C12.68 9.33 11.36 9.66 10 10 C10 9.34 10 8.68 10 8 C8.68 7.34 7.36 6.68 6 6 C6 5.34 6 4.68 6 4 C4.68 4.33 3.36 4.66 2 5 C2 4.01 2 3.02 2 2 C1.34 2 0.68 2 0 2 C0 1.34 0 0.68 0 0 Z " fill="#1297C4" transform="translate(262,123)"/>
<path d="M0 0 C3.57364359 0.57409032 6.28384304 1.49945036 9.42578125 3.28515625 C10.22177734 3.73310547 11.01777344 4.18105469 11.83789062 4.64257812 C12.65451172 5.11115234 13.47113281 5.57972656 14.3125 6.0625 C15.14845703 6.53494141 15.98441406 7.00738281 16.84570312 7.49414062 C18.90069265 8.65667756 20.95187737 9.82542091 23 11 C22.67 11.99 22.34 12.98 22 14 C17.09182829 12.51915193 12.70741477 10.49740404 8.1875 8.125 C7.50751953 7.78597656 6.82753906 7.44695312 6.12695312 7.09765625 C1.16187571 4.49383699 1.16187571 4.49383699 0.30200195 1.87060547 C0.20234131 1.25330566 0.10268066 0.63600586 0 0 Z " fill="#0B1313" transform="translate(256,117)"/>
<path d="M0 0 C1.65 0.33 3.3 0.66 5 1 C4.72740991 7.77386385 3.80946641 12.34724339 0 18 C-0.99 17.67 -1.98 17.34 -3 17 C-2.01 11.39 -1.02 5.78 0 0 Z " fill="#0EA8DA" transform="translate(280,152)"/>
<path d="M0 0 C1.32 0.33 2.64 0.66 4 1 C3.01 1 2.02 1 1 1 C1 19.48 1 37.96 1 57 C2.485 56.505 2.485 56.505 4 56 C3.34 57.98 2.68 59.96 2 62 C1.34 62 0.68 62 0 62 C0 41.54 0 21.08 0 0 Z " fill="#08A9E5" transform="translate(250,214)"/>
<path d="M0 0 C0.99 0 1.98 0 3 0 C3.33808686 2.06172613 3.67027361 4.1244203 4 6.1875 C4.185625 7.33605469 4.37125 8.48460937 4.5625 9.66796875 C4.93489477 12.50415393 5.08596021 15.14719564 5 18 C2.29027105 16.99577333 1.21299626 16.43445086 -0.08203125 13.79296875 C-0.32308594 12.93316406 -0.56414062 12.07335937 -0.8125 11.1875 C-1.19341797 9.90939453 -1.19341797 9.90939453 -1.58203125 8.60546875 C-2.04053986 5.74728889 -1.78822811 3.77088776 -1 1 C-0.67 0.67 -0.34 0.34 0 0 Z " fill="#0D7BAF" transform="translate(218,152)"/>
<path d="M0 0 C3 1 3 1 4.38671875 3.50390625 C4.81597656 4.51324219 5.24523438 5.52257812 5.6875 6.5625 C6.34298828 8.08037109 6.34298828 8.08037109 7.01171875 9.62890625 C7.33785156 10.41136719 7.66398437 11.19382812 8 12 C7.01 12.33 6.02 12.66 5 13 C5 11.68 5 10.36 5 9 C2.36 9 -0.28 9 -3 9 C-3.33 10.32 -3.66 11.64 -4 13 C-4.66 12.67 -5.32 12.34 -6 12 C-4.02 8.04 -2.04 4.08 0 0 Z " fill="#D8D8D8" transform="translate(55,366)"/>
<path d="M0 0 C4.29 0 8.58 0 13 0 C6.55263158 6.63157895 6.55263158 6.63157895 3 9 C0.6875 8.75 0.6875 8.75 -1 8 C-0.67 7.34 -0.34 6.68 0 6 C0 4.02 0 2.04 0 0 Z " fill="#F8891F" transform="translate(238,103)"/>
<path d="M0 0 C2.97 0 5.94 0 9 0 C9.625 2.375 9.625 2.375 10 5 C9.34 5.66 8.68 6.32 8 7 C8.66 8.32 9.32 9.64 10 11 C9.34 11 8.68 11 8 11 C7.34 9.35 6.68 7.7 6 6 C4.35 6 2.7 6 1 6 C1 7.65 1 9.3 1 11 C0.67 11 0.34 11 0 11 C0 7.37 0 3.74 0 0 Z " fill="#ECECEC" transform="translate(188,368)"/>
<path d="M0 0 C7.09629025 -0.31461385 12.68284595 -0.44572039 19 3 C18.34 4.32 17.68 5.64 17 7 C15.95779297 6.52433594 15.95779297 6.52433594 14.89453125 6.0390625 C11.73811356 4.90598948 9.02719833 4.59519989 5.6875 4.375 C4.61886719 4.30023438 3.55023438 4.22546875 2.44921875 4.1484375 C1.64097656 4.09945313 0.83273437 4.05046875 0 4 C0 2.68 0 1.36 0 0 Z " fill="#D6D6D6" transform="translate(445,331)"/>
<path d="M0 0 C0.66 0 1.32 0 2 0 C2 1.65 2 3.3 2 5 C4.97 5 7.94 5 11 5 C11 3.35 11 1.7 11 0 C11.66 0 12.32 0 13 0 C13 4.29 13 8.58 13 13 C12.34 13 11.68 13 11 13 C11 11.02 11 9.04 11 7 C8.03 7 5.06 7 2 7 C2 8.98 2 10.96 2 13 C1.34 13 0.68 13 0 13 C0 8.71 0 4.42 0 0 Z " fill="#DFDFDF" transform="translate(209,366)"/>
<path d="M0 0 C0.66 0 1.32 0 2 0 C2.99 2.31 3.98 4.62 5 7 C5.66 4.69 6.32 2.38 7 0 C7.99 0 8.98 0 10 0 C10.66 1.98 11.32 3.96 12 6 C14.10232344 3.1315587 14.10232344 3.1315587 15 0 C15.66 0.33 16.32 0.66 17 1 C16.01 4.3 15.02 7.6 14 11 C13.01 11 12.02 11 11 11 C10.34 9.02 9.68 7.04 9 5 C8.01 6.98 7.02 8.96 6 11 C5.34 11 4.68 11 4 11 C2.68 7.37 1.36 3.74 0 0 Z " fill="#C4C4C4" transform="translate(248,368)"/>
<path d="M0 0 C3.53790403 3.69172595 3.59115883 7.09390595 4 12 C1.35261084 13.4606285 0.10551666 14 -3 14 C-3.66 11.36 -4.32 8.72 -5 6 C-4.34 6 -3.68 6 -3 6 C-0.8614515 3.8614515 -0.57344937 2.86724686 0 0 Z " fill="#DE991F" transform="translate(314,190)"/>
<path d="M0 0 C4.62 0 9.24 0 14 0 C14 1.98 14 3.96 14 6 C13.34 6 12.68 6 12 6 C11.67 5.01 11.34 4.02 11 3 C11.33 2.67 11.66 2.34 12 2 C11.01 1.67 10.02 1.34 9 1 C9 2.65 9 4.3 9 6 C6.03 6 3.06 6 0 6 C0 4.02 0 2.04 0 0 Z " fill="#6B6B6B" transform="translate(353,395)"/>
<path d="M0 0 C0.33 0 0.66 0 1 0 C1 6.27 1 12.54 1 19 C2.32 19.33 3.64 19.66 5 20 C4.01 20 3.02 20 2 20 C1.93941406 20.64066406 1.87882812 21.28132813 1.81640625 21.94140625 C1.42517591 25.98010711 1.02711441 29.99415434 0.375 34 C-0.27157197 36.91910622 -0.27157197 36.91910622 1 39 C-0.32 39 -1.64 39 -3 39 C-2.86722656 38.11183594 -2.73445313 37.22367188 -2.59765625 36.30859375 C-0.92804409 24.23132621 -0.39380059 12.17900348 0 0 Z " fill="#0C1F25" transform="translate(278,132)"/>
<path d="M0 0 C2.97 0 5.94 0 9 0 C9.38218767 1.65614657 9.71395102 3.32457024 10 5 C9 6 9 6 7.15234375 6.09765625 C5.1015625 6.06510417 3.05078125 6.03255208 1 6 C1 7.65 1 9.3 1 11 C0.67 11 0.34 11 0 11 C0 7.37 0 3.74 0 0 Z " fill="#E9E9E9" transform="translate(82,368)"/>
<path d="M0 0 C3 0 3 0 4.38671875 1.3125 C5.59114583 2.875 6.79557292 4.4375 8 6 C8.33 4.02 8.66 2.04 9 0 C9.66 0 10.32 0 11 0 C11 3.63 11 7.26 11 11 C6.9915966 8.9957983 5.58590343 7.50944037 3 4 C2.67 6.31 2.34 8.62 2 11 C1.34 11 0.68 11 0 11 C0 7.37 0 3.74 0 0 Z " fill="#BCBCBC" transform="translate(412,368)"/>
<path d="M0 0 C3 0 3 0 4.38671875 1.3125 C5.59114583 2.875 6.79557292 4.4375 8 6 C8.33 4.02 8.66 2.04 9 0 C9.66 0 10.32 0 11 0 C11 3.63 11 7.26 11 11 C6.9915966 8.9957983 5.58590343 7.50944037 3 4 C2.67 6.31 2.34 8.62 2 11 C1.34 11 0.68 11 0 11 C0 7.37 0 3.74 0 0 Z " fill="#BCBCBC" transform="translate(314,368)"/>
<path d="M0 0 C2.875 -0.125 2.875 -0.125 6 0 C8 2 8 2 8.1875 4.5625 C8 7 8 7 7 8 C4.66702567 8.04092937 2.33294775 8.04241723 0 8 C0 5.36 0 2.72 0 0 Z " fill="#B7B7B7" transform="translate(407,393)"/>
<path d="M0 0 C2.25 1.375 2.25 1.375 4 3 C4 3.99 4 4.98 4 6 C3.278125 5.649375 2.55625 5.29875 1.8125 4.9375 C-2.95922062 3.34692646 -6.52829326 5.08355425 -11 7 C-11 6.34 -11 5.68 -11 5 C-11.66 4.67 -12.32 4.34 -13 4 C-11.59248779 3.13083113 -10.1735479 2.28014851 -8.75 1.4375 C-7.96109375 0.96183594 -7.1721875 0.48617187 -6.359375 -0.00390625 C-3.64803484 -1.14859456 -2.68681138 -1.07586303 0 0 Z " fill="#0F1411" transform="translate(253,114)"/>
<path d="M0 0 C0.66 0.33 1.32 0.66 2 1 C1.01 3.64 0.02 6.28 -1 9 C-0.39671875 8.84402344 0.2065625 8.68804687 0.828125 8.52734375 C2.02695312 8.23537109 2.02695312 8.23537109 3.25 7.9375 C4.03890625 7.74027344 4.8278125 7.54304688 5.640625 7.33984375 C8.10394822 6.98502733 9.65604132 7.23122456 12 8 C11.33613281 8.19335938 10.67226563 8.38671875 9.98828125 8.5859375 C4.46469965 10.20889054 4.46469965 10.20889054 -0.9375 12.1875 C-3 13 -3 13 -6 13 C-4.58707905 8.1725201 -2.57025846 4.2837641 0 0 Z " fill="#0D4F91" transform="translate(273,287)"/>
<path d="M0 0 C5.77378925 0.4811491 9.95859836 2.18467181 15 5 C11.08455103 6.95772448 7.07994639 6.0199866 3 5 C2.01 5.495 2.01 5.495 1 6 C0.34786708 8.02463255 0.34786708 8.02463255 0 10 C-0.99 10 -1.98 10 -3 10 C-2.01 6.7 -1.02 3.4 0 0 Z " fill="#0DA1D2" transform="translate(271,195)"/>
<path d="M0 0 C0.66 0 1.32 0 2 0 C2.67154933 1.28913487 3.33708859 2.58140204 4 3.875 C4.37125 4.59429687 4.7425 5.31359375 5.125 6.0546875 C6 8 6 8 6 10 C3.03 10 0.06 10 -3 10 C-2.49287967 6.28111761 -1.88391785 3.26545761 0 0 Z " fill="#1C1C1C" transform="translate(112,341)"/>
<path d="M0 0 C0.82791734 2.9076457 1.16193659 5.54090519 1.1875 8.5625 C1.20167969 9.32691406 1.21585937 10.09132812 1.23046875 10.87890625 C1 13 1 13 -1 16 C-0.67 12.7 -0.34 9.4 0 6 C-4.455 8.97 -4.455 8.97 -9 12 C-10.32 11.34 -11.64 10.68 -13 10 C-12.39671875 9.61328125 -11.7934375 9.2265625 -11.171875 8.828125 C-5.17198187 4.92383803 -5.17198187 4.92383803 0 0 Z " fill="#0C2530" transform="translate(267,183)"/>
<path d="M0 0 C0.20674944 5.78898419 -0.40837921 10.42932723 -2 16 C-2.33 16 -2.66 16 -3 16 C-3.33 12.7 -3.66 9.4 -4 6 C-5.32 6 -6.64 6 -8 6 C-8.33 6.99 -8.66 7.98 -9 9 C-8.875 6.75 -8.875 6.75 -8 4 C-2.91891892 0 -2.91891892 0 0 0 Z " fill="#D59225" transform="translate(319,221)"/>
<path d="M0 0 C3.5 0.1875 3.5 0.1875 5.5 1.1875 C5.17 1.8475 4.84 2.5075 4.5 3.1875 C3.55125 3.0225 2.6025 2.8575 1.625 2.6875 C-1.30168901 2.1348365 -1.30168901 2.1348365 -3.5 2.1875 C-3.5 4.1675 -3.5 6.1475 -3.5 8.1875 C0.47754128 8.92084429 0.47754128 8.92084429 4.5 9.1875 C4.5 8.5275 4.5 7.8675 4.5 7.1875 C3.18 7.1875 1.86 7.1875 0.5 7.1875 C0.5 6.5275 0.5 5.8675 0.5 5.1875 C2.48 5.1875 4.46 5.1875 6.5 5.1875 C5.625 10.0625 5.625 10.0625 4.5 11.1875 C-1.96153846 11.54647436 -1.96153846 11.54647436 -5.5 9.1875 C-5.8125 5.6875 -5.8125 5.6875 -5.5 2.1875 C-3.5 0.1875 -3.5 0.1875 0 0 Z " fill="#D4D4D4" transform="translate(389.5,367.8125)"/>
<path d="M0 0 C2.50040308 2.50040308 2.78364454 4.33358691 3.625 7.75 C3.88539063 8.77609375 4.14578125 9.8021875 4.4140625 10.859375 C4.99719376 13.98495856 5.10443764 16.82889349 5 20 C1.90006516 18.45003258 1.51930006 15.96792291 0.25 12.8125 C-0.21921875 11.68457031 -0.6884375 10.55664062 -1.171875 9.39453125 C-2.1272964 5.47820484 -1.60976402 3.63299483 0 0 Z " fill="#0F193B" transform="translate(242,287)"/>
<path d="M0 0 C1.9375 0.8125 1.9375 0.8125 4 2 C4.33 2.99 4.66 3.98 5 5 C4.34 5 3.68 5 3 5 C3 5.66 3 6.32 3 7 C2.01 7.66 1.02 8.32 0 9 C-0.70491267 11.32206525 -1.37212429 13.65593068 -2 16 C-2.66 16.66 -3.32 17.32 -4 18 C-3.67544172 15.99855726 -3.33882656 13.99907671 -3 12 C-2.84273438 11.071875 -2.68546875 10.14375 -2.5234375 9.1875 C-2.35070312 8.1975 -2.17796875 7.2075 -2 6.1875 C-1.835 5.23230469 -1.67 4.27710938 -1.5 3.29296875 C-1 1 -1 1 0 0 Z " fill="#2F6782" transform="translate(327,224)"/>
<path d="M0 0 C0.66 0 1.32 0 2 0 C2 7.92 2 15.84 2 24 C1.34 24 0.68 24 0 24 C0 17.07 0 10.14 0 3 C-0.66 2.67 -1.32 2.34 -2 2 C-1.34 2 -0.68 2 0 2 C0 1.34 0 0.68 0 0 Z " fill="#B37534" transform="translate(281,126)"/>
<path d="M0 0 C3.96 0 7.92 0 12 0 C12 0.66 12 1.32 12 2 C10.35 2 8.7 2 7 2 C7 5.3 7 8.6 7 12 C6.34 12 5.68 12 5 12 C5 9.03 5 6.06 5 3 C3.35 3 1.7 3 0 3 C0 2.01 0 1.02 0 0 Z " fill="#909090" transform="translate(327,367)"/>
<path d="M0 0 C0.66 0 1.32 0 2 0 C2 1.32 2 2.64 2 4 C2.66 4 3.32 4 4 4 C4.66 2.68 5.32 1.36 6 0 C6 4.95 6 9.9 6 15 C6.66 15 7.32 15 8 15 C7.67 16.65 7.34 18.3 7 20 C5.03923574 17.05885361 4.35953774 15.06492275 3.5 11.6875 C2.46724676 7.73472871 1.35526354 3.85728853 0 0 Z " fill="#0A87BC" transform="translate(244,261)"/>
<path d="M0 0 C1.8125 0.5625 1.8125 0.5625 4 2 C5.78686054 5.50990464 7 8.04124604 7 12 C6.34 12 5.68 12 5 12 C4.67 9.36 4.34 6.72 4 4 C3.01 4 2.02 4 1 4 C1 4.66 1 5.32 1 6 C-1.5 7.625 -1.5 7.625 -4 9 C-4.33 8.01 -4.66 7.02 -5 6 C-3.59554165 3.7363436 -1.8032087 1.9791315 0 0 Z " fill="#E17E20" transform="translate(329,187)"/>
<path d="M0 0 C0.33 0 0.66 0 1 0 C1 1.65 1 3.3 1 5 C3.64 5 6.28 5 9 5 C9 3.35 9 1.7 9 0 C9.66 0 10.32 0 11 0 C11 3.63 11 7.26 11 11 C10.34 11 9.68 11 9 11 C9 9.35 9 7.7 9 6 C6.69 6 4.38 6 2 6 C2 7.65 2 9.3 2 11 C1.34 11 0.68 11 0 11 C0 7.37 0 3.74 0 0 Z " fill="#D3D3D3" transform="translate(286,368)"/>
<path d="M0 0 C0.33 0 0.66 0 1 0 C0.67 2.97 0.34 5.94 0 9 C-0.68707031 9.10957031 -1.37414062 9.21914062 -2.08203125 9.33203125 C-2.98308594 9.49058594 -3.88414062 9.64914063 -4.8125 9.8125 C-5.70582031 9.96332031 -6.59914062 10.11414063 -7.51953125 10.26953125 C-10.21678629 11.063841 -11.14560189 11.96740147 -13 14 C-13.66 14 -14.32 14 -15 14 C-14.75 11.625 -14.75 11.625 -14 9 C-10.68015838 6.31858946 -7.08536053 7 -3 7 C-0.64046906 4.64046906 -0.50858587 3.22104383 0 0 Z " fill="#0F91CD" transform="translate(246,149)"/>
<path d="M0 0 C3.3 0 6.6 0 10 0 C10 0.33 10 0.66 10 1 C7.36 1 4.72 1 2 1 C2 2.32 2 3.64 2 5 C3.65 5 5.3 5 7 5 C7 5.33 7 5.66 7 6 C5.35 6 3.7 6 2 6 C2 7.32 2 8.64 2 10 C4.64 10 7.28 10 10 10 C10 10.33 10 10.66 10 11 C6.7 11 3.4 11 0 11 C0 7.37 0 3.74 0 0 Z " fill="#E1E1E1" transform="translate(399,368)"/>
<path d="M0 0 C2.64 0 5.28 0 8 0 C8.5625 1.9375 8.5625 1.9375 9 4 C8 5 8 5 6.15234375 5.09765625 C4.1015625 5.06510417 2.05078125 5.03255208 0 5 C0 3.35 0 1.7 0 0 Z " fill="#2D2D2D" transform="translate(228,367)"/>
<path d="M0 0 C1.60407328 -0.02708567 3.2082785 -0.04643483 4.8125 -0.0625 C5.70582031 -0.07410156 6.59914063 -0.08570313 7.51953125 -0.09765625 C10 0 10 0 13 1 C12.34 2.32 11.68 3.64 11 5 C5.06 4.01 5.06 4.01 -1 3 C-0.67 2.01 -0.34 1.02 0 0 Z " fill="#DDDDDD" transform="translate(291,336)"/>
<path d="M0 0 C2.31 0.66 4.62 1.32 7 2 C7.33 2.66 7.66 3.32 8 4 C6.865625 3.835 5.73125 3.67 4.5625 3.5 C0.18505565 3.43735321 -1.80357147 5.12270776 -5 8 C-6.35147138 9.31494512 -7.69112542 10.64264858 -9 12 C-9.66 11.67 -10.32 11.34 -11 11 C-7.37 7.37 -3.74 3.74 0 0 Z " fill="#0E476C" transform="translate(184,140)"/>
<path d="M0 0 C1.10408203 0.75796875 1.10408203 0.75796875 2.23046875 1.53125 C3.69419922 2.50578125 3.69419922 2.50578125 5.1875 3.5 C6.15042969 4.1496875 7.11335937 4.799375 8.10546875 5.46875 C11.09682792 7.05122341 12.68239856 7.33964475 16 7 C15.67 8.98 15.34 10.96 15 13 C13.53515625 11.73046875 12.0703125 10.4609375 10.60546875 9.19140625 C8.89287029 7.79128769 8.89287029 7.79128769 6 7 C5.67 7.99 5.34 8.98 5 10 C4.731875 9.236875 4.46375 8.47375 4.1875 7.6875 C3.04199033 5.09503074 2.00288478 3.91184456 0 2 C0 1.34 0 0.68 0 0 Z " fill="#0E235D" transform="translate(186,223)"/>
<path d="M0 0 C1.32 0.33 2.64 0.66 4 1 C3.01 1.495 3.01 1.495 2 2 C2.11458693 3.43836751 2.24209116 4.87570966 2.375 6.3125 C2.44460938 7.11300781 2.51421875 7.91351563 2.5859375 8.73828125 C2.89564426 11.27224441 2.89564426 11.27224441 5 14 C5.99 14.33 6.98 14.66 8 15 C8 15.66 8 16.32 8 17 C4.63577646 15.81797551 2.14953734 14.89937594 0 12 C-0.29296875 9.08203125 -0.29296875 9.08203125 -0.1875 5.8125 C-0.16042969 4.72582031 -0.13335937 3.63914063 -0.10546875 2.51953125 C-0.07066406 1.68808594 -0.03585937 0.85664063 0 0 Z " fill="#AA6A28" transform="translate(285,139)"/>
<path d="M0 0 C1.2065625 0.0309375 1.2065625 0.0309375 2.4375 0.0625 C3.0975 1.3825 3.7575 2.7025 4.4375 4.0625 C2.4375 6.0625 2.4375 6.0625 -0.1875 6.1875 C-0.97125 6.14625 -1.755 6.105 -2.5625 6.0625 C-2.94468767 4.40635343 -3.27645102 2.73792976 -3.5625 1.0625 C-2.5625 0.0625 -2.5625 0.0625 0 0 Z " fill="#BEBEBE" transform="translate(337.5625,394.9375)"/>
<path d="M0 0 C1.98 0 3.96 0 6 0 C7.125 3.75 7.125 3.75 6 6 C4.02 6 2.04 6 0 6 C0 4.02 0 2.04 0 0 Z " fill="#7D7D7D" transform="translate(376,395)"/>
<path d="M0 0 C1.98 0 3.96 0 6 0 C6.33 1.32 6.66 2.64 7 4 C5.35 4.33 3.7 4.66 2 5 C2 5.99 2 6.98 2 8 C1.34 8 0.68 8 0 8 C0 5.36 0 2.72 0 0 Z " fill="#A0A0A0" transform="translate(326,393)"/>
<path d="M0 0 C2.88437779 1.29299694 4.87219421 2.65941363 7 5 C7.433125 4.0409375 7.433125 4.0409375 7.875 3.0625 C9 1 9 1 11 0 C9.125 4.875 9.125 4.875 8 6 C7.63239269 8.32817964 7.29758419 10.6618385 7 13 C6.34 13 5.68 13 5 13 C4.731875 11.783125 4.46375 10.56625 4.1875 9.3125 C3.31505639 5.77878956 2.07843061 3.0231718 0 0 Z " fill="#D9D9D9" transform="translate(144,366)"/>
<path d="M0 0 C0.99 0.99 1.98 1.98 3 3 C1.36041242 8.23272633 -0.38952035 13.15196636 -3 18 C-4.63129887 13.93714243 -3.29968777 10.79897816 -2.0625 6.75 C-1.68222656 5.48671875 -1.30195313 4.2234375 -0.91015625 2.921875 C-0.60980469 1.95765625 -0.30945313 0.9934375 0 0 Z " fill="#151B36" transform="translate(257,292)"/>
<path d="M0 0 C0.66 0.66 1.32 1.32 2 2 C0.02 5.63 -1.96 9.26 -4 13 C-4.99 13 -5.98 13 -7 13 C-5.69045524 8.76916309 -4.16145284 4.872603 -2 1 C-1.34 0.67 -0.68 0.34 0 0 Z " fill="#DFDFDF" transform="translate(91,339)"/>
<path d="M0 0 C0.99 0.33 1.98 0.66 3 1 C2.34 3.31 1.68 5.62 1 8 C-0.65 8 -2.3 8 -4 8 C-3.67 6.35 -3.34 4.7 -3 3 C-2.34 3 -1.68 3 -1 3 C-0.67 2.01 -0.34 1.02 0 0 Z " fill="#0F6EA3" transform="translate(319,282)"/>
<path d="M0 0 C1.98 0 3.96 0 6 0 C6 1.98 6 3.96 6 6 C4.02 6 2.04 6 0 6 C0 4.02 0 2.04 0 0 Z " fill="#A1A1A1" transform="translate(388,395)"/>
<path d="M0 0 C1.20628008 2.33214148 2.1654738 4.49642139 3 7 C-0.96 8.98 -0.96 8.98 -5 11 C-3.77472971 6.94718288 -2.30119506 3.55639236 0 0 Z " fill="#C68B25" transform="translate(286,266)"/>
<path d="M0 0 C3.3 0 6.6 0 10 0 C10 0.33 10 0.66 10 1 C7.36 1 4.72 1 2 1 C2 2.32 2 3.64 2 5 C3.65 5 5.3 5 7 5 C7 5.33 7 5.66 7 6 C5.35 6 3.7 6 2 6 C2 7.65 2 9.3 2 11 C1.34 11 0.68 11 0 11 C0 7.37 0 3.74 0 0 Z " fill="#DADADA" transform="translate(113,368)"/>
<path d="M0 0 C-1.09351553 3.17119503 -2.0126988 4.00783543 -4.9375 5.8125 C-8 7 -8 7 -11 6 C-5.2 0 -5.2 0 0 0 Z " fill="#0C0B09" transform="translate(242,119)"/>
<path d="M0 0 C0 2.64 0 5.28 0 8 C-2.88437779 6.70700306 -4.87219421 5.34058637 -7 3 C-3.375 0 -3.375 0 0 0 Z " fill="#0C73A1" transform="translate(211,209)"/>
<path d="M0 0 C1.32 0 2.64 0 4 0 C4 1.65 4 3.3 4 5 C1.03 4.67 -1.94 4.34 -5 4 C-5.33 5.32 -5.66 6.64 -6 8 C-6.33 6.35 -6.66 4.7 -7 3 C-2.25 1.875 -2.25 1.875 0 3 C0 2.01 0 1.02 0 0 Z " fill="#07AFE5" transform="translate(284,201)"/>
<path d="M0 0 C0.99 0.33 1.98 0.66 3 1 C4.1875 4.0625 4.1875 4.0625 5 7 C5.66 7 6.32 7 7 7 C7.33 6.34 7.66 5.68 8 5 C7.67 6.32 7.34 7.64 7 9 C6.01 9 5.02 9 4 9 C3.34 7.35 2.68 5.7 2 4 C1.67 6.31 1.34 8.62 1 11 C0.67 11 0.34 11 0 11 C0 7.37 0 3.74 0 0 Z " fill="#D5D5D5" transform="translate(66,368)"/>
<path d="M0 0 C3.65316671 1.24976756 4.78065836 1.67098753 7 5 C5.68 5 4.36 5 3 5 C3 7.97 3 10.94 3 14 C2.34 13.67 1.68 13.34 1 13 C0.5859375 10.05859375 0.5859375 10.05859375 0.375 6.4375 C0.30023438 5.23996094 0.22546875 4.04242188 0.1484375 2.80859375 C0.09945312 1.88175781 0.05046875 0.95492187 0 0 Z " fill="#1292BC" transform="translate(182,223)"/>
<path d="M0 0 C2.475 0.99 2.475 0.99 5 2 C3.68 2.33 2.36 2.66 1 3 C1.12375 4.258125 1.2475 5.51625 1.375 6.8125 C1.44460937 7.52019531 1.51421875 8.22789062 1.5859375 8.95703125 C1.92665391 11.29988142 1.92665391 11.29988142 4 14 C3.01 14 2.02 14 1 14 C1 15.65 1 17.3 1 19 C0.67 19 0.34 19 0 19 C0 12.73 0 6.46 0 0 Z " fill="#102646" transform="translate(181,209)"/>
<path d="M0 0 C0.33 0.66 0.66 1.32 1 2 C1.66 2 2.32 2 3 2 C3 1.34 3 0.68 3 0 C5 0 7 0 9 0 C8.34 1.98 7.68 3.96 7 6 C6.34 6 5.68 6 5 6 C5 5.01 5 4.02 5 3 C4.34 3 3.68 3 3 3 C3 3.99 3 4.98 3 6 C2.34 6 1.68 6 1 6 C0.67 4.02 0.34 2.04 0 0 Z " fill="#B4B4B4" transform="translate(343,395)"/>
<path d="M0 0 C0.66 0.33 1.32 0.66 2 1 C-2.29 5.29 -6.58 9.58 -11 14 C-11.66 13.67 -12.32 13.34 -13 13 C-8.66666667 8.66666667 -4.33333333 4.33333333 0 0 Z " fill="#081822" transform="translate(203,157)"/>
<path d="M0 0 C0.66 0 1.32 0 2 0 C2.375 2.25 2.375 2.25 2 5 C-1 7.3125 -1 7.3125 -4 9 C-4.33 8.01 -4.66 7.02 -5 6 C-2.6875 2.8125 -2.6875 2.8125 0 0 Z " fill="#0B95D4" transform="translate(248,226)"/>
<path d="M0 0 C0.33 0.99 0.66 1.98 1 3 C1.66 3 2.32 3 3 3 C3 6.3 3 9.6 3 13 C3.66 13 4.32 13 5 13 C5 14.65 5 16.3 5 18 C0.26056345 12.39884772 -0.24322543 7.05353749 0 0 Z " fill="#0D7FB6" transform="translate(224,157)"/>
<path d="M0 0 C0.99 0.66 1.98 1.32 3 2 C2.67 2.66 2.34 3.32 2 4 C0.68 4 -0.64 4 -2 4 C-2.66 5.65 -3.32 7.3 -4 9 C-4.99 8.67 -5.98 8.34 -7 8 C-6.1875 6.0625 -6.1875 6.0625 -5 4 C-4.01 3.67 -3.02 3.34 -2 3 C-2 2.34 -2 1.68 -2 1 C-1.34 0.67 -0.68 0.34 0 0 Z " fill="#0F6CA7" transform="translate(193,156)"/>
<path d="M0 0 C2.31 0 4.62 0 7 0 C7 1.32 7 2.64 7 4 C4.69 4 2.38 4 0 4 C0 2.68 0 1.36 0 0 Z " fill="#2C2C2C" transform="translate(189,369)"/>
<path d="M0 0 C0.99 0 1.98 0 3 0 C3 3.63 3 7.26 3 11 C2.34 11 1.68 11 1 11 C0.7834375 9.6078125 0.7834375 9.6078125 0.5625 8.1875 C0.07899889 4.99274889 0.07899889 4.99274889 -1 2 C-0.67 1.34 -0.34 0.68 0 0 Z " fill="#BABABA" transform="translate(75,368)"/>
<path d="M0 0 C0.99 0.33 1.98 0.66 3 1 C3.1875 3.375 3.1875 3.375 3 6 C2.01 6.66 1.02 7.32 0 8 C-0.66 7.67 -1.32 7.34 -2 7 C-2.125 4.625 -2.125 4.625 -2 2 C-1.34 1.34 -0.68 0.68 0 0 Z " fill="#F8A318" transform="translate(311,189)"/>
<path d="M0 0 C4.62 2.31 9.24 4.62 14 7 C10.37673261 8.2077558 9.35853631 7.54311128 6 6 C6 5.34 6 4.68 6 4 C4.68 4.33 3.36 4.66 2 5 C2 4.01 2 3.02 2 2 C1.34 2 0.68 2 0 2 C0 1.34 0 0.68 0 0 Z " fill="#13A3D2" transform="translate(262,123)"/>
<path d="M0 0 C2.31 0 4.62 0 7 0 C5.99796679 3.00609963 5.39971554 4.06176821 3 6 C2.01 6 1.02 6 0 6 C0 4.02 0 2.04 0 0 Z " fill="#F48417" transform="translate(238,103)"/>
<path d="M0 0 C1.98 0 3.96 0 6 0 C6 3 6 3 5 6 C3.35 6 1.7 6 0 6 C0 4.02 0 2.04 0 0 Z " fill="#A4A4A4" transform="translate(462,395)"/>
<path d="M0 0 C2.31 0 4.62 0 7 0 C7 1.32 7 2.64 7 4 C4.69 4 2.38 4 0 4 C0 2.68 0 1.36 0 0 Z " fill="#262626" transform="translate(83,369)"/>
<path d="M0 0 C0 0.66 0 1.32 0 2 C-1.98 2.99 -3.96 3.98 -6 5 C-5.67 6.32 -5.34 7.64 -5 9 C-6.9375 8.1875 -6.9375 8.1875 -9 7 C-9.33 6.01 -9.66 5.02 -10 4 C-8.71086513 3.32845067 -7.41859796 2.66291141 -6.125 2 C-5.40570313 1.62875 -4.68640625 1.2575 -3.9453125 0.875 C-2 0 -2 0 0 0 Z " fill="#106C96" transform="translate(209,203)"/>
<path d="M0 0 C0.33 0 0.66 0 1 0 C1 5.94 1 11.88 1 18 C0.67 18 0.34 18 0 18 C-0.33 14.04 -0.66 10.08 -1 6 C-1.99 6.495 -1.99 6.495 -3 7 C-1.125 1.125 -1.125 1.125 0 0 Z " fill="#252525" transform="translate(92,341)"/>
<path d="M0 0 C0.99 0.33 1.98 0.66 3 1 C-0.3 3.97 -3.6 6.94 -7 10 C-7.33 9.01 -7.66 8.02 -8 7 C-7.34 6.34 -6.68 5.68 -6 5 C-5.01 5 -4.02 5 -3 5 C-2.67 4.01 -2.34 3.02 -2 2 C-1.34 2 -0.68 2 0 2 C0 1.34 0 0.68 0 0 Z " fill="#DA9B2B" transform="translate(298,262)"/>
<path d="M0 0 C3.50281042 4.67041389 3.5344992 6.41399038 4 12 C3.01 12 2.02 12 1 12 C0.67 8.04 0.34 4.08 0 0 Z " fill="#AA7621" transform="translate(314,190)"/>
<path d="M0 0 C0.66 0.33 1.32 0.66 2 1 C0.9024777 3.99324263 0.32317108 4.84610901 -2.625 6.25 C-3.40875 6.4975 -4.1925 6.745 -5 7 C-5 6.34 -5 5.68 -5 5 C-5.66 4.67 -6.32 4.34 -7 4 C-1.7265625 0.77734375 -1.7265625 0.77734375 0 0 Z " fill="#21190F" transform="translate(247,114)"/>
<path d="M0 0 C0.66 0.33 1.32 0.66 2 1 C-1.63 4.63 -5.26 8.26 -9 12 C-9.66 11.67 -10.32 11.34 -11 11 C-7.81316569 6.66590534 -4.13621084 3.3810038 0 0 Z " fill="#0A2129" transform="translate(285,221)"/>
<path d="M0 0 C0.66 0.66 1.32 1.32 2 2 C0.12050295 5.57104439 -1.17053157 7.54744301 -5 9 C-3.90931332 5.22454612 -3.0916909 2.52956528 0 0 Z " fill="#E1E1E1" transform="translate(196,337)"/>
<path d="M0 0 C1.485 0.99 1.485 0.99 3 2 C2.40138258 4.35171131 1.73075648 6.6859378 1 9 C0.01 9.495 0.01 9.495 -1 10 C-1.125 2.25 -1.125 2.25 0 0 Z " fill="#0D1F55" transform="translate(259,286)"/>
<path d="M0 0 C0.99 0.99 1.98 1.98 3 3 C2.34 3 1.68 3 1 3 C1 3.99 1 4.98 1 6 C-1.31 6 -3.62 6 -6 6 C-4 4 -2 2 0 0 Z " fill="#0F6AA5" transform="translate(196,279)"/>
<path d="M0 0 C0.33 0 0.66 0 1 0 C1.06058594 0.77085937 1.12117188 1.54171875 1.18359375 2.3359375 C1.26738281 3.33882812 1.35117187 4.34171875 1.4375 5.375 C1.55931641 6.87160156 1.55931641 6.87160156 1.68359375 8.3984375 C1.84965626 10.97927613 1.84965626 10.97927613 3 13 C2.72057545 14.67654729 2.39171753 16.34608154 2 18 C1.67 18 1.34 18 1 18 C-0.76358359 13.03992116 -1.10057496 9.492459 -0.5 4.3125 C-0.4071875 3.50425781 -0.314375 2.69601563 -0.21875 1.86328125 C-0.1465625 1.24839844 -0.074375 0.63351563 0 0 Z " fill="#050809" transform="translate(284,140)"/>
<path d="M0 0 C1 3 1 3 -0.4375 6.1875 C-1.2109375 7.5796875 -1.2109375 7.5796875 -2 9 C-2.99 9 -3.98 9 -5 9 C-3.90931332 5.22454612 -3.0916909 2.52956528 0 0 Z " fill="#E5E5E5" transform="translate(241,341)"/>
<path d="M0 0 C-2.52956528 3.0916909 -5.22454612 3.90931332 -9 5 C-9 4.01 -9 3.02 -9 2 C-5.5647952 -0.29013653 -4.014669 -0.17842973 0 0 Z " fill="#126499" transform="translate(196,285)"/>
<path d="M0 0 C0.33 0 0.66 0 1 0 C1.19139889 5.45486849 0.87720194 9.78555016 -1 15 C-1.66 15.66 -2.32 16.32 -3 17 C-2.0787571 11.31900211 -1.03745006 5.66064984 0 0 Z " fill="#165479" transform="translate(326,225)"/>
<path d="M0 0 C0.66 0 1.32 0 2 0 C4.1519437 3.22791555 4.20086443 4.28400809 4 8 C2.68 7.34 1.36 6.68 0 6 C0 4.02 0 2.04 0 0 Z " fill="#117BB0" transform="translate(219,162)"/>
<path d="M0 0 C0.33 0 0.66 0 1 0 C1 1.98 1 3.96 1 6 C1.99 6.33 2.98 6.66 4 7 C2.02 7.99 2.02 7.99 0 9 C0 8.34 0 7.68 0 7 C-1.65 7.33 -3.3 7.66 -5 8 C-4.360625 7.236875 -3.72125 6.47375 -3.0625 5.6875 C-0.85767219 3.11753287 -0.85767219 3.11753287 0 0 Z " fill="#BE7022" transform="translate(234,113)"/>
<path d="M0 0 C0.99 0.33 1.98 0.66 3 1 C4.1875 3.5625 4.1875 3.5625 5 6 C2.69 6 0.38 6 -2 6 C-1.34 4.02 -0.68 2.04 0 0 Z " fill="#A9A9A9" transform="translate(432,395)"/>
<path d="M0 0 C0.99 0.33 1.98 0.66 3 1 C4.1875 3.5625 4.1875 3.5625 5 6 C2.69 6 0.38 6 -2 6 C-1.34 4.02 -0.68 2.04 0 0 Z " fill="#ADADAD" transform="translate(418,395)"/>
<path d="M0 0 C0.99 0 1.98 0 3 0 C3.33 1.65 3.66 3.3 4 5 C3.01 5.66 2.02 6.32 1 7 C-1 4 -1 4 -0.625 1.8125 C-0.41875 1.214375 -0.2125 0.61625 0 0 Z " fill="#F9A319" transform="translate(312,227)"/>
<path d="M0 0 C0 0.66 0 1.32 0 2 C-6.45 6.09326923 -6.45 6.09326923 -9.234375 5.62109375 C-9.81703125 5.41613281 -10.3996875 5.21117187 -11 5 C-9.54462432 4.16151196 -8.08559627 3.32936066 -6.625 2.5 C-5.81289062 2.0359375 -5.00078125 1.571875 -4.1640625 1.09375 C-2 0 -2 0 0 0 Z " fill="#0E78A6" transform="translate(240,123)"/>
<path d="M0 0 C1.98 0 3.96 0 6 0 C5.01 1.485 5.01 1.485 4 3 C3.34 3 2.68 3 2 3 C2 3.66 2 4.32 2 5 C3.32 5.33 4.64 5.66 6 6 C4.02 6 2.04 6 0 6 C0 4.02 0 2.04 0 0 Z " fill="#C3C3C3" transform="translate(353,395)"/>
<path d="M0 0 C1.65 0 3.3 0 5 0 C4.01 0.495 4.01 0.495 3 1 C2.26924352 3.3140622 1.59861742 5.64828869 1 8 C0.01 7.67 -0.98 7.34 -2 7 C-1.34 4.69 -0.68 2.38 0 0 Z " fill="#D2D2D2" transform="translate(109,340)"/>
<path d="M0 0 C4.29 0.99 8.58 1.98 13 3 C13 3.33 13 3.66 13 4 C9.20659419 4.99351105 7.39038559 5.15468108 3.6875 3.6875 C1 2 1 2 0 0 Z " fill="#032E77" transform="translate(214,294)"/>
<path d="M0 0 C2.30903272 3.98352209 1.86516528 6.50114053 1 11 C0.01 11 -0.98 11 -2 11 C-3 9 -3 9 -2.44140625 6.8359375 C-2.15136719 6.02382812 -1.86132812 5.21171875 -1.5625 4.375 C-1.27503906 3.55773437 -0.98757813 2.74046875 -0.69140625 1.8984375 C-0.46324219 1.27195313 -0.23507812 0.64546875 0 0 Z " fill="#1A2422" transform="translate(284,158)"/>
<path d="M0 0 C0.66 0 1.32 0 2 0 C2.66 1.98 3.32 3.96 4 6 C2.02 6 0.04 6 -2 6 C-1.34 4.02 -0.68 2.04 0 0 Z " fill="#B3B3B3" transform="translate(440,395)"/>
<path d="M0 0 C1.98 0 3.96 0 6 0 C5.67 1.65 5.34 3.3 5 5 C4.01 5.33 3.02 5.66 2 6 C2 5.34 2 4.68 2 4 C2.66 4 3.32 4 4 4 C4 3.34 4 2.68 4 2 C2.68 2 1.36 2 0 2 C0 1.34 0 0.68 0 0 Z " fill="#A1A1A1" transform="translate(390,373)"/>
<path d="M0 0 C0.66 0.33 1.32 0.66 2 1 C0.6875 4.4375 0.6875 4.4375 -1 8 C-1.99 8.33 -2.98 8.66 -4 9 C-2.94124926 5.59687262 -1.99097846 2.98646769 0 0 Z " fill="#0E4974" transform="translate(273,287)"/>
<path d="M0 0 C0.33 0.99 0.66 1.98 1 3 C3.01508358 3.73323796 3.01508358 3.73323796 5 4 C1.59068103 5.13643966 0.99664544 4.86747764 -2.1875 3.5625 C-2.90292969 3.27503906 -3.61835938 2.98757813 -4.35546875 2.69140625 C-4.89816406 2.46324219 -5.44085938 2.23507812 -6 2 C-6 1.67 -6 1.34 -6 1 C-4.02 0.67 -2.04 0.34 0 0 Z " fill="#105275" transform="translate(314,287)"/>
<path d="M0 0 C1.33855056 0.78281305 2.67073644 1.57651877 4 2.375 C5.11375 3.03628906 5.11375 3.03628906 6.25 3.7109375 C6.8275 4.13632813 7.405 4.56171875 8 5 C8 5.66 8 6.32 8 7 C7.34 7 6.68 7 6 7 C5.67 7.99 5.34 8.98 5 10 C4.731875 9.236875 4.46375 8.47375 4.1875 7.6875 C3.04199033 5.09503074 2.00288478 3.91184456 0 2 C0 1.34 0 0.68 0 0 Z " fill="#0A1F30" transform="translate(186,223)"/>
<path d="M0 0 C0.33 0 0.66 0 1 0 C1.125 6.625 1.125 6.625 0 10 C0.66 10 1.32 10 2 10 C1.67 10.99 1.34 11.98 1 13 C0.01 12.67 -0.98 12.34 -2 12 C-1.34 8.04 -0.68 4.08 0 0 Z " fill="#168FB6" transform="translate(279,157)"/>
<path d="M0 0 C0.33 0 0.66 0 1 0 C0.67 2.97 0.34 5.94 0 9 C-2.97 9 -5.94 9 -9 9 C-9 8.67 -9 8.34 -9 8 C-7.88625 7.79375 -6.7725 7.5875 -5.625 7.375 C-1.73400805 6.38371699 -1.73400805 6.38371699 -0.5625 2.875 C-0.376875 1.92625 -0.19125 0.9775 0 0 Z " fill="#11709B" transform="translate(246,149)"/>
<path d="M0 0 C2.31 0.33 4.62 0.66 7 1 C7 1.99 7 2.98 7 4 C2.25 3.125 2.25 3.125 0 2 C0 1.34 0 0.68 0 0 Z " fill="#CF7920" transform="translate(274,124)"/>
<path d="M0 0 C1.32 0 2.64 0 4 0 C4 1.65 4 3.3 4 5 C2.68 5 1.36 5 0 5 C0 3.35 0 1.7 0 0 Z " fill="#0E0E0E" transform="translate(409,395)"/>
<path d="M0 0 C1.5 1.3125 1.5 1.3125 3 3 C3 3.99 3 4.98 3 6 C1.35 6 -0.3 6 -2 6 C-1.34 4.02 -0.68 2.04 0 0 Z " fill="#282828" transform="translate(55,368)"/>
<path d="M0 0 C1.32 0.66 2.64 1.32 4 2 C2.35 3.32 0.7 4.64 -1 6 C-1.625 4.125 -1.625 4.125 -2 2 C-1.34 1.34 -0.68 0.68 0 0 Z " fill="#106FA7" transform="translate(328,231)"/>
<path d="M0 0 C0.33 0.99 0.66 1.98 1 3 C-1.64 3.33 -4.28 3.66 -7 4 C-7.33 3.34 -7.66 2.68 -8 2 C-5.36 1.34 -2.72 0.68 0 0 Z " fill="#030709" transform="translate(256,193)"/>
<path d="M0 0 C0.66 0 1.32 0 2 0 C2 1.65 2 3.3 2 5 C2.99 5 3.98 5 5 5 C4.67 6.65 4.34 8.3 4 10 C1.16625119 6.79663178 0.4794463 4.21912747 0 0 Z " fill="#118AB2" transform="translate(185,237)"/>
<path d="M0 0 C0.99 0.66 1.98 1.32 3 2 C2.67 2.66 2.34 3.32 2 4 C1.01 4.33 0.02 4.66 -1 5 C-1.66 5.66 -2.32 6.32 -3 7 C-3.33 6.01 -3.66 5.02 -4 4 C-2.68 2.68 -1.36 1.36 0 0 Z " fill="#15327B" transform="translate(204,229)"/>
<path d="M0 0 C1.48199902 0.44909061 2.96055236 0.90956564 4.4375 1.375 C5.26121094 1.63023437 6.08492188 1.88546875 6.93359375 2.1484375 C9 3 9 3 10 5 C7.36 5 4.72 5 2 5 C1.34 3.35 0.68 1.7 0 0 Z " fill="#189AC3" transform="translate(276,196)"/>
<path d="M0 0 C0.33 0.66 0.66 1.32 1 2 C-0.25 5.0625 -0.25 5.0625 -2 8 C-2.99 8.33 -3.98 8.66 -5 9 C-3.7508258 5.54074837 -2.32472205 2.85306797 0 0 Z " fill="#BC8324" transform="translate(194,177)"/>
<path d="M0 0 C0 3.83617123 -0.26759763 7.53519527 -2 11 C-3.32789969 8.8128711 -4.04752686 7.52279544 -3.8125 4.9375 C-2.89199398 2.74244718 -1.78403777 1.55133719 0 0 Z " fill="#104365" transform="translate(170,154)"/>
<path d="M0 0 C0.99 0.66 1.98 1.32 3 2 C3 2.99 3 3.98 3 5 C-1.75 4.25 -1.75 4.25 -4 2 C-2.68 2 -1.36 2 0 2 C0 1.34 0 0.68 0 0 Z " fill="#CB7722" transform="translate(267,117)"/>
<path d="M0 0 C1 2 1 2 0.875 4.5 C0 7 0 7 -2.5625 8.3125 C-3.7690625 8.6528125 -3.7690625 8.6528125 -5 9 C-3.35 6.03 -1.7 3.06 0 0 Z " fill="#0F4F73" transform="translate(318,251)"/>
<path d="M0 0 C0.66 0.33 1.32 0.66 2 1 C2 3.64 2 6.28 2 9 C1.34 9 0.68 9 0 9 C-1.10844919 5.67465243 -0.84454356 3.37817425 0 0 Z " fill="#1495BD" transform="translate(285,212)"/>
<path d="M0 0 C0.99 0.99 1.98 1.98 3 3 C2.34 3 1.68 3 1 3 C0.67 3.66 0.34 4.32 0 5 C-0.99 5.33 -1.98 5.66 -3 6 C-2.42655063 3.13275314 -2.1385485 2.1385485 0 0 Z " fill="#0BBDF8" transform="translate(276,199)"/>
<path d="M0 0 C0.33 0 0.66 0 1 0 C1.66 2.97 2.32 5.94 3 9 C2.01 9.33 1.02 9.66 0 10 C-0.74926071 6.33694766 -1.2380014 3.57644848 0 0 Z " fill="#0C181D" transform="translate(216,158)"/>
<path d="M0 0 C1.32 0 2.64 0 4 0 C3.67 1.32 3.34 2.64 3 4 C1.68 3.67 0.36 3.34 -1 3 C-0.67 2.01 -0.34 1.02 0 0 Z " fill="#0C0C0C" transform="translate(336,396)"/>
<path d="M0 0 C3 3.75 3 3.75 3 6 C0.5625 5.625 0.5625 5.625 -2 5 C-2.33 4.34 -2.66 3.68 -3 3 C-2.01 3 -1.02 3 0 3 C0 2.01 0 1.02 0 0 Z " fill="#167693" transform="translate(217,270)"/>
<path d="M0 0 C0 2.64 0 5.28 0 8 C-0.33 8 -0.66 8 -1 8 C-1 6.35 -1 4.7 -1 3 C-2.65 3.33 -4.3 3.66 -6 4 C-2.25 0 -2.25 0 0 0 Z " fill="#BF8B3A" transform="translate(319,221)"/>
<path d="M0 0 C2.5654594 2.5654594 2.54046087 4.47686668 3 8 C1.68 8 0.36 8 -1 8 C-0.67 5.36 -0.34 2.72 0 0 Z " fill="#10323D" transform="translate(276,163)"/>
<path d="M0 0 C0.99 0 1.98 0 3 0 C2.67 1.32 2.34 2.64 2 4 C1.34 4 0.68 4 0 4 C-0.66 4.66 -1.32 5.32 -2 6 C-1.125 1.125 -1.125 1.125 0 0 Z " fill="#156B90" transform="translate(218,152)"/>
<path d="M0 0 C2.75 0.25 2.75 0.25 5 1 C1.81237635 3.12508244 -0.26512223 3.5020163 -4 4 C-2.3125 1.9375 -2.3125 1.9375 0 0 Z " fill="#0F729D" transform="translate(248,117)"/>
</svg>
