<?xml version="1.0" encoding="UTF-8"?>
<svg version="1.1" xmlns="http://www.w3.org/2000/svg" width="500" height="500">
<path d="M0 0 C165 0 330 0 500 0 C500 165 500 330 500 500 C335 500 170 500 0 500 C0 335 0 170 0 0 Z " fill="#F8F8F8" transform="translate(0,0)"/>
<path d="M0 0 C8.25 0 16.5 0 25 0 C25.639375 2.35125 26.27875 4.7025 26.9375 7.125 C28.49113285 12.18239859 29.82182187 15.70134337 34.4375 18.6875 C37.01919469 20.03145913 39.57770341 21.24422671 42.26171875 22.37890625 C45.51358421 25.49160486 45.43214103 26.29526983 45.5859375 30.640625 C45.54610822 32.84451185 45.47462619 35.04800585 45.375 37.25 C45.33439453 38.93996094 45.33439453 38.93996094 45.29296875 40.6640625 C45.22227604 43.44464237 45.1236504 46.22135359 45 49 C45.99 49.33 46.98 49.66 48 50 C48 46.04 48 42.08 48 38 C53 39 53 39 56.25 41.125 C60.56816501 43.72154367 64.23809716 43.10559719 69 42 C71.00382009 41.34490497 73.00458132 40.68025637 75 40 C78.14131112 39.63163363 79.51809004 39.6635081 82.14404297 41.49707031 C83.18262451 42.52719238 83.18262451 42.52719238 84.2421875 43.578125 C84.99757813 44.32707031 85.75296875 45.07601562 86.53125 45.84765625 C87.3046875 46.64042969 88.078125 47.43320313 88.875 48.25 C89.67164063 49.02730469 90.46828125 49.80460937 91.2890625 50.60546875 C92.03671875 51.35957031 92.784375 52.11367187 93.5546875 52.890625 C94.24030762 53.58188477 94.92592773 54.27314453 95.63232422 54.98535156 C97 57 97 57 96.80566406 59.09521484 C95.30279445 62.64836295 93.18775818 65.86334491 91.1796875 69.1484375 C89.72658109 72.66091326 89.9768437 74.37331921 91 78 C92.0881878 80.4732597 92.0881878 80.4732597 93.4375 82.8125 C95.90723132 87.51641023 97.07400147 91.78073555 98 97 C98.54269531 97.1340625 99.08539063 97.268125 99.64453125 97.40625 C102.33133811 98.08352138 105.01043204 98.78516209 107.6875 99.5 C108.66074219 99.7578125 109.63398438 100.015625 110.63671875 100.28125 C113 101 113 101 114 102 C114.08748207 103.92667507 114.10697334 105.85651861 114.09765625 107.78515625 C114.09443359 108.95498047 114.09121094 110.12480469 114.08789062 111.33007812 C114.07951172 112.56177734 114.07113281 113.79347656 114.0625 115.0625 C114.05798828 116.29806641 114.05347656 117.53363281 114.04882812 118.80664062 C114.03699608 121.87114117 114.02051173 124.93554721 114 128 C112.91460937 128.16371094 111.82921875 128.32742187 110.7109375 128.49609375 C102.76663237 129.9481957 102.76663237 129.9481957 96.66943359 134.79248047 C94.27764263 139.6065959 93.01429516 144.74478409 92 150 C91.73058594 151.2065625 91.46117187 152.413125 91.18359375 153.65625 C90.95884146 157.74961093 91.94802417 159.61648775 94 163.125 C97.05367767 168.3735085 97.05367767 168.3735085 96.79199219 171.42773438 C95.35278512 176.10205178 91.65381214 179.001151 88.25 182.375 C87.17492187 183.49841797 87.17492187 183.49841797 86.078125 184.64453125 C85.376875 185.34707031 84.675625 186.04960937 83.953125 186.7734375 C83.31536133 187.41716309 82.67759766 188.06088867 82.02050781 188.72412109 C80 190 80 190 77.37963867 189.7487793 C74.55750582 188.86076437 71.87658722 187.78687213 69.16015625 186.62109375 C63.97306575 185.12968798 60.16504091 185.97980549 55.5 188.5 C51.01399236 191.08157043 48.3497349 193.57908645 45.5234375 197.859375 C43.12877036 201.22418934 40.13819877 203.94259698 37.18359375 206.8125 C35.18228193 208.81739198 33.36344711 210.87846635 31.5625 213.0625 C30.716875 214.031875 29.87125 215.00125 29 216 C28.34 216 27.68 216 27 216 C26.34 217.32 25.68 218.64 25 220 C24.34 220 23.68 220 23 220 C23 220.66 23 221.32 23 222 C22.34 222 21.68 222 21 222 C20.79375 222.556875 20.5875 223.11375 20.375 223.6875 C18.44999226 226.92501302 15.96149098 228.68231141 13 231 C9.82565529 229.61059868 7.83139084 228.01904263 5.49609375 225.47265625 C4.84310303 224.76810303 4.1901123 224.0635498 3.51733398 223.33764648 C2.83098877 222.58684814 2.14464355 221.8360498 1.4375 221.0625 C0.00140782 219.51171594 -1.43609603 217.96223797 -2.875 216.4140625 C-3.57753906 215.65770508 -4.28007812 214.90134766 -5.00390625 214.12207031 C-8.46818833 210.43915204 -12.07516498 206.90862505 -15.6796875 203.36328125 C-17.80755731 201.19600644 -19.75246766 198.96352563 -21.6875 196.625 C-24.97068505 192.77493407 -28.62414633 190.45678225 -33 188 C-34.299375 187.071875 -34.299375 187.071875 -35.625 186.125 C-38.92573934 184.56149189 -40.50926603 184.97331354 -44 186 C-46.09805252 186.98919587 -48.1391943 188.03572702 -50.16796875 189.16015625 C-52 190 -52 190 -55 190 C-55 189.34 -55 188.68 -55 188 C-55.88884888 187.59249512 -55.88884888 187.59249512 -56.7956543 187.17675781 C-60.33949042 185.28493257 -62.95356234 182.53723039 -65.8125 179.75 C-66.42287109 179.18925781 -67.03324219 178.62851562 -67.66210938 178.05078125 C-71.98648147 173.82879001 -71.98648147 173.82879001 -72.05078125 169.88671875 C-70.71324056 166.21221106 -68.93924665 163.02109584 -66.9609375 159.66015625 C-64.86601972 153.86081069 -67.47294685 148.25070401 -69.5625 142.75 C-72 136.31444759 -72 136.31444759 -72 133 C-72.556875 132.89042969 -73.11375 132.78085938 -73.6875 132.66796875 C-74.450625 132.50941406 -75.21375 132.35085937 -76 132.1875 C-77.11375 131.96126953 -77.11375 131.96126953 -78.25 131.73046875 C-81.91583924 130.7567302 -85.44854106 129.3317971 -89 128 C-89 119.75 -89 111.5 -89 103 C-81 100 -81 100 -76.8125 99.3125 C-74.7044047 98.69861742 -74.7044047 98.69861742 -73 97 C-71.04070964 92.40125113 -69.80264564 87.7645417 -68.59130859 82.92724609 C-68 81 -68 81 -66.30078125 77.80078125 C-64.76851153 74.50156986 -64.78745274 73.38124412 -66 70 C-67.53909805 67.13703397 -69.21658266 64.39016682 -70.91796875 61.62109375 C-72 59 -72 59 -71.28759766 57.08154297 C-68.83621783 53.11861836 -65.44442888 49.99083214 -62.1875 46.6875 C-61.47529297 45.93404297 -60.76308594 45.18058594 -60.02929688 44.40429688 C-59.33255859 43.69724609 -58.63582031 42.99019531 -57.91796875 42.26171875 C-57.28656982 41.61162842 -56.6551709 40.96153809 -56.00463867 40.29174805 C-54 39 -54 39 -51.39990234 39.2331543 C-48.15419803 40.27026083 -45.22198989 41.73071565 -42.18359375 43.2578125 C-39.53394908 44.15840729 -38.58815553 44.01572896 -36 43 C-33.14068335 41.46451791 -30.35507427 39.82646165 -27.55859375 38.1796875 C-25 37 -25 37 -22 38 C-22.15275391 36.74896484 -22.15275391 36.74896484 -22.30859375 35.47265625 C-22.45731158 31.53839376 -22.30304798 28.73568625 -21 25 C-18.23451556 22.48786363 -14.90954478 20.9890162 -11.59472656 19.32348633 C-7.07588572 16.95386352 -4.91057224 15.2980632 -3.1875 10.25 C-2.76675524 8.50582172 -2.36975981 6.75569408 -2 5 C-1.34 3.35 -0.68 1.7 0 0 Z " fill="#F3F4F5" transform="translate(238,102)"/>
<path d="M0 0 C0.75692186 4.20512142 0.99953762 7.82152055 0 12 C-2.67911798 14.61146348 -5.45559437 16.23362157 -8.69921875 18.08984375 C-24.05946325 26.97878997 -34.1965054 43.21373464 -38.875 60 C-40.09365574 65.91300418 -40.27569101 71.7343596 -40.3125 77.75 C-40.31813965 78.62527344 -40.3237793 79.50054687 -40.32958984 80.40234375 C-40.11683205 99.47121137 -31.26068812 117.69045217 -18.015625 131.171875 C-11.31384517 137.64528487 -4.02588084 142.49775954 4.875 145.4375 C11.98196508 147.94834395 14.23248765 151.7433896 18 158 C19.60962443 160.27382657 21.29619099 162.48367041 23 164.6875 C23.42482666 165.24074951 23.84965332 165.79399902 24.28735352 166.36401367 C27.57865808 170.59243018 31.0901388 174.34512974 35 178 C43.44705842 171.61777808 51.06323537 162.58827271 55.5 152.9375 C58.33233511 147.40575525 63.45825451 146.09869337 69 144 C87.32785407 135.99886733 98.20035643 122.23675372 106.625 104.59765625 C108.15416365 100.5966343 108.98291505 96.77075876 109.6875 92.5625 C109.88182617 91.46518555 109.88182617 91.46518555 110.08007812 90.34570312 C110.39429815 88.565123 110.69824068 86.78273417 111 85 C115.47839495 87.02407807 118.67142049 89.61184656 121 94 C121.29855137 99.37392462 118.42959063 104.3346339 116.3125 109.125 C114.25470457 113.96112458 113.2812422 116.84372659 115 122 C116.28352141 124.56704281 117.6021647 127.08551133 119.0390625 129.5703125 C120.23835182 132.60266192 119.92316552 133.89909575 119 137 C116.73861696 140.08791192 113.96526075 142.6836412 111.25 145.375 C110.17492187 146.49841797 110.17492187 146.49841797 109.078125 147.64453125 C108.376875 148.34707031 107.675625 149.04960937 106.953125 149.7734375 C106.31536133 150.41716309 105.67759766 151.06088867 105.02050781 151.72412109 C103 153 103 153 100.37963867 152.7487793 C97.55750582 151.86076437 94.87658722 150.78687213 92.16015625 149.62109375 C86.97306575 148.12968798 83.16504091 148.97980549 78.5 151.5 C74.01399236 154.08157043 71.3497349 156.57908645 68.5234375 160.859375 C66.12877036 164.22418934 63.13819877 166.94259698 60.18359375 169.8125 C58.18228193 171.81739198 56.36344711 173.87846635 54.5625 176.0625 C53.716875 177.031875 52.87125 178.00125 52 179 C51.34 179 50.68 179 50 179 C49.34 180.32 48.68 181.64 48 183 C47.34 183 46.68 183 46 183 C46 183.66 46 184.32 46 185 C45.34 185 44.68 185 44 185 C43.79375 185.556875 43.5875 186.11375 43.375 186.6875 C41.44999226 189.92501302 38.96149098 191.68231141 36 194 C32.82565529 192.61059868 30.83139084 191.01904263 28.49609375 188.47265625 C27.84310303 187.76810303 27.1901123 187.0635498 26.51733398 186.33764648 C25.83098877 185.58684814 25.14464355 184.8360498 24.4375 184.0625 C23.00140782 182.51171594 21.56390397 180.96223797 20.125 179.4140625 C19.42246094 178.65770508 18.71992188 177.90134766 17.99609375 177.12207031 C14.53181167 173.43915204 10.92483502 169.90862505 7.3203125 166.36328125 C5.19244269 164.19600644 3.24753234 161.96352563 1.3125 159.625 C-1.97068505 155.77493407 -5.62414633 153.45678225 -10 151 C-11.299375 150.071875 -11.299375 150.071875 -12.625 149.125 C-15.92573934 147.56149189 -17.50926603 147.97331354 -21 149 C-23.09805252 149.98919587 -25.1391943 151.03572702 -27.16796875 152.16015625 C-29 153 -29 153 -32 153 C-32 152.34 -32 151.68 -32 151 C-32.88884888 150.59249512 -32.88884888 150.59249512 -33.7956543 150.17675781 C-37.33949042 148.28493257 -39.95356234 145.53723039 -42.8125 142.75 C-43.42287109 142.18925781 -44.03324219 141.62851562 -44.66210938 141.05078125 C-48.98648147 136.82879001 -48.98648147 136.82879001 -49.05078125 132.88671875 C-47.71324056 129.21221106 -45.93924665 126.02109584 -43.9609375 122.66015625 C-41.86601972 116.86081069 -44.47294685 111.25070401 -46.5625 105.75 C-49 99.31444759 -49 99.31444759 -49 96 C-49.556875 95.89042969 -50.11375 95.78085938 -50.6875 95.66796875 C-51.8321875 95.43013672 -51.8321875 95.43013672 -53 95.1875 C-54.11375 94.96126953 -54.11375 94.96126953 -55.25 94.73046875 C-58.91583924 93.7567302 -62.44854106 92.3317971 -66 91 C-66 82.75 -66 74.5 -66 66 C-58 63 -58 63 -53.8125 62.3125 C-51.7044047 61.69861742 -51.7044047 61.69861742 -50 60 C-48.04070964 55.40125113 -46.80264564 50.7645417 -45.59130859 45.92724609 C-45 44 -45 44 -43.30078125 40.80078125 C-41.76851153 37.50156986 -41.78745274 36.38124412 -43 33 C-44.53909805 30.13703397 -46.21658266 27.39016682 -47.91796875 24.62109375 C-49 22 -49 22 -48.28759766 20.08154297 C-45.83621783 16.11861836 -42.44442888 12.99083214 -39.1875 9.6875 C-38.47529297 8.93404297 -37.76308594 8.18058594 -37.02929688 7.40429688 C-36.33255859 6.69724609 -35.63582031 5.99019531 -34.91796875 5.26171875 C-33.97087036 4.28658325 -33.97087036 4.28658325 -33.00463867 3.29174805 C-31 2 -31 2 -28.39990234 2.2331543 C-25.15419803 3.27026083 -22.22198989 4.73071565 -19.18359375 6.2578125 C-16.53396145 7.15840308 -15.58999797 7.00966023 -13 6 C-11.10372097 5.0192597 -9.22967335 3.99481379 -7.375 2.9375 C-2.21882353 0 -2.21882353 0 0 0 Z " fill="#0B66A0" transform="translate(215,139)"/>
<path d="M0 0 C2.07421875 1.08203125 2.07421875 1.08203125 4 2.375 C4.62519531 2.75011719 5.25039063 3.12523438 5.89453125 3.51171875 C7.19096434 4.30647712 8.47223348 5.12643019 9.73828125 5.96875 C14.2909242 8.79940883 19.18074245 11.03766009 24 13.375 C24.99975794 53.97542618 24.99975794 53.97542618 11.0625 68.75 C6.61174621 72.9299855 2.74391647 75.92599549 -3.4375 76.9375 C-11.96221253 75.59149276 -18.2106994 69.14320325 -23.40625 62.60546875 C-30.40483569 52.47032179 -31.76335107 40.43976045 -31.875 28.4375 C-31.94074219 27.16326172 -32.00648438 25.88902344 -32.07421875 24.57617188 C-32.1164257 20.9137599 -32.0126557 17.89696756 -31 14.375 C-28.06897047 11.40184875 -24.79657485 10.00931219 -21 8.375 C-19.59609703 7.51574714 -18.20759431 6.63054972 -16.83984375 5.71484375 C-5.14136972 -1.61280402 -5.14136972 -1.61280402 0 0 Z " fill="#09B8F3" transform="translate(254,117.625)"/>
<path d="M0 0 C0.15855469 0.66386719 0.31710938 1.32773438 0.48046875 2.01171875 C2.33916431 9.04600857 4.54360157 12.49411114 10.5 16.8125 C16.97101906 19.00802432 24.02898094 19.00802432 30.5 16.8125 C36.74247664 12.28670443 39.04247194 8.30492179 41 1 C52.2486275 2.77609908 62.25866824 8.31546964 72 14 C70.8512638 17.44620861 69.92418358 18.09169196 67.0625 20.1875 C66.35222656 20.71730469 65.64195312 21.24710938 64.91015625 21.79296875 C63 23 63 23 61 23 C61 20.69 61 18.38 61 16 C60.13375 15.731875 59.2675 15.46375 58.375 15.1875 C55.08208036 14.02888013 52.08872125 12.61790161 49 11 C49 12.65 49 14.3 49 16 C50.134375 16.309375 51.26875 16.61875 52.4375 16.9375 C56 18 56 18 57 19 C57.64474636 22.28234511 57.90405671 23.85987402 57 27 C54.80757973 29.42032258 52.39593837 31.37529805 49.87109375 33.4453125 C44.77494365 37.97984606 40.95539712 43.47376538 37 49 C36.49597656 49.68707031 35.99195313 50.37414062 35.47265625 51.08203125 C28.8349846 60.81586923 25.55888539 72.71994159 22.859375 84.05078125 C22 87 22 87 20 89 C19.70867187 87.86304688 19.41734375 86.72609375 19.1171875 85.5546875 C13.46422383 64.01434023 4.40669343 44.05458022 -13.0625 29.4375 C-15.9344518 25.82439935 -15.43612327 22.44845739 -15 18 C-12.35261084 16.5393715 -11.10551666 16 -8 16 C-8 14.35 -8 12.7 -8 11 C-8.62648437 11.28875 -9.25296875 11.5775 -9.8984375 11.875 C-11.12433594 12.431875 -11.12433594 12.431875 -12.375 13 C-13.18710938 13.37125 -13.99921875 13.7425 -14.8359375 14.125 C-17 15 -17 15 -19 15 C-19 17.64 -19 20.28 -19 23 C-22.10742423 21.53181332 -24.90471739 19.79975 -27.75 17.875 C-28.54921875 17.33617187 -29.3484375 16.79734375 -30.171875 16.2421875 C-30.77515625 15.83226562 -31.3784375 15.42234375 -32 15 C-30.37691768 11.75383536 -26.90250716 11.08339117 -23.6875 9.75 C-17.42526943 7.09689345 -11.37141893 4.24448752 -5.35546875 1.06640625 C-3 0 -3 0 0 0 Z " fill="#08B8F4" transform="translate(230,194)"/>
<path d="M0 0 C3.4992287 0.55940051 5.19129634 1.12507838 8.25 3.125 C12.56816501 5.72154367 16.23809716 5.10559719 21 4 C23.00382009 3.34490497 25.00458132 2.68025637 27 2 C30.14131112 1.63163363 31.51809004 1.6635081 34.14404297 3.49707031 C34.83643066 4.18381836 35.52881836 4.87056641 36.2421875 5.578125 C36.99757813 6.32707031 37.75296875 7.07601562 38.53125 7.84765625 C39.3046875 8.64042969 40.078125 9.43320313 40.875 10.25 C41.67164063 11.02730469 42.46828125 11.80460938 43.2890625 12.60546875 C44.03671875 13.35957031 44.784375 14.11367187 45.5546875 14.890625 C46.24030762 15.58188477 46.92592773 16.27314453 47.63232422 16.98535156 C49 19 49 19 48.80566406 21.09521484 C47.30279445 24.64836295 45.18775818 27.86334491 43.1796875 31.1484375 C41.72658109 34.66091326 41.9768437 36.37331921 43 40 C44.0881878 42.4732597 44.0881878 42.4732597 45.4375 44.8125 C47.90723132 49.51641023 49.07400147 53.78073555 50 59 C50.54269531 59.1340625 51.08539063 59.268125 51.64453125 59.40625 C54.33133811 60.08352138 57.01043204 60.78516209 59.6875 61.5 C60.66074219 61.7578125 61.63398438 62.015625 62.63671875 62.28125 C65 63 65 63 66 64 C66.08748207 65.92667507 66.10697334 67.85651861 66.09765625 69.78515625 C66.09282227 71.53989258 66.09282227 71.53989258 66.08789062 73.33007812 C66.07532227 75.17762695 66.07532227 75.17762695 66.0625 77.0625 C66.05798828 78.29806641 66.05347656 79.53363281 66.04882812 80.80664062 C66.03699608 83.87114117 66.02051173 86.93554721 66 90 C63.92085336 90.70005949 61.83648414 91.38462244 59.75 92.0625 C58.58984375 92.44535156 57.4296875 92.82820313 56.234375 93.22265625 C51.71663156 94.30844241 51.71663156 94.30844241 49 93 C47.11328125 91.1875 47.11328125 91.1875 45.3125 89 C44.71050781 88.278125 44.10851562 87.55625 43.48828125 86.8125 C42.99714844 86.214375 42.50601563 85.61625 42 85 C41.67 84.67 41.34 84.34 41 84 C40.83264874 82.54374385 40.72392369 81.08065931 40.640625 79.6171875 C39.21752481 58.28574394 33.8659778 40.31416172 18 25 C12.89872133 20.76783857 7.33274195 16.93233898 1.6015625 13.609375 C0 12 0 12 -0.390625 9.08203125 C-0.34421875 8.00308594 -0.2978125 6.92414063 -0.25 5.8125 C-0.21390625 4.72582031 -0.1778125 3.63914063 -0.140625 2.51953125 C-0.09421875 1.68808594 -0.0478125 0.85664063 0 0 Z " fill="#F78619" transform="translate(286,140)"/>
<path d="M0 0 C0 25.08 0 50.16 0 76 C-9.05284648 74.1894307 -15.54669844 67.84966239 -20.6875 60.375 C-26.43540091 50.29490605 -27.76876703 39.48254402 -27.875 28.0625 C-27.94074219 26.78826172 -28.00648438 25.51402344 -28.07421875 24.20117188 C-28.11644121 20.53741369 -28.01486119 17.52279192 -27 14 C-24.06342157 11.01849379 -20.82162523 9.6036677 -17 8 C-15.67547018 7.24425528 -14.36241676 6.46773287 -13.06640625 5.6640625 C-11.89900554 4.98339982 -10.73105192 4.30368439 -9.5625 3.625 C-8.96501953 3.27050781 -8.36753906 2.91601562 -7.75195312 2.55078125 C-4.93993922 0.92326929 -3.30806285 0 0 0 Z " fill="#0990CF" transform="translate(250,118)"/>
<path d="M0 0 C4.47839495 2.02407807 7.67142049 4.61184656 10 9 C10.29855137 14.37392462 7.42959063 19.3346339 5.3125 24.125 C3.25470457 28.96112458 2.2812422 31.84372659 4 37 C5.28352141 39.56704281 6.6021647 42.08551133 8.0390625 44.5703125 C9.23835182 47.60266192 8.92316552 48.89909575 8 52 C5.73861696 55.08791192 2.96526075 57.6836412 0.25 60.375 C-0.46671875 61.12394531 -1.1834375 61.87289062 -1.921875 62.64453125 C-2.623125 63.34707031 -3.324375 64.04960937 -4.046875 64.7734375 C-4.68463867 65.41716309 -5.32240234 66.06088867 -5.97949219 66.72412109 C-8 68 -8 68 -10.62036133 67.7487793 C-13.44249418 66.86076437 -16.12341278 65.78687213 -18.83984375 64.62109375 C-24.68762179 62.93972538 -28.42753628 64.40633019 -33.625 67.25 C-41.70169796 71.50922986 -49.68947768 75.34229861 -59 75 C-56.40230648 68.74142194 -54.16563897 63.93696091 -47.75 61.125 C-45.84004893 60.39875338 -43.92331274 59.69008356 -42 59 C-23.6690207 51.04086073 -12.78840263 37.21321802 -4.375 19.59765625 C-2.84583635 15.5966343 -2.01708495 11.77075876 -1.3125 7.5625 C-1.18294922 6.83095703 -1.05339844 6.09941406 -0.91992188 5.34570312 C-0.60570185 3.565123 -0.30175932 1.78273417 0 0 Z " fill="#0E6AA1" transform="translate(326,224)"/>
<path d="M0 0 C0.15855469 0.66386719 0.31710938 1.32773438 0.48046875 2.01171875 C2.20071077 8.52202694 3.90928151 12.60424056 9.9609375 16.1484375 C13.34130648 17.92030377 16.26225916 19.06556479 20 20 C20 41.12 20 62.24 20 84 C17.48953292 81.48953292 17.14837506 79.53508425 16.1875 76.125 C10.74857587 58.0875498 1.58329757 41.69214695 -13.0625 29.4375 C-15.9344518 25.82439935 -15.43612327 22.44845739 -15 18 C-12.35261084 16.5393715 -11.10551666 16 -8 16 C-8 14.35 -8 12.7 -8 11 C-8.62648437 11.28875 -9.25296875 11.5775 -9.8984375 11.875 C-11.12433594 12.431875 -11.12433594 12.431875 -12.375 13 C-13.18710938 13.37125 -13.99921875 13.7425 -14.8359375 14.125 C-17 15 -17 15 -19 15 C-19 17.64 -19 20.28 -19 23 C-22.10742423 21.53181332 -24.90471739 19.79975 -27.75 17.875 C-28.54921875 17.33617187 -29.3484375 16.79734375 -30.171875 16.2421875 C-30.77515625 15.83226562 -31.3784375 15.42234375 -32 15 C-30.37691768 11.75383536 -26.90250716 11.08339117 -23.6875 9.75 C-17.42526943 7.09689345 -11.37141893 4.24448752 -5.35546875 1.06640625 C-3 0 -3 0 0 0 Z " fill="#068FD0" transform="translate(230,194)"/>
<path d="M0 0 C0.90878906 0.29003906 0.90878906 0.29003906 1.8359375 0.5859375 C3.09277344 0.97652344 3.09277344 0.97652344 4.375 1.375 C5.2928125 1.66503906 6.210625 1.95507812 7.15625 2.25390625 C9.90967686 3.07443609 9.90967686 3.07443609 12.46875 3.15234375 C17.1937482 3.46683227 19.86673212 4.61377904 23.0859375 8.0625 C25.19072984 10.48478399 27.17287236 12.98556975 29.140625 15.51953125 C31.76661661 18.8716077 34.64125726 21.39150897 38 24 C42.22559475 20.01897343 45.76758565 15.94926187 49.1875 11.25 C54.04719198 5.1878245 58.53321532 4.07101377 66 3 C67.58822872 2.62428998 69.17258162 2.23128364 70.75 1.8125 C71.8225 1.544375 72.895 1.27625 74 1 C72.57363533 5.74875067 69.76240215 8.55530618 66.25 11.875 C62.79361914 15.21908712 59.43030543 18.52587149 56.375 22.25 C55.59125 23.1575 54.8075 24.065 54 25 C53.34 25 52.68 25 52 25 C51.34 26.32 50.68 27.64 50 29 C49.34 29 48.68 29 48 29 C48 29.66 48 30.32 48 31 C47.34 31 46.68 31 46 31 C45.79375 31.556875 45.5875 32.11375 45.375 32.6875 C43.44999226 35.92501302 40.96149098 37.68231141 38 40 C34.82565529 38.61059868 32.83139084 37.01904263 30.49609375 34.47265625 C29.84310303 33.76810303 29.1901123 33.0635498 28.51733398 32.33764648 C27.83098877 31.58684814 27.14464355 30.8360498 26.4375 30.0625 C25.00140782 28.51171594 23.56390397 26.96223797 22.125 25.4140625 C21.42246094 24.65770508 20.71992188 23.90134766 19.99609375 23.12207031 C17.36915047 20.32933658 14.66752282 17.62960584 11.9375 14.9375 C2.98835152 6.06946163 2.98835152 6.06946163 0 2 C0 1.34 0 0.68 0 0 Z " fill="#112C76" transform="translate(213,293)"/>
<path d="M0 0 C24.98394684 10.87320914 46.59547335 40.81884251 57 65 C65.46859042 86.62819162 65.46859042 86.62819162 65 96 C62.58276076 93.58276076 62.06398317 91.66352171 60.9375 88.4375 C56.03853986 75.41202951 49.10931969 63.28854161 41 52 C40.29875 51.00097656 39.5975 50.00195312 38.875 48.97265625 C28.32158689 34.55084678 14.90051754 20.93367836 0 11 C-0.29296875 8.3984375 -0.29296875 8.3984375 -0.1875 5.375 C-0.16042969 4.37210938 -0.13335937 3.36921875 -0.10546875 2.3359375 C-0.07066406 1.56507813 -0.03585938 0.79421875 0 0 Z " fill="#163077" transform="translate(181,209)"/>
<path d="M0 0 C0.33 0 0.66 0 1 0 C1 16.5 1 33 1 50 C-6.90514268 48.41897146 -11.74010544 43.84282102 -17 38 C-18.98598733 35.021019 -19.63671457 32.62633075 -20.42578125 29.1796875 C-20.99965984 27.00129121 -21.76336902 25.01674096 -22.625 22.9375 C-24.12981917 19.11873778 -24.25491822 16.07869157 -24 12 C-23.38125 11.855625 -22.7625 11.71125 -22.125 11.5625 C-19.96741678 11.06847775 -19.96741678 11.06847775 -18 10 C-16.948125 10.433125 -16.948125 10.433125 -15.875 10.875 C-12.21736329 12.30624915 -8.90380247 12.60300314 -5 13 C-3.40821225 10.34702041 -2.93145857 8.50307461 -2.5 5.375 C-2 2 -2 2 0 0 Z " fill="#038FD0" transform="translate(249,144)"/>
<path d="M0 0 C0.82912348 3.2474003 0.95469445 5.76683374 0 9 C-2.67235843 11.63186815 -5.6083601 13.67357923 -8.70703125 15.7578125 C-13.56577882 19.06614121 -17.73650406 22.9703949 -22 27 C-22.88429688 27.80824219 -23.76859375 28.61648437 -24.6796875 29.44921875 C-36.84432288 40.97633074 -45.2293084 55.27976491 -53 70 C-53.36254883 70.68658691 -53.72509766 71.37317383 -54.09863281 72.08056641 C-58.34476139 80.19282719 -62.18560126 88.26055129 -65 97 C-65.33 97 -65.66 97 -66 97 C-64.31297005 81.60318232 -58.52714911 66.27599984 -51.01171875 52.81445312 C-49.99317384 50.98775771 -49.0107882 49.14472893 -48.03125 47.296875 C-43.80569668 39.46427008 -38.87578969 32.67199447 -33 26 C-32.27941406 25.14664063 -31.55882812 24.29328125 -30.81640625 23.4140625 C-24.30141242 15.86549567 -10.60784669 0 0 0 Z " fill="#132D75" transform="translate(320,211)"/>
<path d="M0 0 C8.25 0 16.5 0 25 0 C25.639375 2.35125 26.27875 4.7025 26.9375 7.125 C28.49113285 12.18239859 29.82182187 15.70134337 34.4375 18.6875 C37.0180473 20.03086183 39.59884929 21.26464119 42.26171875 22.44140625 C45.44317127 25.41409013 45.42534553 26.0353122 45.5859375 30.203125 C45.54613898 32.2195833 45.47469674 34.2356146 45.375 36.25 C45.33439453 37.796875 45.33439453 37.796875 45.29296875 39.375 C45.22230799 41.9187875 45.12372078 44.45833099 45 47 C44.34 47 43.68 47 43 47 C43 40.4 43 33.8 43 27 C40.525 26.01 40.525 26.01 38 25 C36.19547384 24.09428384 34.40300351 23.16428255 32.62109375 22.21484375 C31.61755859 21.68439453 30.61402344 21.15394531 29.58007812 20.60742188 C27.48036078 19.49166157 25.38140485 18.37446723 23.28320312 17.25585938 C22.28095703 16.72669922 21.27871094 16.19753906 20.24609375 15.65234375 C18.87988892 14.92519165 18.87988892 14.92519165 17.48608398 14.18334961 C15.26691405 13.12704826 13.42832041 12.34090752 11 12 C8.25715821 13.20929395 8.25715821 13.20929395 5.4375 15.0625 C4.38175781 15.70703125 3.32601562 16.3515625 2.23828125 17.015625 C1.16964844 17.67046875 0.10101563 18.3253125 -1 19 C-2.94946732 20.11974579 -4.90734112 21.22503873 -6.875 22.3125 C-8.13957031 23.01826172 -8.13957031 23.01826172 -9.4296875 23.73828125 C-12 25 -12 25 -18 27 C-18 33.93 -18 40.86 -18 48 C-18.99 48 -19.98 48 -21 48 C-23.4096004 28.07322257 -23.4096004 28.07322257 -19.59228516 23.20458984 C-17.09253746 21.32211427 -14.49614468 20.081264 -11.64550781 18.81567383 C-7.23523408 16.89918801 -7.23523408 16.89918801 -4.18359375 13.21875 C-3.26602603 10.48403837 -2.59382011 7.81957752 -2 5 C-1.34 3.35 -0.68 1.7 0 0 Z " fill="#F6861A" transform="translate(238,102)"/>
<path d="M0 0 C3.34125 -0.0825 6.6825 -0.165 10.125 -0.25 C11.16672363 -0.28641602 12.20844727 -0.32283203 13.28173828 -0.36035156 C19.15841645 -0.43043313 22.60251434 -0.03880004 27 4 C28.1875 7.4375 28.1875 7.4375 28 11 C25.6875 13.9375 25.6875 13.9375 23 16 C22.34 16 21.68 16 21 16 C24.465 22.435 24.465 22.435 28 29 C25.69 29 23.38 29 21 29 C20.896875 28.278125 20.79375 27.55625 20.6875 26.8125 C19.93970722 23.75334771 18.65222195 21.65792227 17 19 C17 18.34 17 17.68 17 17 C13.04 17 9.08 17 5 17 C5.33 20.96 5.66 24.92 6 29 C4.02 29 2.04 29 0 29 C0 19.43 0 9.86 0 0 Z " fill="#5D5D5D" transform="translate(364,331)"/>
<path d="M0 0 C0.87409514 15.21573016 -5.58710453 28.16972781 -15.5 39.4375 C-21.6119682 45.83252677 -28.04792442 51.94929483 -36 56 C-36.66 56 -37.32 56 -38 56 C-35.41541549 48.48120871 -31.34960869 43.19976465 -25.625 37.75 C-17.39853153 29.85115863 -11.92326215 20.03939993 -9 9 C-9 7.68 -9 6.36 -9 5 C-7.28515625 3.515625 -7.28515625 3.515625 -5.0625 2.25 C-4.33160156 1.82203125 -3.60070312 1.3940625 -2.84765625 0.953125 C-1 0 -1 0 0 0 Z " fill="#F7A824" transform="translate(319,221)"/>
<path d="M0 0 C4.72731752 2.10103001 8.25202385 4.28881809 10.37109375 9.13671875 C10.72300781 10.30847656 11.07492188 11.48023438 11.4375 12.6875 C15.18066543 23.89381881 22.14660791 33.77594333 31.62890625 41.00390625 C34.13444238 43.11317966 35.12456095 44.63394978 36.375 47.625 C36.71273437 48.40101563 37.05046875 49.17703125 37.3984375 49.9765625 C38 52 38 52 37 54 C19.30111681 43.66138738 6.62312512 29.97354398 1 10 C0.42810382 6.65892229 0.08411851 3.38768193 0 0 Z " fill="#14B9F0" transform="translate(182,223)"/>
<path d="M0 0 C2.64 0 5.28 0 8 0 C8.10183594 0.68707031 8.20367187 1.37414062 8.30859375 2.08203125 C9.13210546 5.5575298 10.51169436 8.47223629 12.0625 11.6875 C15 17.79058824 15 17.79058824 15 20 C15.66 20 16.32 20 17 20 C17.10183594 19.30132812 17.20367187 18.60265625 17.30859375 17.8828125 C18.10970943 14.54256747 19.45525189 11.90711345 21.0625 8.875 C23.40122735 4.6601338 23.40122735 4.6601338 24 0 C26.64 0 29.28 0 32 0 C32 9.57 32 19.14 32 29 C30.02 29 28.04 29 26 29 C26 22.4 26 15.8 26 9 C22.7 15.27 19.4 21.54 16 28 C13.92961117 25.23948155 12.5462683 23.32768156 11.17578125 20.328125 C10.89903564 19.7290332 10.62229004 19.12994141 10.3371582 18.51269531 C9.999021 17.76600586 9.66088379 17.01931641 9.3125 16.25 C8.219375 13.8575 7.12625 11.465 6 9 C5.67 15.6 5.34 22.2 5 29 C3.35 29 1.7 29 0 29 C0 19.43 0 9.86 0 0 Z " fill="#5C5C5C" transform="translate(399,331)"/>
<path d="M0 0 C0.81404297 0.61488281 0.81404297 0.61488281 1.64453125 1.2421875 C2.35996094 1.78101563 3.07539063 2.31984375 3.8125 2.875 C4.52019531 3.40867188 5.22789062 3.94234375 5.95703125 4.4921875 C10.39201665 7.7654272 12.86398295 8.54042485 18.29296875 8.4609375 C23.01815891 7.65635967 26.31244018 4.91083454 30 2 C30.99 1.34 31.98 0.68 33 0 C33.35480978 4.98704856 33.58540154 8.82919691 31.3125 13.375 C27.7407622 17.42940507 24.52863241 20.65049736 18.94921875 21.203125 C13.85108367 21.30878583 10.34316617 20.96124966 6 18 C0.08135735 11.98511925 0.08135735 11.98511925 -0.09765625 7.6171875 C-0.08605469 6.71226562 -0.07445312 5.80734375 -0.0625 4.875 C-0.05347656 3.96492187 -0.04445312 3.05484375 -0.03515625 2.1171875 C-0.02355469 1.41851562 -0.01195312 0.71984375 0 0 Z " fill="#0F67A0" transform="translate(234,188)"/>
<path d="M0 0 C6.10152403 0.88593557 10.5225501 6.11571654 15 10 C15.65742188 10.54785156 16.31484375 11.09570312 16.9921875 11.66015625 C23.62892379 17.63933572 29.85601411 27.24752329 31.1875 36.1875 C31 40 31 40 29.48828125 41.73828125 C28.99714844 42.15464844 28.50601562 42.57101563 28 43 C26.515 42.505 26.515 42.505 25 42 C23.89453125 39.6640625 23.89453125 39.6640625 22.8125 36.625 C18.56402751 26.03514968 12.43548568 18.52809398 3.12890625 12.05444336 C1.46484375 10.80078125 1.46484375 10.80078125 -1 8 C-1.20067227 5.05794047 -0.69275631 2.91703219 0 0 Z " fill="#F5A929" transform="translate(286,161)"/>
<path d="M0 0 C2 1 2 1 3.25 4.0625 C3 8 3 8 1.078125 9.9609375 C-0.69942984 11.32372954 -2.49359837 12.66503019 -4.30078125 13.98828125 C-14.09760115 21.28981851 -19.42994418 32.54099156 -23 44 C-27.875 42.125 -27.875 42.125 -29 41 C-29.8762647 31.58363167 -23.35120483 22.35300527 -17.75 15.1875 C-12.8088618 9.44693496 -6.84416734 3.42208367 0 0 Z " fill="#F5A827" transform="translate(213,160)"/>
<path d="M0 0 C3.0525 -0.061875 6.105 -0.12375 9.25 -0.1875 C10.68327637 -0.22846802 10.68327637 -0.22846802 12.14550781 -0.27026367 C15.73109655 -0.30554295 18.32266968 -0.32995517 21.58203125 1.2578125 C23.28926113 3.35540073 23.51270211 4.38029154 23.4375 7.0625 C23.293125 8.361875 23.14875 9.66125 23 11 C20 13 20 13 17 13 C19.31 16.63 21.62 20.26 24 24 C22.35 24 20.7 24 19 24 C17.41796875 22.3203125 17.41796875 22.3203125 16.1875 20.125 C15.76855469 19.40570313 15.34960938 18.68640625 14.91796875 17.9453125 C14 16 14 16 14 14 C11.03 14 8.06 14 5 14 C5 17.3 5 20.6 5 24 C3.35 24 1.7 24 0 24 C0 16.08 0 8.16 0 0 Z " fill="#5D5D5D" transform="translate(130,336)"/>
<path d="M0 0 C2.31 0 4.62 0 7 0 C7.27972656 0.76441406 7.55945313 1.52882813 7.84765625 2.31640625 C10.52031408 9.45781673 13.47152087 16.36199714 16.76391602 23.23657227 C19 27.91269688 19 27.91269688 19 29 C17.35 29 15.7 29 14 29 C12.515 25.535 12.515 25.535 11 22 C6.05 22 1.1 22 -4 22 C-4.99 24.31 -5.98 26.62 -7 29 C-8.65 29 -10.3 29 -12 29 C-11.74307373 28.44127197 -11.48614746 27.88254395 -11.22143555 27.30688477 C-10.03867005 24.72758814 -8.86306049 22.14508793 -7.6875 19.5625 C-7.28337891 18.68400391 -6.87925781 17.80550781 -6.46289062 16.90039062 C-3.94778889 11.35898762 -1.78969601 5.81717885 0 0 Z " fill="#5B5B5B" transform="translate(196,331)"/>
<path d="M0 0 C0.19335938 0.68707031 0.38671875 1.37414062 0.5859375 2.08203125 C0.97652344 3.43361328 0.97652344 3.43361328 1.375 4.8125 C1.63023437 5.70582031 1.88546875 6.59914062 2.1484375 7.51953125 C2.95266661 10.20467896 2.95266661 10.20467896 5 13 C4.1028125 13.1546875 4.1028125 13.1546875 3.1875 13.3125 C0.94818274 13.81504776 0.94818274 13.81504776 -0.3125 15.4375 C-2.91139079 17.84388036 -5.57954251 18.29231914 -9 19 C-11.9375 18.625 -11.9375 18.625 -14 18 C-11 16 -11 16 -8 16 C-8 14.35 -8 12.7 -8 11 C-8.62648437 11.28875 -9.25296875 11.5775 -9.8984375 11.875 C-11.12433594 12.431875 -11.12433594 12.431875 -12.375 13 C-13.18710938 13.37125 -13.99921875 13.7425 -14.8359375 14.125 C-17 15 -17 15 -19 15 C-19 17.64 -19 20.28 -19 23 C-22.10742423 21.53181332 -24.90471739 19.79975 -27.75 17.875 C-28.54921875 17.33617187 -29.3484375 16.79734375 -30.171875 16.2421875 C-30.77515625 15.83226562 -31.3784375 15.42234375 -32 15 C-30.37691768 11.75383536 -26.90250716 11.08339117 -23.6875 9.75 C-17.42526943 7.09689345 -11.37141893 4.24448752 -5.35546875 1.06640625 C-3 0 -3 0 0 0 Z " fill="#1692CC" transform="translate(230,194)"/>
<path d="M0 0 C1.76889346 0.83068335 3.51600282 1.70844978 5.24609375 2.6171875 C6.24833984 3.14183594 7.25058594 3.66648437 8.28320312 4.20703125 C9.32412109 4.75746094 10.36503906 5.30789062 11.4375 5.875 C12.47455078 6.41769531 13.51160156 6.96039063 14.58007812 7.51953125 C17.39531213 8.99856877 20.20802823 10.47748538 23 12 C23.92586914 12.45818115 24.85173828 12.9163623 25.80566406 13.38842773 C28 15 28 15 28.56762695 17.17651367 C28.54144287 17.99869385 28.51525879 18.82087402 28.48828125 19.66796875 C28.47216797 20.56064453 28.45605469 21.45332031 28.43945312 22.37304688 C28.37661133 23.76620117 28.37661133 23.76620117 28.3125 25.1875 C28.28994141 26.12787109 28.26738281 27.06824219 28.24414062 28.03710938 C28.18519227 30.35967473 28.10297785 32.67903776 28 35 C28.99 35.495 28.99 35.495 30 36 C32.5777997 39.86669955 32.156054 41.87243569 31.6171875 46.34765625 C30.66920599 50.42157677 28.7958274 53.88191212 26 57 C25.34 57 24.68 57 24 57 C23.22076826 52.15144697 23.04984384 48.30763985 23.72631836 43.40820312 C24.2886915 38.45972084 24.38102018 33.47433204 24.5625 28.5 C24.62727539 26.83710938 24.62727539 26.83710938 24.69335938 25.140625 C24.79862214 22.42718494 24.90075846 19.71366583 25 17 C24.14148438 16.73960937 23.28296875 16.47921875 22.3984375 16.2109375 C18.90599112 14.96650258 15.86513646 13.42158898 12.625 11.625 C11.490625 11.00882813 10.35625 10.39265625 9.1875 9.7578125 C7.32294016 8.72956259 5.46511441 7.6885699 3.625 6.6171875 C-1.18351035 3.93118367 -3.8252038 3.70630095 -9 5 C-5.21067034 -1.71744803 -5.21067034 -1.71744803 0 0 Z " fill="#EBF0F0" transform="translate(253,114)"/>
<path d="M0 0 C3.0525 -0.0825 6.105 -0.165 9.25 -0.25 C10.20551758 -0.28641602 11.16103516 -0.32283203 12.14550781 -0.36035156 C18.37745902 -0.44210801 18.37745902 -0.44210801 21.57421875 1.828125 C23.53996142 4.82251658 23.65800546 6.49063753 23 10 C20.15520727 12.97312925 18.57838726 13.93637104 14.44921875 14.390625 C13.20785156 14.34421875 11.96648437 14.2978125 10.6875 14.25 C9.43324219 14.21390625 8.17898438 14.1778125 6.88671875 14.140625 C5.45779297 14.07101562 5.45779297 14.07101562 4 14 C4.33 17.3 4.66 20.6 5 24 C3.35 24 1.7 24 0 24 C0 16.08 0 8.16 0 0 Z " fill="#585858" transform="translate(255,336)"/>
<path d="M0 0 C1.98 0 3.96 0 6 0 C5.67 3.96 5.34 7.92 5 12 C11.6 12 18.2 12 25 12 C24.67 8.04 24.34 4.08 24 0 C25.98 0 27.96 0 30 0 C29.67 9.57 29.34 19.14 29 29 C27.35 29 25.7 29 24 29 C24.33 24.71 24.66 20.42 25 16 C18.4 16 11.8 16 5 16 C5.33 20.29 5.66 24.58 6 29 C4.02 29 2.04 29 0 29 C0 19.43 0 9.86 0 0 Z " fill="#5D5D5D" transform="translate(327,331)"/>
<path d="M0 0 C0.9075 0.495 1.815 0.99 2.75 1.5 C2.09 2.82 1.43 4.14 0.75 5.5 C0.06550781 5.17257812 -0.61898438 4.84515625 -1.32421875 4.5078125 C-4.73912059 3.33151788 -7.46031284 3.30222854 -11.0625 3.375 C-12.80466797 3.40207031 -12.80466797 3.40207031 -14.58203125 3.4296875 C-15.46246094 3.45289063 -16.34289062 3.47609375 -17.25 3.5 C-17.91 5.48 -18.57 7.46 -19.25 9.5 C-18.16460937 9.60957031 -17.07921875 9.71914063 -15.9609375 9.83203125 C-14.51555848 9.99158608 -13.07024949 10.15177611 -11.625 10.3125 C-10.91214844 10.38275391 -10.19929688 10.45300781 -9.46484375 10.52539062 C-4.86517441 11.05287564 -1.22564952 11.94900896 2.75 14.5 C3.9375 17.875 3.9375 17.875 3.75 21.5 C1.24500274 24.70082983 -0.3882074 26.2127358 -4.25 27.5 C-11.55754575 28.01350321 -17.77117729 28.11608709 -24.25 24.5 C-23.59 22.85 -22.93 21.2 -22.25 19.5 C-21.651875 19.974375 -21.05375 20.44875 -20.4375 20.9375 C-16.90008443 23.46422541 -13.98366131 23.65904798 -9.75 23.6875 C-8.7909375 23.70167969 -7.831875 23.71585937 -6.84375 23.73046875 C-4.01253861 23.68755111 -4.01253861 23.68755111 -1.25 21.5 C-1.745 19.025 -1.745 19.025 -2.25 16.5 C-3.34699219 16.41363281 -4.44398438 16.32726562 -5.57421875 16.23828125 C-7.02875906 16.09751928 -8.48318067 15.95552705 -9.9375 15.8125 C-10.65873047 15.75900391 -11.37996094 15.70550781 -12.12304688 15.65039062 C-16.165252 15.2258668 -17.95973085 14.72769164 -21.2578125 12.140625 C-23.25 9.5 -23.25 9.5 -23.4375 5.9375 C-22.28162555 2.59154763 -21.44309096 0.90621281 -18.3203125 -0.84375 C-12.44198173 -2.70706994 -5.6633527 -2.41067355 0 0 Z " fill="#5E5E5E" transform="translate(461.25,332.5)"/>
<path d="M0 0 C0.928125 0.495 1.85625 0.99 2.8125 1.5 C2.4825 2.82 2.1525 4.14 1.8125 5.5 C0.96429688 5.17257812 0.11609375 4.84515625 -0.7578125 4.5078125 C-4.38940011 3.44067172 -7.29086301 3.29802782 -11.0625 3.375 C-12.21492188 3.39304687 -13.36734375 3.41109375 -14.5546875 3.4296875 C-15.42351563 3.45289063 -16.29234375 3.47609375 -17.1875 3.5 C-17.5175 5.15 -17.8475 6.8 -18.1875 8.5 C-14.99075344 10.36852088 -12.48924758 10.76756629 -8.8125 10.9375 C-4.05886916 11.28703168 0.28084884 11.96834884 3.8125 15.5 C4.1875 18.25 4.1875 18.25 3.8125 21.5 C1.639865 24.07285724 -0.16743838 25.98996919 -3.1875 27.5 C-10.74138175 28.00947062 -17.5018213 28.32038783 -24.1875 24.5 C-23.5275 22.85 -22.8675 21.2 -22.1875 19.5 C-21.8575 20.16 -21.5275 20.82 -21.1875 21.5 C-15.60849188 24.07492682 -8.84423111 24.64671011 -2.9453125 22.796875 C-0.9213765 21.57993402 -0.9213765 21.57993402 -0.4375 18.875 C-0.355 18.09125 -0.2725 17.3075 -0.1875 16.5 C-1.35667969 16.39042969 -2.52585937 16.28085937 -3.73046875 16.16796875 C-5.27871194 16.00845279 -6.82688558 15.84826086 -8.375 15.6875 C-9.14392578 15.61724609 -9.91285156 15.54699219 -10.70507812 15.47460938 C-15.17803431 14.99467845 -18.58160322 14.42238056 -22.1875 11.5 C-23.3125 8.125 -23.3125 8.125 -23.1875 4.5 C-17.57484606 -2.67172448 -8.20994282 -3.55932081 0 0 Z " fill="#5E5E5E" transform="translate(59.1875,332.5)"/>
<path d="M0 0 C1.98 0 3.96 0 6 0 C8.64 5.28 11.28 10.56 14 16 C14.969375 13.916875 15.93875 11.83375 16.9375 9.6875 C17.48277344 8.51574219 18.02804688 7.34398437 18.58984375 6.13671875 C20.03484939 3.06306938 20.03484939 3.06306938 21 0 C22.98 0 24.96 0 27 0 C27 7.92 27 15.84 27 24 C25.68 23.67 24.36 23.34 23 23 C23 17.06 23 11.12 23 5 C20.03 11.27 17.06 17.54 14 24 C10.00748553 18.67664738 7.73143336 13.06985191 5 7 C4.67 12.61 4.34 18.22 4 24 C2.68 23.67 1.36 23.34 0 23 C0 15.41 0 7.82 0 0 Z " fill="#616161" transform="translate(220,336)"/>
<path d="M0 0 C1.98 0 3.96 0 6 0 C7.17133058 2.45620851 8.33721722 4.91474917 9.5 7.375 C9.83386719 8.07367188 10.16773437 8.77234375 10.51171875 9.4921875 C13 14.7734375 13 14.7734375 13 17 C13.66 17 14.32 17 15 17 C15.11214844 16.29359375 15.22429687 15.5871875 15.33984375 14.859375 C16.06057926 11.73760938 17.19078326 9.14193843 18.5625 6.25 C20.22250457 3.25488122 20.22250457 3.25488122 21 0 C23.31 0 25.62 0 28 0 C28 7.92 28 15.84 28 24 C26.35 24 24.7 24 23 24 C23 18.06 23 12.12 23 6 C22.44570312 7.21558594 21.89140625 8.43117188 21.3203125 9.68359375 C20.58887194 11.26838164 19.85708306 12.85300881 19.125 14.4375 C18.76019531 15.23994141 18.39539063 16.04238281 18.01953125 16.86914062 C17.66503906 17.63291016 17.31054688 18.39667969 16.9453125 19.18359375 C16.62062988 19.89056396 16.29594727 20.59753418 15.96142578 21.32592773 C15 23 15 23 13 24 C9.04 15.585 9.04 15.585 5 7 C5 12.61 5 18.22 5 24 C3.35 24 1.7 24 0 24 C0 16.08 0 8.16 0 0 Z " fill="#595959" transform="translate(69,336)"/>
<path d="M0 0 C11.2486275 1.77609908 21.25866824 7.31546964 31 13 C29.8512638 16.44620861 28.92418358 17.09169196 26.0625 19.1875 C25.35222656 19.71730469 24.64195312 20.24710938 23.91015625 20.79296875 C22 22 22 22 20 22 C20 19.69 20 17.38 20 15 C19.13375 14.731875 18.2675 14.46375 17.375 14.1875 C14.08208036 13.02888013 11.08872125 11.61790161 8 10 C8 11.65 8 13.3 8 15 C7.67 15 7.34 15 7 15 C6.67 13.35 6.34 11.7 6 10 C4.68 10.33 3.36 10.66 2 11 C2 9.68 2 8.36 2 7 C1.34 7 0.68 7 0 7 C-0.66 8.32 -1.32 9.64 -2 11 C-2.99 11 -3.98 11 -5 11 C-4.319375 9.948125 -4.319375 9.948125 -3.625 8.875 C-1.98313057 5.97015409 -0.96322901 3.1860652 0 0 Z " fill="#0DB9F3" transform="translate(271,195)"/>
<path d="M0 0 C0.33 0.99 0.66 1.98 1 3 C0.34 3.66 -0.32 4.32 -1 5 C-1.6425235 7.06874034 -1.6425235 7.06874034 -2 9 C-1.01 9 -0.02 9 1 9 C0.37346438 12.0382106 -0.62755347 14.33084547 -2.22265625 16.984375 C-2.67495605 17.74669434 -3.12725586 18.50901367 -3.59326172 19.29443359 C-4.32053467 20.50993896 -4.32053467 20.50993896 -5.0625 21.75 C-12.51263529 34.42710948 -19.05949826 47.12859127 -24 61 C-24.33 61 -24.66 61 -25 61 C-23.22762402 44.82426479 -16.9337957 29.08396755 -9 15 C-8.63132812 14.33516602 -8.26265625 13.67033203 -7.8828125 12.98535156 C-1.51150431 1.51150431 -1.51150431 1.51150431 0 0 Z " fill="#162F76" transform="translate(279,247)"/>
<path d="M0 0 C1.98 0 3.96 0 6 0 C6.30292969 0.81082031 6.60585937 1.62164062 6.91796875 2.45703125 C9.68559965 9.7720926 12.6677849 16.92436028 16 24 C14.35 24 12.7 24 11 24 C10.34 22.35 9.68 20.7 9 19 C5.04 19 1.08 19 -3 19 C-3.99 21.475 -3.99 21.475 -5 24 C-6.32 23.67 -7.64 23.34 -9 23 C-8.72736328 22.37432129 -8.45472656 21.74864258 -8.17382812 21.10400391 C-6.94546157 18.27928577 -5.72266758 15.45218929 -4.5 12.625 C-4.07074219 11.64015625 -3.64148438 10.6553125 -3.19921875 9.640625 C-2.79316406 8.69960938 -2.38710937 7.75859375 -1.96875 6.7890625 C-1.40317383 5.48509521 -1.40317383 5.48509521 -0.82617188 4.15478516 C0.11933353 2.0733827 0.11933353 2.0733827 0 0 Z " fill="#606060" transform="translate(110,336)"/>
<path d="M0 0 C4.15629906 1.76202205 7.44476198 4.57786523 10.9375 7.375 C11.54529297 7.85710937 12.15308594 8.33921875 12.77929688 8.8359375 C13.96942931 9.78085387 15.15725013 10.72869042 16.3425293 11.6796875 C17.84378374 12.87556083 19.36609674 14.0448794 20.890625 15.2109375 C23.16193852 17.13734786 23.68764889 18.084723 24 21 C21.69 21.99 19.38 22.98 17 24 C15.11594021 22.59850594 13.24019139 21.1895703 11.37890625 19.7578125 C9.01936661 17.96422759 9.01936661 17.96422759 6.46484375 16.4296875 C3.92696426 14.76458115 1.94073549 13.34120471 0 11 C-0.74168131 7.21486781 -0.55682223 3.8015147 0 0 Z " fill="#122D76" transform="translate(181,209)"/>
<path d="M0 0 C1.12664062 0.02449219 2.25328125 0.04898437 3.4140625 0.07421875 C6.375 0.3125 6.375 0.3125 9.375 1.3125 C8.715 2.6325 8.055 3.9525 7.375 5.3125 C6.385 4.9825 5.395 4.6525 4.375 4.3125 C2.68954276 4.21962229 1.000507 4.18252796 -0.6875 4.1875 C-1.56535156 4.18492187 -2.44320313 4.18234375 -3.34765625 4.1796875 C-5.65698266 4.16416576 -5.65698266 4.16416576 -7.625 5.3125 C-7.295 6.6325 -6.965 7.9525 -6.625 9.3125 C-5.88894531 9.36148437 -5.15289062 9.41046875 -4.39453125 9.4609375 C-2.93080078 9.57308594 -2.93080078 9.57308594 -1.4375 9.6875 C0.00689453 9.79191406 0.00689453 9.79191406 1.48046875 9.8984375 C4.42127812 10.31912008 6.71514569 10.99910835 9.375 12.3125 C10.81235246 15.18720493 10.75672649 17.13144588 10.375 20.3125 C8.625 22.6875 8.625 22.6875 5.375 24.3125 C-0.84663124 25.00862657 -6.83014848 24.88798956 -12.625 22.3125 C-11.965 20.9925 -11.305 19.6725 -10.625 18.3125 C-10.09390625 18.63992188 -9.5628125 18.96734375 -9.015625 19.3046875 C-5.99805843 20.5767989 -3.63806977 20.5084363 -0.375 20.4375 C1.24148438 20.41042969 1.24148438 20.41042969 2.890625 20.3828125 C3.71046875 20.35960937 4.5303125 20.33640625 5.375 20.3125 C5.705 18.6625 6.035 17.0125 6.375 15.3125 C2.59697302 14.05315767 -0.97309446 13.99382301 -4.93359375 13.7890625 C-7.98296773 13.24911529 -9.41864242 12.46267718 -11.625 10.3125 C-12.1875 7.375 -12.1875 7.375 -11.625 4.3125 C-7.86567562 0.46317338 -5.30357699 -0.1767859 0 0 Z " fill="#5D5D5D" transform="translate(294.625,335.6875)"/>
<path d="M0 0 C2.60444348 -0.05394705 5.20776998 -0.09364469 7.8125 -0.125 C8.55048828 -0.14175781 9.28847656 -0.15851563 10.04882812 -0.17578125 C13.91246426 -0.21074628 15.70903668 -0.19397555 19 2 C19.3125 4.5 19.3125 4.5 19 7 C17 9 17 9 13.0859375 9.1953125 C11.51550649 9.18200376 9.94513779 9.15813602 8.375 9.125 C7.57320313 9.11597656 6.77140625 9.10695313 5.9453125 9.09765625 C3.96341477 9.07406223 1.98167019 9.03819065 0 9 C0 6.03 0 3.06 0 0 Z " fill="#F4F4F4" transform="translate(369,335)"/>
<path d="M0 0 C3 1 3 1 4.46484375 3.8515625 C4.97014205 5.10365451 5.4600581 6.36202335 5.9375 7.625 C6.19547363 8.29072021 6.45344727 8.95644043 6.71923828 9.64233398 C10.00598838 18.35621003 13.37181419 27.60454132 13 37 C10.58276076 34.58276076 10.06398317 32.66352171 8.9375 29.4375 C5.98358093 21.51321411 2.0442785 14.20756571 -2.02612305 6.80834961 C-3.05847271 4.89142458 -4.0353007 2.95172089 -5 1 C-3.68 1.33 -2.36 1.66 -1 2 C-0.67 1.34 -0.34 0.68 0 0 Z " fill="#1D3479" transform="translate(233,268)"/>
<path d="M0 0 C7.92 0.33 15.84 0.66 24 1 C24 1.99 24 2.98 24 4 C20.7 4 17.4 4 14 4 C14.33 10.93 14.66 17.86 15 25 C13.35 25 11.7 25 10 25 C10.33 18.07 10.66 11.14 11 4 C7.37 4.33 3.74 4.66 0 5 C0 3.35 0 1.7 0 0 Z " fill="#555555" transform="translate(158,335)"/>
<path d="M0 0 C0.92697412 2.50283011 1.04545773 3.82490355 0.3671875 6.4375 C-1.39700017 9.74409174 -3.18695737 10.62546382 -6.5 12.3125 C-7.4796875 12.82425781 -8.459375 13.33601563 -9.46875 13.86328125 C-12 15 -12 15 -14 15 C-14 21.93 -14 28.86 -14 36 C-14.99 36 -15.98 36 -17 36 C-19.39709716 16.17662113 -19.39709716 16.17662113 -15.56005859 11.09179688 C-12.4647943 8.58386456 -9.14248317 7.05365479 -5.4765625 5.55078125 C-1.94861515 4.34703544 -1.94861515 4.34703544 -0.5234375 1.79296875 C-0.35070312 1.20128906 -0.17796875 0.60960938 0 0 Z " fill="#E9A35B" transform="translate(234,114)"/>
<path d="M0 0 C1.58624235 0.42683239 3.1689098 0.86696158 4.75 1.3125 C5.63171875 1.55613281 6.5134375 1.79976562 7.421875 2.05078125 C10.05772505 3.02125331 11.85407326 4.21005644 14 6 C12.8512638 9.44620861 11.92418358 10.09169196 9.0625 12.1875 C8.35222656 12.71730469 7.64195312 13.24710938 6.91015625 13.79296875 C5 15 5 15 3 15 C3 12.69 3 10.38 3 8 C1.63875 7.5978125 1.63875 7.5978125 0.25 7.1875 C-2.71471963 6.10423706 -4.6169754 5.01640543 -7 3 C-4.36 3.33 -1.72 3.66 1 4 C0.67 2.68 0.34 1.36 0 0 Z " fill="#1EB8ED" transform="translate(288,202)"/>
<path d="M0 0 C2.29141286 -0.05384521 4.58318188 -0.09272087 6.875 -0.125 C8.78925781 -0.15980469 8.78925781 -0.15980469 10.7421875 -0.1953125 C14 0 14 0 16 2 C15.75 4.5625 15.75 4.5625 15 7 C12.11584117 8.44207941 9.58278472 8.09394887 6.375 8.0625 C5.18648438 8.05347656 3.99796875 8.04445313 2.7734375 8.03515625 C1.85820312 8.02355469 0.94296875 8.01195312 0 8 C0 5.36 0 2.72 0 0 Z " fill="#F2F2F2" transform="translate(259,339)"/>
<path d="M0 0 C2.10388569 -0.05402274 4.20816714 -0.09280256 6.3125 -0.125 C8.07013672 -0.15980469 8.07013672 -0.15980469 9.86328125 -0.1953125 C13 0 13 0 16 2 C15.125 6.875 15.125 6.875 14 8 C11.64686445 8.07271741 9.29166332 8.08370868 6.9375 8.0625 C5.64714844 8.05347656 4.35679687 8.04445313 3.02734375 8.03515625 C2.02832031 8.02355469 1.02929688 8.01195312 0 8 C0 5.36 0 2.72 0 0 Z " fill="#EEEEEE" transform="translate(134,339)"/>
<path d="M0 0 C1.9375 1.1875 1.9375 1.1875 3 3 C3.42317323 5.82115488 3.38718434 7.33950907 1.9375 9.8125 C-1.09375543 11.67036623 -3.53422859 11.37133265 -7 11 C-8.9375 9.8125 -8.9375 9.8125 -10 8 C-10.42317323 5.17884512 -10.38718434 3.66049093 -8.9375 1.1875 C-5.90624457 -0.67036623 -3.46577141 -0.37133265 0 0 Z " fill="#B7B7B7" transform="translate(167,368)"/>
<path d="M0 0 C1.8125 1.25 1.8125 1.25 3 3 C3.46856135 6.74849077 3.15502531 7.76746204 1 11 C-0.875 11.36328125 -0.875 11.36328125 -3 11.3125 C-3.70125 11.30863281 -4.4025 11.30476562 -5.125 11.30078125 C-7 11 -7 11 -9 9 C-9.375 5.5625 -9.375 5.5625 -9 2 C-6.18112246 -1.3408919 -4.01115641 -1.4399023 0 0 Z " fill="#EFF3F5" transform="translate(243,146)"/>
<path d="M0 0 C3.5625 0.3125 3.5625 0.3125 5.5625 1.375 C7.1779422 4.50491926 6.36134015 6.99424093 5.5625 10.3125 C2.51949684 11.83400158 -0.091585 11.55149393 -3.4375 11.3125 C-5.73913882 7.86004176 -5.78240322 6.36511287 -5.4375 2.3125 C-3.4375 0.3125 -3.4375 0.3125 0 0 Z " fill="#F0F5F7" transform="translate(261.4375,145.6875)"/>
<path d="M0 0 C0.33 0.99 0.66 1.98 1 3 C1.99 3.33 2.98 3.66 4 4 C2.53059022 8.88540881 0.47043858 13.18737939 -1.875 17.6875 C-5.09439138 23.97491897 -7.83061578 30.26349111 -10 37 C-10.33 37 -10.66 37 -11 37 C-10.33288783 30.58129913 -8.53087279 24.65077127 -6.625 18.5 C-6.32078125 17.49324219 -6.0165625 16.48648437 -5.703125 15.44921875 C-4.07609518 10.14398903 -2.31052793 5.04630641 0 0 Z " fill="#253A7B" transform="translate(265,271)"/>
<path d="M0 0 C8.3984375 -0.1953125 8.3984375 -0.1953125 11 0 C11.66 0.66 12.32 1.32 13 2 C12.60467975 4.45098556 11.78698574 6.63904279 11 9 C11.87483915 11.16715557 11.87483915 11.16715557 13 13 C12.01 13 11.02 13 10 13 C9.34 11.02 8.68 9.04 8 7 C6.02 7 4.04 7 2 7 C2 8.98 2 10.96 2 13 C1.34 13 0.68 13 0 13 C0 8.71 0 4.42 0 0 Z " fill="#676767" transform="translate(226,366)"/>
<path d="M0 0 C0.52078125 0.76441406 1.0415625 1.52882813 1.578125 2.31640625 C4.41686154 5.46190948 6.87052887 6.31243265 10.75 7.9375 C13.40136362 9.26408302 15.29738032 10.54523555 17 13 C18.69717267 20.13920881 17.78767854 27.77386504 17 35 C16.34 35 15.68 35 15 35 C15 28.4 15 21.8 15 15 C13.35 14.34 11.7 13.68 10 13 C7.71610039 11.81654909 5.44571525 10.60675377 3.1875 9.375 C2.59001953 9.05015625 1.99253906 8.7253125 1.37695312 8.390625 C-0.08337135 7.59620849 -1.54187491 6.79844624 -3 6 C-2.01 5.67 -1.02 5.34 0 5 C0 3.35 0 1.7 0 0 Z " fill="#EB9339" transform="translate(266,114)"/>
<path d="M0 0 C8.25 0 16.5 0 25 0 C28 9 28 9 28 11 C27.34 11 26.68 11 26 11 C25.34 8.36 24.68 5.72 24 3 C15.40601969 2.09358403 15.40601969 2.09358403 7.9375 5.4375 C7.298125 6.283125 6.65875 7.12875 6 8 C3.6875 8.8125 3.6875 8.8125 2 9 C2.66 7.35 3.32 5.7 4 4 C4.66 4 5.32 4 6 4 C6 3.34 6 2.68 6 2 C4.35 2 2.7 2 1 2 C0.34 4.97 -0.32 7.94 -1 11 C-1.66 11 -2.32 11 -3 11 C-2.69078116 9.54096742 -2.37751201 8.08279278 -2.0625 6.625 C-1.88847656 5.81289062 -1.71445313 5.00078125 -1.53515625 4.1640625 C-1 2 -1 2 0 0 Z " fill="#EE963F" transform="translate(238,102)"/>
<path d="M0 0 C5 1 5 1 8.25 3.125 C12.56816501 5.72154367 16.23809716 5.10559719 21 4 C23.00382009 3.34490497 25.00458132 2.68025637 27 2 C29.875 1.875 29.875 1.875 32 2 C30.68 2.33 29.36 2.66 28 3 C28 3.66 28 4.32 28 5 C21.21194639 6.42105048 14.93656853 7.22020852 8 7 C5.9178462 6.80159082 5.9178462 6.80159082 4.3125 8.25 C3.879375 8.8275 3.44625 9.405 3 10 C3.22757731 12.16299211 3.22757731 12.16299211 4 14 C2.68 13.34 1.36 12.68 0 12 C0 8.04 0 4.08 0 0 Z " fill="#F18D29" transform="translate(286,140)"/>
<path d="M0 0 C3.40198926 4.04998722 6 8.63626649 6 14 C2.37 14 -1.26 14 -5 14 C-4.46515599 8.65155992 -2.53309233 4.64203897 0 0 Z " fill="#E9E9E9" transform="translate(199,335)"/>
<path d="M0 0 C0.66 0.33 1.32 0.66 2 1 C1.34 1.66 0.68 2.32 0 3 C0.33 3.66 0.66 4.32 1 5 C-2.10220977 6.64954167 -5.20709211 8.2939881 -8.3125 9.9375 C-9.19357422 10.40607422 -10.07464844 10.87464844 -10.98242188 11.35742188 C-11.82998047 11.80537109 -12.67753906 12.25332031 -13.55078125 12.71484375 C-14.33106689 13.12855225 -15.11135254 13.54226074 -15.9152832 13.96850586 C-18 15 -18 15 -21 16 C-21 14.68 -21 13.36 -21 12 C-19.19921875 10.5078125 -19.19921875 10.5078125 -16.6875 9.125 C-15.78386719 8.62097656 -14.88023437 8.11695312 -13.94921875 7.59765625 C-12.48935547 6.80681641 -12.48935547 6.80681641 -11 6 C-9.99582031 5.42121094 -8.99164063 4.84242187 -7.95703125 4.24609375 C-2.30785559 1.02972029 -2.30785559 1.02972029 0 0 Z " fill="#EDEBE6" transform="translate(245,115)"/>
<path d="M0 0 C1.65 0.33 3.3 0.66 5 1 C5 9.58 5 18.16 5 27 C4.67 27 4.34 27 4 27 C2.96409801 21.94997778 2.89748328 17.12583611 3 12 C1.02 12.99 1.02 12.99 -1 14 C-2.43088528 11.13822943 -1.59991697 9.06624227 -1 6 C0.32 6.66 1.64 7.32 3 8 C3 7.01 3 6.02 3 5 C2.34 5 1.68 5 1 5 C0.67 3.35 0.34 1.7 0 0 Z " fill="#F19134" transform="translate(347,203)"/>
<path d="M0 0 C1.65 0.33 3.3 0.66 5 1 C4.72740991 7.77386385 3.80946641 12.34724339 0 18 C-0.66 18 -1.32 18 -2 18 C-2.23268915 11.71739294 -1.40454548 6.11980533 0 0 Z " fill="#2DBAE8" transform="translate(280,152)"/>
<path d="M0 0 C0.33 1.32 0.66 2.64 1 4 C-4.49052622 8.45607925 -8.5942931 10.67646635 -15.73828125 10.50390625 C-18.46791773 9.8957489 -19.96340844 8.89677979 -22 7 C-22 6.34 -22 5.68 -22 5 C-21.16597656 5.14179688 -20.33195313 5.28359375 -19.47265625 5.4296875 C-13.25534972 6.24156945 -9.01795378 6.6984485 -3.6875 3.0625 C-2.43261067 2.07345796 -1.19267592 1.06323823 0 0 Z " fill="#E9F0F3" transform="translate(263,187)"/>
<path d="M0 0 C3 1 3 1 4.38671875 3.50390625 C4.81597656 4.51324219 5.24523438 5.52257812 5.6875 6.5625 C6.34298828 8.08037109 6.34298828 8.08037109 7.01171875 9.62890625 C7.33785156 10.41136719 7.66398437 11.19382812 8 12 C7.01 12.33 6.02 12.66 5 13 C4.67 12.01 4.34 11.02 4 10 C1.69 9.67 -0.62 9.34 -3 9 C-3.33 10.32 -3.66 11.64 -4 13 C-4.66 12.67 -5.32 12.34 -6 12 C-4.02 8.04 -2.04 4.08 0 0 Z " fill="#686868" transform="translate(55,366)"/>
<path d="M0 0 C0.99 0.66 1.98 1.32 3 2 C3.99 2 4.98 2 6 2 C6.99 3.485 6.99 3.485 8 5 C5.36 7.64 2.72 10.28 0 13 C-1.33333333 10.33333333 -2.66666667 7.66666667 -4 5 C-2.68 3.35 -1.36 1.7 0 0 Z " fill="#1C347A" transform="translate(292,231)"/>
<path d="M0 0 C0.66 0 1.32 0 2 0 C2 0.99 2 1.98 2 3 C2.66 3 3.32 3 4 3 C3.37942343 5.56364399 2.75370801 8.12584926 2.125 10.6875 C1.95097656 11.40873047 1.77695313 12.12996094 1.59765625 12.87304688 C0.64902134 16.72028845 -0.40490841 20.35715569 -2 24 C-2.66 22.68 -3.32 21.36 -4 20 C-3.01 18.515 -3.01 18.515 -2 17 C-1.91032272 14.66839059 -1.9222654 12.33203812 -2 10 C-2.22222222 3.33333333 -2.22222222 3.33333333 0 0 Z " fill="#24BAEC" transform="translate(253,259)"/>
<path d="M0 0 C0.99 0.33 1.98 0.66 3 1 C3.33848652 2.89492006 3.67056911 4.79098466 4 6.6875 C4.185625 7.74324219 4.37125 8.79898438 4.5625 9.88671875 C4.95068074 12.64904062 5.08259976 15.21742043 5 18 C2.63321229 17.05328492 1.27359007 16.44286163 -0.0859375 14.2421875 C-1.10698269 11.73757239 -1.47717848 9.56309439 -1.75 6.875 C-1.84796875 6.00617188 -1.9459375 5.13734375 -2.046875 4.2421875 C-2 2 -2 2 0 0 Z " fill="#3499C7" transform="translate(218,152)"/>
<path d="M0 0 C2.97 0 5.94 0 9 0 C9.625 2.375 9.625 2.375 10 5 C9.34 5.66 8.68 6.32 8 7 C8.66 8.32 9.32 9.64 10 11 C9.34 11 8.68 11 8 11 C7.34 9.35 6.68 7.7 6 6 C4.35 6 2.7 6 1 6 C1 7.65 1 9.3 1 11 C0.67 11 0.34 11 0 11 C0 7.37 0 3.74 0 0 Z " fill="#585858" transform="translate(188,368)"/>
<path d="M0 0 C0.66 0 1.32 0 2 0 C4 3 4 3 4 6 C4.66 6 5.32 6 6 6 C5.34 8.64 4.68 11.28 4 14 C-0.875 12.125 -0.875 12.125 -2 11 C-2.28743526 6.78428287 -1.79760213 3.81990452 0 0 Z " fill="#F8A621" transform="translate(186,190)"/>
<path d="M0 0 C0.66 0 1.32 0 2 0 C2.99 2.31 3.98 4.62 5 7 C5.66 4.69 6.32 2.38 7 0 C7.99 0 8.98 0 10 0 C10.66 1.98 11.32 3.96 12 6 C14.10232344 3.1315587 14.10232344 3.1315587 15 0 C15.66 0 16.32 0 17 0 C16.01 3.63 15.02 7.26 14 11 C13.01 11 12.02 11 11 11 C10.34 9.02 9.68 7.04 9 5 C8.01 6.98 7.02 8.96 6 11 C5.34 11 4.68 11 4 11 C2.68 7.37 1.36 3.74 0 0 Z " fill="#747474" transform="translate(248,368)"/>
<path d="M0 0 C0.66 0 1.32 0 2 0 C2 1.65 2 3.3 2 5 C4.97 5 7.94 5 11 5 C11 3.35 11 1.7 11 0 C11.66 0 12.32 0 13 0 C13 4.29 13 8.58 13 13 C12.34 13 11.68 13 11 13 C11 11.02 11 9.04 11 7 C8.03 7 5.06 7 2 7 C2 8.98 2 10.96 2 13 C1.34 13 0.68 13 0 13 C0 8.71 0 4.42 0 0 Z " fill="#616161" transform="translate(209,366)"/>
<path d="M0 0 C0.33 0.66 0.66 1.32 1 2 C1.99 2 2.98 2 4 2 C5.4783226 4.95664519 5.06032783 7.74229737 5 11 C3.35 11.33 1.7 11.66 0 12 C-2.21553721 8.9868694 -3.03163789 7.54839015 -2.8125 3.75 C-2.544375 2.8425 -2.27625 1.935 -2 1 C-1.34 0.67 -0.68 0.34 0 0 Z " fill="#F8A720" transform="translate(306,179)"/>
<path d="M0 0 C0 3.39593478 -0.52165948 4.06619881 -2.5 6.6875 C-2.9640625 7.31011719 -3.428125 7.93273437 -3.90625 8.57421875 C-4.2671875 9.04472656 -4.628125 9.51523437 -5 10 C-4.01 10.99 -3.02 11.98 -2 13 C-3.45449401 14.0055761 -4.91372443 15.00430435 -6.375 16 C-7.18710937 16.556875 -7.99921875 17.11375 -8.8359375 17.6875 C-11 19 -11 19 -13 19 C-10.35833687 11.31516181 -5.88663076 5.47593559 0 0 Z " fill="#EFB041" transform="translate(294,258)"/>
<path d="M0 0 C4.62 0 9.24 0 14 0 C14 1.98 14 3.96 14 6 C13.34 6 12.68 6 12 6 C11.67 5.01 11.34 4.02 11 3 C11.33 2.67 11.66 2.34 12 2 C11.01 1.67 10.02 1.34 9 1 C9 2.65 9 4.3 9 6 C6.03 6 3.06 6 0 6 C0 4.02 0 2.04 0 0 Z " fill="#B0B0B0" transform="translate(353,395)"/>
<path d="M0 0 C1.98 0.66 3.96 1.32 6 2 C5.09515208 3.15518918 4.1755794 4.29885406 3.25 5.4375 C2.73953125 6.07558594 2.2290625 6.71367187 1.703125 7.37109375 C-0.26351126 9.25202797 -1.30323694 9.75483972 -4 10 C-6.140625 9.44140625 -6.140625 9.44140625 -8.25 8.5625 C-8.95640625 8.27503906 -9.6628125 7.98757813 -10.390625 7.69140625 C-10.92171875 7.46324219 -11.4528125 7.23507812 -12 7 C-11.08927734 6.77763672 -11.08927734 6.77763672 -10.16015625 6.55078125 C-5.42228801 5.34275336 -2.67737755 4.22743823 0 0 Z " fill="#1274AC" transform="translate(319,282)"/>
<path d="M0 0 C1.75098126 2.62647188 3.38731308 5.28775382 5 8 C4.401875 8.103125 3.80375 8.20625 3.1875 8.3125 C0.94818274 8.81504776 0.94818274 8.81504776 -0.3125 10.4375 C-2.91139079 12.84388036 -5.57954251 13.29231914 -9 14 C-11.9375 13.625 -11.9375 13.625 -14 13 C-11 11 -11 11 -8 11 C-8 9.35 -8 7.7 -8 6 C-7.67 7.32 -7.34 8.64 -7 10 C-4.48313064 9.59688639 -4.48313064 9.59688639 -2 8 C-0.91758097 5.33474712 -0.50727893 2.8592085 0 0 Z " fill="#1F96CD" transform="translate(230,199)"/>
<path d="M0 0 C2.97 0 5.94 0 9 0 C9.38218767 1.65614657 9.71395102 3.32457024 10 5 C9 6 9 6 7.15234375 6.09765625 C5.1015625 6.06510417 3.05078125 6.03255208 1 6 C1 7.65 1 9.3 1 11 C0.67 11 0.34 11 0 11 C0 7.37 0 3.74 0 0 Z " fill="#5A5A5A" transform="translate(82,368)"/>
<path d="M0 0 C3 0 3 0 4.38671875 1.3125 C5.59114583 2.875 6.79557292 4.4375 8 6 C8.33 4.02 8.66 2.04 9 0 C9.66 0 10.32 0 11 0 C11 3.63 11 7.26 11 11 C6.9915966 8.9957983 5.58590343 7.50944037 3 4 C2.67 6.31 2.34 8.62 2 11 C1.34 11 0.68 11 0 11 C0 7.37 0 3.74 0 0 Z " fill="#787878" transform="translate(412,368)"/>
<path d="M0 0 C3 0 3 0 4.38671875 1.3125 C5.59114583 2.875 6.79557292 4.4375 8 6 C8.33 4.02 8.66 2.04 9 0 C9.66 0 10.32 0 11 0 C11 3.63 11 7.26 11 11 C6.9915966 8.9957983 5.58590343 7.50944037 3 4 C2.67 6.31 2.34 8.62 2 11 C1.34 11 0.68 11 0 11 C0 7.37 0 3.74 0 0 Z " fill="#787878" transform="translate(314,368)"/>
<path d="M0 0 C2.83374881 3.20336822 3.5205537 5.78087253 4 10 C2.68 9.01 1.36 8.02 0 7 C0 7.66 0 8.32 0 9 C-0.66 9 -1.32 9 -2 9 C-2.12375 9.7425 -2.2475 10.485 -2.375 11.25 C-3 14 -3 14 -5 18 C-5.99 14.37 -6.98 10.74 -8 7 C-6.35 7 -4.7 7 -3 7 C-0.64046906 4.64046906 -0.50858587 3.22104383 0 0 Z " fill="#F29334" transform="translate(330,184)"/>
<path d="M0 0 C2.875 -0.125 2.875 -0.125 6 0 C8 2 8 2 8.1875 4.5625 C8 7 8 7 7 8 C4.66702567 8.04092937 2.33294775 8.04241723 0 8 C0 5.36 0 2.72 0 0 Z " fill="#7C7C7C" transform="translate(407,393)"/>
<path d="M0 0 C0 2.97 0 5.94 0 9 C-1.65 9.33 -3.3 9.66 -5 10 C-8 6.375 -8 6.375 -8 3 C-5.11165997 0.89229241 -3.61537605 0 0 0 Z " fill="#1B3477" transform="translate(320,211)"/>
<path d="M0 0 C0.66 0 1.32 0 2 0 C2 1.32 2 2.64 2 4 C4.31 4 6.62 4 9 4 C9 2.68 9 1.36 9 0 C9.66 0 10.32 0 11 0 C11 3.63 11 7.26 11 11 C10.34 11 9.68 11 9 11 C9 9.35 9 7.7 9 6 C6.69 6 4.38 6 2 6 C2 7.65 2 9.3 2 11 C1.34 11 0.68 11 0 11 C0 7.37 0 3.74 0 0 Z " fill="#777777" transform="translate(286,368)"/>
<path d="M0 0 C9.59453303 1.74259681 9.59453303 1.74259681 13 5 C11.72125 4.95875 10.4425 4.9175 9.125 4.875 C6.98128508 4.75787127 6.98128508 4.75787127 5 5 C4.34 5.66 3.68 6.32 3 7 C2.01 7 1.02 7 0 7 C-0.66 8.32 -1.32 9.64 -2 11 C-2.99 11 -3.98 11 -5 11 C-4.319375 9.948125 -4.319375 9.948125 -3.625 8.875 C-1.98313057 5.97015409 -0.96322901 3.1860652 0 0 Z " fill="#2BBCE9" transform="translate(271,195)"/>
<path d="M0 0 C0.66 0 1.32 0 2 0 C2.67154933 1.28913487 3.33708859 2.58140204 4 3.875 C4.37125 4.59429687 4.7425 5.31359375 5.125 6.0546875 C6 8 6 8 6 10 C3.03 10 0.06 10 -3 10 C-2.49287967 6.28111761 -1.88391785 3.26545761 0 0 Z " fill="#E5E5E5" transform="translate(112,341)"/>
<path d="M0 0 C3.11728368 1.36508501 5.08663738 2.86919698 7.3125 5.4375 C7.84488281 6.03433594 8.37726563 6.63117188 8.92578125 7.24609375 C9.45751953 8.11427734 9.45751953 8.11427734 10 9 C9.67 9.99 9.34 10.98 9 12 C8.5978125 11.0409375 8.5978125 11.0409375 8.1875 10.0625 C7.11332248 7.66868314 7.11332248 7.66868314 4 7 C3.34 6.01 2.68 5.02 2 4 C2.226875 5.258125 2.45375 6.51625 2.6875 7.8125 C3.18517097 11.71783471 3.18517097 11.71783471 1.6875 14 C0 15 0 15 -2 15 C-1.38487182 9.99109914 -0.7282448 4.99367864 0 0 Z " fill="#377CA5" transform="translate(326,224)"/>
<path d="M0 0 C0.99 0.66 1.98 1.32 3 2 C1 4 -1 6 -3 8 C-3.515625 8.556875 -4.03125 9.11375 -4.5625 9.6875 C-6 11 -6 11 -8 11 C-8 11.66 -8 12.32 -8 13 C-8.639375 13.12375 -9.27875 13.2475 -9.9375 13.375 C-10.618125 13.58125 -11.29875 13.7875 -12 14 C-12.33 14.66 -12.66 15.32 -13 16 C-13 13 -13 13 -11 10 C-10.34 10 -9.68 10 -9 10 C-9 9.34 -9 8.68 -9 8 C-7.28515625 6.30859375 -7.28515625 6.30859375 -5.0625 4.4375 C-4.33160156 3.81746094 -3.60070312 3.19742188 -2.84765625 2.55859375 C-1.93306641 1.78708984 -1.93306641 1.78708984 -1 1 C-0.67 0.67 -0.34 0.34 0 0 Z " fill="#116DA8" transform="translate(193,156)"/>
<path d="M0 0 C3.43595166 1.52708963 6.11912454 3.59927045 9 6 C8.67 7.32 8.34 8.64 8 10 C7.34 9.34 6.68 8.68 6 8 C5.01 8.33 4.02 8.66 3 9 C2.26676204 11.01508358 2.26676204 11.01508358 2 13 C0.54815522 8.46298506 -0.23509196 4.81938524 0 0 Z " fill="#14B7EF" transform="translate(182,223)"/>
<path d="M0 0 C2.4375 0.75 2.4375 0.75 5 2 C5.875 4 5.875 4 6 6 C5.67 6.66 5.34 7.32 5 8 C4.34 8 3.68 8 3 8 C3 8.66 3 9.32 3 10 C-0.74278215 8.5511811 -0.74278215 8.5511811 -1.875 6.125 C-2.02787435 3.52613603 -1.33454536 2.1980747 0 0 Z " fill="#0F2975" transform="translate(218,246)"/>
<path d="M0 0 C2.52588702 2.36292656 3.88820837 3.66462511 5 7 C4.38125 7.28875 3.7625 7.5775 3.125 7.875 C0.86674235 8.93720042 0.86674235 8.93720042 -1 11 C-2.32 9.02 -3.64 7.04 -5 5 C-4.34 5 -3.68 5 -3 5 C-3 4.34 -3 3.68 -3 3 C-2.34 3 -1.68 3 -1 3 C-0.67 2.01 -0.34 1.02 0 0 Z " fill="#1E357C" transform="translate(224,251)"/>
<path d="M0 0 C0.33 0 0.66 0 1 0 C1.02505615 0.84183838 1.0501123 1.68367676 1.07592773 2.55102539 C1.17160279 5.70266144 1.27080076 8.85416226 1.37231445 12.00561523 C1.41537294 13.3642958 1.45706565 14.72302041 1.49731445 16.08178711 C1.55572893 18.04552303 1.61961803 20.00909364 1.68359375 21.97265625 C1.72025146 23.15093994 1.75690918 24.32922363 1.79467773 25.54321289 C1.94900349 29.06133908 1.94900349 29.06133908 2.58227539 32.75170898 C3 36 3 36 2 39 C1.34 38.67 0.68 38.34 0 38 C-2.6419163 25.8701582 -0.63247315 12.26940551 0 0 Z " fill="#D9E8EE" transform="translate(222,132)"/>
<path d="M0 0 C3.96 0 7.92 0 12 0 C12 0.66 12 1.32 12 2 C10.35 2 8.7 2 7 2 C7 5.3 7 8.6 7 12 C6.34 12 5.68 12 5 12 C5 9.03 5 6.06 5 3 C3.35 3 1.7 3 0 3 C0 2.01 0 1.02 0 0 Z " fill="#969696" transform="translate(327,367)"/>
<path d="M0 0 C0.66 0.33 1.32 0.66 2 1 C2 8.26 2 15.52 2 23 C1.34 23 0.68 23 0 23 C0 16.4 0 9.8 0 3 C-0.66 2.67 -1.32 2.34 -2 2 C-1.34 2 -0.68 2 0 2 C0 1.34 0 0.68 0 0 Z " fill="#E3A25F" transform="translate(281,126)"/>
<path d="M0 0 C1.32 0 2.64 0 4 0 C2.48728707 4.71437718 0.73227046 9.28958585 -1.125 13.875 C-1.40214844 14.56335938 -1.67929687 15.25171875 -1.96484375 15.9609375 C-2.64164233 17.64126501 -3.32059803 19.32072342 -4 21 C-4.33 21 -4.66 21 -5 21 C-4.3900874 16.01155691 -3.36525565 11.39844654 -1.9375 6.5625 C-1.57527344 5.32628906 -1.21304687 4.09007812 -0.83984375 2.81640625 C-0.56269531 1.88699219 -0.28554688 0.95757812 0 0 Z " fill="#44517F" transform="translate(259,287)"/>
<path d="M0 0 C1.65 0 3.3 0 5 0 C5.69710731 1.28650706 6.38242876 2.57940665 7.0625 3.875 C7.63677734 4.95394531 7.63677734 4.95394531 8.22265625 6.0546875 C8.47917969 6.69664062 8.73570312 7.33859375 9 8 C8.67 8.66 8.34 9.32 8 10 C4.27549784 7.89484661 2.3204079 6.75732776 0.625 2.75 C0.41875 1.8425 0.2125 0.935 0 0 Z " fill="#08B7F2" transform="translate(211,267)"/>
<path d="M0 0 C3.40603712 6.3085731 5.58288899 13.81103584 5 21 C1.155352 17.155352 -0.95918475 10.90695271 -1.03515625 5.49609375 C-0.75 3.3125 -0.75 3.3125 0 0 Z " fill="#3D4B7D" transform="translate(241,284)"/>
<path d="M0 0 C0.70125 0.309375 1.4025 0.61875 2.125 0.9375 C8.67648583 3.35870128 12.75743372 2.76608834 19.31640625 0.69140625 C21.99812741 0.00048246 24.24487232 -0.12455369 27 0 C25.68 0.33 24.36 0.66 23 1 C23 1.66 23 2.32 23 3 C8.42530068 6.05115201 8.42530068 6.05115201 3 5 C1.25 3.60546875 1.25 3.60546875 0 2 C0 1.34 0 0.68 0 0 Z " fill="#EB9742" transform="translate(291,142)"/>
<path d="M0 0 C3.3 0 6.6 0 10 0 C10 0.33 10 0.66 10 1 C7.36 1 4.72 1 2 1 C2 2.32 2 3.64 2 5 C3.65 5 5.3 5 7 5 C7 5.33 7 5.66 7 6 C5.35 6 3.7 6 2 6 C2 7.32 2 8.64 2 10 C4.64 10 7.28 10 10 10 C10 10.33 10 10.66 10 11 C6.7 11 3.4 11 0 11 C0 7.37 0 3.74 0 0 Z " fill="#5F5F5F" transform="translate(399,368)"/>
<path d="M0 0 C2.64 0 5.28 0 8 0 C8.5625 1.9375 8.5625 1.9375 9 4 C8 5 8 5 6.15234375 5.09765625 C4.1015625 5.06510417 2.05078125 5.03255208 0 5 C0 3.35 0 1.7 0 0 Z " fill="#DADADA" transform="translate(228,367)"/>
<path d="M0 0 C1.60407328 -0.02708567 3.2082785 -0.04643483 4.8125 -0.0625 C5.70582031 -0.07410156 6.59914063 -0.08570313 7.51953125 -0.09765625 C10 0 10 0 13 1 C12.34 2.32 11.68 3.64 11 5 C5.06 4.01 5.06 4.01 -1 3 C-0.67 2.01 -0.34 1.02 0 0 Z " fill="#626262" transform="translate(291,336)"/>
<path d="M0 0 C0.99 0.66 1.98 1.32 3 2 C2.34 2.66 1.68 3.32 1 4 C0.3574765 6.06874034 0.3574765 6.06874034 0 8 C-2.31 8.66 -4.62 9.32 -7 10 C-7.33 9.01 -7.66 8.02 -8 7 C-5.63707344 4.47411298 -4.33537489 3.11179163 -1 2 C-0.67 1.34 -0.34 0.68 0 0 Z " fill="#F9A417" transform="translate(203,170)"/>
<path d="M0 0 C2.31 1.65 4.62 3.3 7 5 C5.68 5.99 4.36 6.98 3 8 C3.33 9.65 3.66 11.3 4 13 C3.01 13.495 3.01 13.495 2 14 C0.09391902 10.78817851 -0.22266247 8.46117397 -0.125 4.75 C-0.09792969 3.41195312 -0.09792969 3.41195312 -0.0703125 2.046875 C-0.04710937 1.37140625 -0.02390625 0.6959375 0 0 Z " fill="#1E6DA0" transform="translate(234,188)"/>
<path d="M0 0 C5.13604912 1.7410336 8.92000285 3.30250259 13 7 C11.9275 6.979375 10.855 6.95875 9.75 6.9375 C5.76354943 6.98092387 5.76354943 6.98092387 2 8 C1.67 8.66 1.34 9.32 1 10 C1 6.89448334 1.5393715 5.64738916 3 3 C2.01 2.67 1.02 2.34 0 2 C0 1.34 0 0.68 0 0 Z " fill="#15BCF3" transform="translate(261,123)"/>
<path d="M0 0 C1.98 0 3.96 0 6 0 C6.38218767 1.65614657 6.71395102 3.32457024 7 5 C6 6 6 6 2.9375 6.0625 C1.4834375 6.0315625 1.4834375 6.0315625 0 6 C0 4.02 0 2.04 0 0 Z " fill="#A4A4A4" transform="translate(376,395)"/>
<path d="M0 0 C1.2065625 0.0309375 1.2065625 0.0309375 2.4375 0.0625 C3.0975 1.3825 3.7575 2.7025 4.4375 4.0625 C2.4375 6.0625 2.4375 6.0625 -0.1875 6.1875 C-0.97125 6.14625 -1.755 6.105 -2.5625 6.0625 C-2.94468767 4.40635343 -3.27645102 2.73792976 -3.5625 1.0625 C-2.5625 0.0625 -2.5625 0.0625 0 0 Z " fill="#777777" transform="translate(337.5625,394.9375)"/>
<path d="M0 0 C0.3690205 10.55808656 0.3690205 10.55808656 -2 15 C-3.37432457 11.18243176 -2.67975039 7.92744671 -2 4 C-2.99 4 -3.98 4 -5 4 C-5 4.66 -5 5.32 -5 6 C-6.32 5.67 -7.64 5.34 -9 5 C-7.68921847 4.16396622 -6.37632511 3.3312426 -5.0625 2.5 C-3.96615234 1.80390625 -3.96615234 1.80390625 -2.84765625 1.09375 C-1 0 -1 0 0 0 Z " fill="#F1AD40" transform="translate(319,221)"/>
<path d="M0 0 C1.98 0 3.96 0 6 0 C6.33 1.32 6.66 2.64 7 4 C5.35 4.33 3.7 4.66 2 5 C2 5.99 2 6.98 2 8 C1.34 8 0.68 8 0 8 C0 5.36 0 2.72 0 0 Z " fill="#8C8C8C" transform="translate(326,393)"/>
<path d="M0 0 C2.88437779 1.29299694 4.87219421 2.65941363 7 5 C7.433125 4.0409375 7.433125 4.0409375 7.875 3.0625 C9 1 9 1 11 0 C9.125 4.875 9.125 4.875 8 6 C7.63239269 8.32817964 7.29758419 10.6618385 7 13 C6.34 13 5.68 13 5 13 C4.731875 11.783125 4.46375 10.56625 4.1875 9.3125 C3.31505639 5.77878956 2.07843061 3.0231718 0 0 Z " fill="#656565" transform="translate(144,366)"/>
<path d="M0 0 C1.32 1.32 2.64 2.64 4 4 C3.34 4 2.68 4 2 4 C2 4.66 2 5.32 2 6 C1.01 6.495 1.01 6.495 0 7 C-1.13350534 9.01669827 -1.13350534 9.01669827 -2 11 C-3.37562854 9.71034824 -4.70766393 8.37310707 -6 7 C-6 6.34 -6 5.68 -6 5 C-5.195625 4.731875 -4.39125 4.46375 -3.5625 4.1875 C-2.716875 3.795625 -1.87125 3.40375 -1 3 C-0.67 2.01 -0.34 1.02 0 0 Z " fill="#2A4281" transform="translate(204,227)"/>
<path d="M0 0 C0.99 0 1.98 0 3 0 C3.25 3.3125 3.25 3.3125 3 7 C1.125 8.9375 1.125 8.9375 -1 10 C-1.66 10 -2.32 10 -3 10 C-2.67 7.36 -2.34 4.72 -2 2 C-1.34 2 -0.68 2 0 2 C0 1.34 0 0.68 0 0 Z " fill="#F9A419" transform="translate(314,225)"/>
<path d="M0 0 C1.98 0 3.96 0 6 0 C6 1.98 6 3.96 6 6 C4.02 6 2.04 6 0 6 C0 4.02 0 2.04 0 0 Z " fill="#8B8B8B" transform="translate(388,395)"/>
<path d="M0 0 C3.3 0 6.6 0 10 0 C10 0.33 10 0.66 10 1 C7.36 1 4.72 1 2 1 C2 2.32 2 3.64 2 5 C3.65 5 5.3 5 7 5 C7 5.33 7 5.66 7 6 C5.35 6 3.7 6 2 6 C2 7.65 2 9.3 2 11 C1.34 11 0.68 11 0 11 C0 7.37 0 3.74 0 0 Z " fill="#646464" transform="translate(113,368)"/>
<path d="M0 0 C2.475 0.495 2.475 0.495 5 1 C4.50510384 4.66223158 3.94323463 6.66993926 1 9 C0.67 9 0.34 9 0 9 C0 6.03 0 3.06 0 0 Z " fill="#1BB8EB" transform="translate(280,152)"/>
<path d="M0 0 C0.99 0.33 1.98 0.66 3 1 C4.1875 4.0625 4.1875 4.0625 5 7 C5.66 7 6.32 7 7 7 C7.33 6.34 7.66 5.68 8 5 C7.67 6.32 7.34 7.64 7 9 C6.01 9 5.02 9 4 9 C3.34 7.35 2.68 5.7 2 4 C1.67 6.31 1.34 8.62 1 11 C0.67 11 0.34 11 0 11 C0 7.37 0 3.74 0 0 Z " fill="#676767" transform="translate(66,368)"/>
<path d="M0 0 C0.33 0.66 0.66 1.32 1 2 C1.66 2 2.32 2 3 2 C3 1.34 3 0.68 3 0 C5 0 7 0 9 0 C8.34 1.98 7.68 3.96 7 6 C6.34 6 5.68 6 5 6 C5 5.01 5 4.02 5 3 C4.34 3 3.68 3 3 3 C3 3.99 3 4.98 3 6 C2.34 6 1.68 6 1 6 C0.67 4.02 0.34 2.04 0 0 Z " fill="#7E7E7E" transform="translate(343,395)"/>
<path d="M0 0 C0.33 0.66 0.66 1.32 1 2 C3.64 1.67 6.28 1.34 9 1 C9.66 2.98 10.32 4.96 11 7 C10.01 7 9.02 7 8 7 C7.67 6.01 7.34 5.02 7 4 C4.69 3.67 2.38 3.34 0 3 C-0.33 4.32 -0.66 5.64 -1 7 C-1.66 6.67 -2.32 6.34 -3 6 C-2.01 4.02 -1.02 2.04 0 0 Z " fill="#646464" transform="translate(52,372)"/>
<path d="M0 0 C1 3 1 3 0.22265625 5.04296875 C-0.16019531 5.75066406 -0.54304688 6.45835937 -0.9375 7.1875 C-1.31777344 7.90292969 -1.69804688 8.61835938 -2.08984375 9.35546875 C-2.54037109 10.16951172 -2.54037109 10.16951172 -3 11 C-3.99 11 -4.98 11 -6 11 C-3.76687117 3.98159509 -3.76687117 3.98159509 -2 1 C-1.34 0.67 -0.68 0.34 0 0 Z " fill="#626262" transform="translate(90,341)"/>
<path d="M0 0 C0.33 0.66 0.66 1.32 1 2 C0.175 1.9175 -0.65 1.835 -1.5 1.75 C-5.5142077 2.03672912 -7.83222441 3.24645475 -11.265625 5.22265625 C-11.83796875 5.47917969 -12.4103125 5.73570312 -13 6 C-13.66 5.67 -14.32 5.34 -15 5 C-14.01 4.67 -13.02 4.34 -12 4 C-12 3.01 -12 2.02 -12 1 C-7.69097166 -1.21980248 -4.68909708 -1.08209933 0 0 Z " fill="#2B74A4" transform="translate(201,285)"/>
<path d="M0 0 C2.31 0 4.62 0 7 0 C7 1.32 7 2.64 7 4 C4.69 4 2.38 4 0 4 C0 2.68 0 1.36 0 0 Z " fill="#DADADA" transform="translate(189,369)"/>
<path d="M0 0 C2.475 0.99 2.475 0.99 5 2 C2.31158141 4.25245881 0.35358125 5.88213958 -3 7 C-3.33 6.01 -3.66 5.02 -4 4 C-2.68 2.68 -1.36 1.36 0 0 Z " fill="#162864" transform="translate(313,219)"/>
<path d="M0 0 C1.04005702 3.38018531 1.08004482 6.4780279 1 10 C1.99 10.33 2.98 10.66 4 11 C4 11.99 4 12.98 4 14 C-0.875 12.125 -0.875 12.125 -2 11 C-2.28743526 6.78428287 -1.79760213 3.81990452 0 0 Z " fill="#ECB348" transform="translate(186,190)"/>
<path d="M0 0 C0.66 0 1.32 0 2 0 C2 2.97 2 5.94 2 9 C1.01 9.33 0.02 9.66 -1 10 C-1.9765625 3.9453125 -1.9765625 3.9453125 -2 2 C-1.34 1.34 -0.68 0.68 0 0 Z " fill="#1B91C7" transform="translate(218,152)"/>
<path d="M0 0 C0.99 0 1.98 0 3 0 C3 3.63 3 7.26 3 11 C2.34 11 1.68 11 1 11 C0.7834375 9.6078125 0.7834375 9.6078125 0.5625 8.1875 C0.07899889 4.99274889 0.07899889 4.99274889 -1 2 C-0.67 1.34 -0.34 0.68 0 0 Z " fill="#7A7A7A" transform="translate(75,368)"/>
<path d="M0 0 C3 1 3 1 4 3 C4.33 3 4.66 3 5 3 C5 6.63 5 10.26 5 14 C2.42853943 11.42853943 2.19882003 9.3949583 1.375 5.875 C1.11460937 4.77929688 0.85421875 3.68359375 0.5859375 2.5546875 C0.39257812 1.71164062 0.19921875 0.86859375 0 0 Z " fill="#1A94CA" transform="translate(245,264)"/>
<path d="M0 0 C3.68266103 0.59950296 7.34543185 1.24758891 11 2 C10.01 2.33 9.02 2.66 8 3 C8 3.66 8 4.32 8 5 C4.62537285 4.45276317 2.91765 3.9451 0 2 C0 1.34 0 0.68 0 0 Z " fill="#DAE6EB" transform="translate(241,192)"/>
<path d="M0 0 C1.98 0 3.96 0 6 0 C6 3 6 3 5 6 C3.35 6 1.7 6 0 6 C0 4.02 0 2.04 0 0 Z " fill="#888888" transform="translate(462,395)"/>
<path d="M0 0 C2.31 0 4.62 0 7 0 C7 1.32 7 2.64 7 4 C4.69 4 2.38 4 0 4 C0 2.68 0 1.36 0 0 Z " fill="#DEDEDE" transform="translate(83,369)"/>
<path d="M0 0 C0.33 0.66 0.66 1.32 1 2 C0.67 2.66 0.34 3.32 0 4 C-1.99319761 4.26140296 -3.98774473 4.51730424 -5.98828125 4.71484375 C-8.29528168 5.04185546 -10.02738757 5.76711723 -12 7 C-12 4 -12 4 -10 1 C-9.67 1.33 -9.34 1.66 -9 2 C-7.65252916 2.23075082 -6.29622435 2.41153063 -4.9375 2.5625 C-3.638125 2.706875 -2.33875 2.85125 -1 3 C-0.67 2.01 -0.34 1.02 0 0 Z " fill="#369FCD" transform="translate(245,154)"/>
<path d="M0 0 C0.33 0 0.66 0 1 0 C1 5.94 1 11.88 1 18 C0.67 18 0.34 18 0 18 C-0.33 14.04 -0.66 10.08 -1 6 C-1.99 6.495 -1.99 6.495 -3 7 C-1.125 1.125 -1.125 1.125 0 0 Z " fill="#DEDEDE" transform="translate(92,341)"/>
<path d="M0 0 C3.875 1.75 3.875 1.75 5 4 C4.01 4 3.02 4 2 4 C2.33 6.97 2.66 9.94 3 13 C0.89172945 9.83759418 0.66182535 8.49342531 0.375 4.8125 C0.30023438 3.91144531 0.22546875 3.01039063 0.1484375 2.08203125 C0.09945312 1.39496094 0.05046875 0.70789063 0 0 Z " fill="#1FB4E5" transform="translate(182,223)"/>
<path d="M0 0 C0.33 0.66 0.66 1.32 1 2 C-0.73407158 7.20221474 -2.34133287 9.85225194 -7 13 C-5.35821735 8.22390502 -2.73453298 4.20617096 0 0 Z " fill="#F1AF41" transform="translate(194,177)"/>
<path d="M0 0 C0.99 0 1.98 0 3 0 C2.67 0.99 2.34 1.98 2 3 C1.85426942 4.47965926 1.75336732 5.96403843 1.68359375 7.44921875 C1.64169922 8.29677734 1.59980469 9.14433594 1.55664062 10.01757812 C1.51732422 10.89865234 1.47800781 11.77972656 1.4375 12.6875 C1.39431641 13.58017578 1.35113281 14.47285156 1.30664062 15.39257812 C1.20064647 17.59490108 1.09857949 19.79733473 1 22 C0.67 22 0.34 22 0 22 C0 14.74 0 7.48 0 0 Z " fill="#E78A2E" transform="translate(218,127)"/>
<path d="M0 0 C7.66742597 5.96583144 7.66742597 5.96583144 9 11 C8.01 11.495 8.01 11.495 7 12 C6.896875 11.360625 6.79375 10.72125 6.6875 10.0625 C6.460625 9.381875 6.23375 8.70125 6 8 C5.01 7.67 4.02 7.34 3 7 C1.25372522 4.38058783 0.61277612 2.96175123 0 0 Z " fill="#3B6878" transform="translate(327,224)"/>
<path d="M0 0 C0.66 0 1.32 0 2 0 C2 0.66 2 1.32 2 2 C3.65 2 5.3 2 7 2 C5.37660195 3.70884005 3.70680947 5.37446717 2 7 C1.34 7 0.68 7 0 7 C0 4.69 0 2.38 0 0 Z " fill="#3BBAE3" transform="translate(291,210)"/>
<path d="M0 0 C0.598125 0.165 1.19625 0.33 1.8125 0.5 C4.11344336 1.1114124 4.11344336 1.1114124 7 1 C7.66 1 8.32 1 9 1 C8.67 2.65 8.34 4.3 8 6 C4.08597051 4.73058503 2.20927127 3.48832306 0 0 Z " fill="#1D93CA" transform="translate(237,186)"/>
<path d="M0 0 C0.66666667 1.33333333 1.33333333 2.66666667 2 4 C2.8353125 5.485 2.8353125 5.485 3.6875 7 C5.09916277 10.22665775 5.01719864 10.83234786 4 14 C-0.60244648 5.37308869 -0.60244648 5.37308869 -1 1 C-0.67 0.67 -0.34 0.34 0 0 Z " fill="#2F97C8" transform="translate(225,163)"/>
<path d="M0 0 C0.99 0.33 1.98 0.66 3 1 C2.1875 3.9375 2.1875 3.9375 1 7 C0.01 7.33 -0.98 7.66 -2 8 C-1.125 1.125 -1.125 1.125 0 0 Z " fill="#193175" transform="translate(262,280)"/>
<path d="M0 0 C0.66 0.66 1.32 1.32 2 2 C1.66555164 5.34448359 0.21127671 7.52337009 -2 10 C-2.66 10 -3.32 10 -4 10 C-2.8905928 6.51329166 -1.73662334 3.22515763 0 0 Z " fill="#357AAC" transform="translate(170,263)"/>
<path d="M0 0 C2.475 0.99 2.475 0.99 5 2 C5 3.32 5 4.64 5 6 C4.01 6.33 3.02 6.66 2 7 C1.87625 6.195625 1.7525 5.39125 1.625 4.5625 C1.315625 3.2940625 1.315625 3.2940625 1 2 C0.34 1.67 -0.32 1.34 -1 1 C-0.67 0.67 -0.34 0.34 0 0 Z " fill="#2FBBE8" transform="translate(296,205)"/>
<path d="M0 0 C0.99 0.33 1.98 0.66 3 1 C4.1875 3.5625 4.1875 3.5625 5 6 C2.69 6 0.38 6 -2 6 C-1.34 4.02 -0.68 2.04 0 0 Z " fill="#858585" transform="translate(432,395)"/>
<path d="M0 0 C0.99 0.33 1.98 0.66 3 1 C4.1875 3.5625 4.1875 3.5625 5 6 C2.69 6 0.38 6 -2 6 C-1.34 4.02 -0.68 2.04 0 0 Z " fill="#828282" transform="translate(418,395)"/>
<path d="M0 0 C0.33 1.32 0.66 2.64 1 4 C0.34 4 -0.32 4 -1 4 C-1 5.32 -1 6.64 -1 8 C-1.99 8.66 -2.98 9.32 -4 10 C-4.99 9.67 -5.98 9.34 -7 9 C-6.57847656 8.51789063 -6.15695312 8.03578125 -5.72265625 7.5390625 C-5.17480469 6.90742188 -4.62695312 6.27578125 -4.0625 5.625 C-3.51722656 4.99851563 -2.97195313 4.37203125 -2.41015625 3.7265625 C-0.93041376 2.04367666 -0.93041376 2.04367666 0 0 Z " fill="#F0B03F" transform="translate(302,248)"/>
<path d="M0 0 C0.33 0.66 0.66 1.32 1 2 C0.25 4.0625 0.25 4.0625 -1 6 C-1.99 6.33 -2.98 6.66 -4 7 C-4.99 8.485 -4.99 8.485 -6 10 C-6.66 9.67 -7.32 9.34 -8 9 C-5.36 6.03 -2.72 3.06 0 0 Z " fill="#EEB34C" transform="translate(203,167)"/>
<path d="M0 0 C1.98 0 3.96 0 6 0 C5.01 1.485 5.01 1.485 4 3 C3.34 3 2.68 3 2 3 C2 3.66 2 4.32 2 5 C3.32 5.33 4.64 5.66 6 6 C4.02 6 2.04 6 0 6 C0 4.02 0 2.04 0 0 Z " fill="#737373" transform="translate(353,395)"/>
<path d="M0 0 C1.62723299 0.45034123 3.25173664 0.91055354 4.875 1.375 C5.77992188 1.63023437 6.68484375 1.88546875 7.6171875 2.1484375 C10 3 10 3 12 5 C10.3739713 4.93999894 8.74898451 4.8512115 7.125 4.75 C5.76761719 4.68039062 5.76761719 4.68039062 4.3828125 4.609375 C2 4 2 4 0.6796875 1.953125 C0.45539063 1.30859375 0.23109375 0.6640625 0 0 Z " fill="#09377A" transform="translate(213,293)"/>
<path d="M0 0 C2.50298434 2.93828597 3.46930939 5.17902761 4 9 C2.02 8.01 0.04 7.02 -2 6 C-1.34 5.67 -0.68 5.34 0 5 C0 3.35 0 1.7 0 0 Z " fill="#50BFE2" transform="translate(216,268)"/>
<path d="M0 0 C1.32 0 2.64 0 4 0 C2.84826645 2.46800047 1.95216435 4.04783565 0 6 C-0.99 5.67 -1.98 5.34 -3 5 C-1.75 2.5 -1.75 2.5 0 0 Z " fill="#2071A0" transform="translate(315,256)"/>
<path d="M0 0 C0.99 0 1.98 0 3 0 C2.34 1.32 1.68 2.64 1 4 C0.67 2.68 0.34 1.36 0 0 Z M-3 4 C-2.01 4.33 -1.02 4.66 0 5 C-1.32 6.65 -2.64 8.3 -4 10 C-4.66 9.67 -5.32 9.34 -6 9 C-5.01 7.35 -4.02 5.7 -3 4 Z " fill="#21B9EE" transform="translate(272,197)"/>
<path d="M0 0 C1.98 0.495 1.98 0.495 4 1 C3.01 1.33 2.02 1.66 1 2 C1.185625 2.94875 1.37125 3.8975 1.5625 4.875 C2 8 2 8 1 10 C0.34 9.34 -0.32 8.68 -1 8 C-0.96712417 5.27130593 -0.43602229 2.7033382 0 0 Z " fill="#EBB34F" transform="translate(286,161)"/>
<path d="M0 0 C0.66 0 1.32 0 2 0 C2.66 1.98 3.32 3.96 4 6 C2.02 6 0.04 6 -2 6 C-1.34 4.02 -0.68 2.04 0 0 Z " fill="#7E7E7E" transform="translate(440,395)"/>
<path d="M0 0 C4.875 4.625 4.875 4.625 6 8 C2.125 7.125 2.125 7.125 1 6 C0.67 6 0.34 6 0 6 C0 4.02 0 2.04 0 0 Z " fill="#276FA0" transform="translate(227,290)"/>
<path d="M0 0 C0.33 0.99 0.66 1.98 1 3 C3.01508358 3.73323796 3.01508358 3.73323796 5 4 C1.69564916 5.12377697 -0.0506862 4.89554742 -3.25 3.5625 C-3.95640625 3.27503906 -4.6628125 2.98757813 -5.390625 2.69140625 C-5.92171875 2.46324219 -6.4528125 2.23507812 -7 2 C-6.401875 1.855625 -5.80375 1.71125 -5.1875 1.5625 C-3.43849596 1.1127561 -1.71322977 0.57107659 0 0 Z " fill="#3D82A6" transform="translate(314,287)"/>
<path d="M0 0 C0.33 0.99 0.66 1.98 1 3 C0.34 3.66 -0.32 4.32 -1 5 C-1.309375 5.845625 -1.61875 6.69125 -1.9375 7.5625 C-2.288125 8.366875 -2.63875 9.17125 -3 10 C-3.99 10.33 -4.98 10.66 -6 11 C-4.54955729 6.89041233 -2.48889248 3.56741255 0 0 Z " fill="#2C407C" transform="translate(279,247)"/>
<path d="M0 0 C3.36591866 1.44253657 5.51047079 3.33264727 8 6 C4.48283697 6 3.62878252 5.17554415 1 3 C0.67 3.99 0.34 4.98 0 6 C0 4.02 0 2.04 0 0 Z " fill="#B0D0E0" transform="translate(181,220)"/>
<path d="M0 0 C0.33 0 0.66 0 1 0 C1.02698189 1.62490954 1.04638757 3.24994633 1.0625 4.875 C1.07410156 5.77992188 1.08570313 6.68484375 1.09765625 7.6171875 C1 10 1 10 0 12 C-0.99 11.67 -1.98 11.34 -3 11 C-2.690625 10.484375 -2.38125 9.96875 -2.0625 9.4375 C-0.70940713 6.33334577 -0.38640576 3.34884993 0 0 Z " fill="#317AAC" transform="translate(173,212)"/>
<path d="M0 0 C1.32 0 2.64 0 4 0 C4 1.65 4 3.3 4 5 C2.68 5 1.36 5 0 5 C0 3.35 0 1.7 0 0 Z " fill="#EEEEEE" transform="translate(409,395)"/>
<path d="M0 0 C1.5 1.3125 1.5 1.3125 3 3 C3 3.99 3 4.98 3 6 C1.35 6 -0.3 6 -2 6 C-1.34 4.02 -0.68 2.04 0 0 Z " fill="#DDDDDD" transform="translate(55,368)"/>
<path d="M0 0 C1.32 0.33 2.64 0.66 4 1 C4 2.65 4 4.3 4 6 C3.01 6.495 3.01 6.495 2 7 C0.5393715 4.35261084 0 3.10551666 0 0 Z " fill="#162F74" transform="translate(237,283)"/>
<path d="M0 0 C0.33 0.99 0.66 1.98 1 3 C0.34 3.66 -0.32 4.32 -1 5 C-1.99 4.67 -2.98 4.34 -4 4 C-4 4.66 -4 5.32 -4 6 C-5.32 5.67 -6.64 5.34 -8 5 C-4.04 2.525 -4.04 2.525 0 0 Z " fill="#CE9640" transform="translate(318,221)"/>
<path d="M0 0 C1.98 0.99 1.98 0.99 4 2 C4 3.65 4 5.3 4 7 C2.68 6.34 1.36 5.68 0 5 C0 3.35 0 1.7 0 0 Z " fill="#2A91C7" transform="translate(219,163)"/>
<path d="M0 0 C2.49388574 4.98777148 1.88836125 6.66983248 1 12 C0.01 11.34 -0.98 10.68 -2 10 C-1.34 6.7 -0.68 3.4 0 0 Z " fill="#E1EAE9" transform="translate(284,157)"/>
<path d="M0 0 C0.99 0.33 1.98 0.66 3 1 C0.6875 3.5 0.6875 3.5 -2 6 C-2.99 6 -3.98 6 -5 6 C-4.67 5.01 -4.34 4.02 -4 3 C-3.01 3 -2.02 3 -1 3 C-0.67 2.01 -0.34 1.02 0 0 Z " fill="#1D74A1" transform="translate(322,284)"/>
<path d="M0 0 C2.35953094 2.35953094 2.49141413 3.77895617 3 7 C1.35 7 -0.3 7 -2 7 C-2.33 6.01 -2.66 5.02 -3 4 C-2.34 3.67 -1.68 3.34 -1 3 C-0.67 2.01 -0.34 1.02 0 0 Z " fill="#2D4481" transform="translate(238,277)"/>
<path d="M0 0 C0.66 0 1.32 0 2 0 C1.67 1.65 1.34 3.3 1 5 C-0.32 5.33 -1.64 5.66 -3 6 C-2.67 4.68 -2.34 3.36 -2 2 C-1.34 2 -0.68 2 0 2 C0 1.34 0 0.68 0 0 Z " fill="#092576" transform="translate(206,231)"/>
<path d="M0 0 C0.66 0 1.32 0 2 0 C2.33 1.65 2.66 3.3 3 5 C1.35 5 -0.3 5 -2 5 C-1.125 1.125 -1.125 1.125 0 0 Z " fill="#03B8F3" transform="translate(295,207)"/>
<path d="M0 0 C0.66 0.33 1.32 0.66 2 1 C1.01 2.485 1.01 2.485 0 4 C-3.125 4.1875 -3.125 4.1875 -6 4 C-6.33 4.66 -6.66 5.32 -7 6 C-7 5.01 -7 4.02 -7 3 C-4.69631264 1.93347808 -2.35981813 0.93578995 0 0 Z " fill="#3398C4" transform="translate(206,204)"/>
<path d="M0 0 C0.99 0.33 1.98 0.66 3 1 C2.67 1.99 2.34 2.98 2 4 C-0.5625 5.1875 -0.5625 5.1875 -3 6 C-1.125 1.125 -1.125 1.125 0 0 Z " fill="#F1F0EE" transform="translate(238,119)"/>
<path d="M0 0 C0.33 1.32 0.66 2.64 1 4 C-0.98 4.99 -0.98 4.99 -3 6 C-3.66 5.34 -4.32 4.68 -5 4 C-3.35 2.68 -1.7 1.36 0 0 Z " fill="#D2E5ED" transform="translate(263,187)"/>
<path d="M0 0 C1.32 0 2.64 0 4 0 C3.67 1.32 3.34 2.64 3 4 C1.68 3.67 0.36 3.34 -1 3 C-0.67 2.01 -0.34 1.02 0 0 Z " fill="#F0F0F0" transform="translate(336,396)"/>
<path d="M0 0 C1.32 0 2.64 0 4 0 C3.34 1.98 2.68 3.96 2 6 C1.01 5.67 0.02 5.34 -1 5 C-0.67 3.35 -0.34 1.7 0 0 Z " fill="#33457E" transform="translate(259,287)"/>
<path d="M0 0 C0.33 0.99 0.66 1.98 1 3 C-0.8125 4.5625 -0.8125 4.5625 -3 6 C-3.99 5.67 -4.98 5.34 -6 5 C-4.02 3.35 -2.04 1.7 0 0 Z " fill="#136EA9" transform="translate(196,280)"/>
<path d="M0 0 C1.32 0.33 2.64 0.66 4 1 C3.67 2.65 3.34 4.3 3 6 C2.01 5.67 1.02 5.34 0 5 C0 3.35 0 1.7 0 0 Z " fill="#0D2773" transform="translate(234,275)"/>
<path d="M0 0 C0.66 0 1.32 0 2 0 C2.05399736 1.45792884 2.09279177 2.91642712 2.125 4.375 C2.14820313 5.18710937 2.17140625 5.99921875 2.1953125 6.8359375 C2 9 2 9 0 11 C-1.23358416 7.29924751 -0.63430413 4.80582476 0 1 C0 0.67 0 0.34 0 0 Z " fill="#3D7FA9" transform="translate(172,253)"/>
<path d="M0 0 C1.74627478 2.61941217 2.38722388 4.03824877 3 7 C1.35 7 -0.3 7 -2 7 C-2 6.01 -2 5.02 -2 4 C-1.34 4 -0.68 4 0 4 C0 2.68 0 1.36 0 0 Z " fill="#30BEEE" transform="translate(193,238)"/>
<path d="M0 0 C3.35595828 0.59927826 5.37801226 1.84622436 8 4 C5.69 3.67 3.38 3.34 1 3 C0.67 2.01 0.34 1.02 0 0 Z " fill="#27B9EA" transform="translate(266,126)"/>
</svg>
